<?xml version="1.0" encoding="utf-8"?>
<!-- Generator: Adobe Illustrator 26.1.0, SVG Export Plug-In . SVG Version: 6.00 Build 0)  -->
<svg version="1.1" id="Layer_1" xmlns="http://www.w3.org/2000/svg" xmlns:xlink="http://www.w3.org/1999/xlink" x="0px" y="0px"
	 viewBox="0 0 612 792" style="enable-background:new 0 0 612 792;" xml:space="preserve">
<style type="text/css">
	.st0{fill:#FFCA3D;}
	.st1{fill:#131313;}
</style>
<rect x="150.2" class="st0" width="349.92" height="792"/>
<g id="SvgjsG1240" transform="matrix(0.9552998825966725,0,0,0.9552998825966725,-27.343545944908506,-13.208931155976364)">
	<path class="st1" d="M222.2,165.69c-1,0-1.81,0.81-1.81,1.81s0.81,1.81,1.81,1.81c1,0,1.81-0.81,1.81-1.81
		S223.2,165.69,222.2,165.69z"/>
	<path class="st1" d="M221.4,161.31c0-1.63-1.33-2.96-2.96-2.96c-1.63,0-2.96,1.33-2.96,2.96s1.33,2.96,2.96,2.96
		S221.4,162.94,221.4,161.31z"/>
	<path class="st1" d="M234.98,161.09c-0.63-0.63-1.29-1.22-1.96-1.79c0,0,0,0,0-0.01c0,0-0.01,0-0.01-0.01
		c-5.34-4.47-12.01-6.91-19.05-6.91c-0.28,0-0.5,0.22-0.5,0.5v29.24c0,0.2,0.12,0.39,0.31,0.46c0.06,0.03,0.13,0.04,0.19,0.04
		c0.13,0,0.26-0.05,0.35-0.15l3.25-3.25c0.26,0.35,0.22,0.93,0.22,0.93c0,0.01,0,0.03,0,0.04c0,0.85,0.69,1.53,1.53,1.53
		s1.53-0.69,1.53-1.53v-3.49v-0.78l4.24-4.24c0.32,0.03,0.56,0.15,0.74,0.35c0.42,0.45,0.45,1.27,0.43,1.55c0,0.01,0,0.03,0,0.04
		c0,1.08,0.87,1.95,1.95,1.95s1.95-0.87,1.95-1.95v-4.83v-2.18l4.83-4.83c0.09-0.09,0.15-0.22,0.15-0.35
		C235.13,161.31,235.08,161.18,234.98,161.09z M229.65,164.2c-0.28,0-0.5,0.22-0.5,0.5v1.72v2.38v4.83c0,0.52-0.42,0.95-0.95,0.95
		c-0.52,0-0.94-0.42-0.95-0.93c0.01-0.21,0.06-1.47-0.69-2.28c-0.42-0.45-0.98-0.68-1.68-0.68c-0.13,0-0.26,0.05-0.35,0.15
		l-3.69,3.69v-1.53c0-0.28-0.22-0.5-0.5-0.5s-0.5,0.22-0.5,0.5v2.74v0.99v3.49c0,0.29-0.24,0.53-0.53,0.53
		c-0.29,0-0.52-0.23-0.53-0.51c0.04-0.61-0.13-1.71-1.08-2.11c-0.19-0.08-0.41-0.04-0.55,0.11l-2.7,2.7v-5
		c1.4-0.24,2.46-1.45,2.46-2.92s-1.07-2.68-2.46-2.92v-13.14c6.26,0.43,12.23,2.91,16.95,7.03l-1.24,1.24v-0.51
		C230.15,164.42,229.93,164.2,229.65,164.2z M232.11,163.25c-1.73-1.52-3.63-2.83-5.65-3.91l0.8-1.33c0.14-0.24,0.07-0.55-0.17-0.69
		c-0.24-0.14-0.55-0.07-0.69,0.17l-0.84,1.4c-2.7-1.32-5.59-2.23-8.57-2.69l0.41-1.43c0.08-0.27-0.08-0.54-0.34-0.62
		c-0.27-0.08-0.54,0.08-0.62,0.34l-0.45,1.56c-0.51-0.06-1.02-0.11-1.53-0.14v-2.54c2.71,0.05,5.36,0.47,7.89,1.24l-0.59,1.25
		c-0.12,0.25-0.01,0.55,0.24,0.67c0.07,0.03,0.14,0.05,0.21,0.05c0.19,0,0.37-0.11,0.45-0.29l0.65-1.37
		c3.11,1.07,6.03,2.67,8.63,4.77l-0.77,0.82c-0.19,0.2-0.18,0.52,0.02,0.71c0.1,0.09,0.22,0.14,0.34,0.14
		c0.13,0,0.27-0.05,0.36-0.16l0.81-0.86c0.41,0.35,0.81,0.72,1.21,1.1L232.11,163.25z"/>
</g>
<g id="SvgjsG1240_00000121270590766409560390000010561620397317544339_" transform="matrix(0.9552998825966725,0,0,0.9552998825966725,-27.343545944908506,-13.208931155976364)">
	<path class="st1" d="M391.73,422.01c-1,0-1.81,0.81-1.81,1.81s0.81,1.81,1.81,1.81s1.81-0.81,1.81-1.81
		S392.73,422.01,391.73,422.01z"/>
	<path class="st1" d="M390.93,417.63c0-1.63-1.33-2.96-2.96-2.96c-1.63,0-2.96,1.33-2.96,2.96s1.33,2.96,2.96,2.96
		S390.93,419.26,390.93,417.63z"/>
	<path class="st1" d="M404.51,417.41c-0.63-0.63-1.29-1.22-1.96-1.79c0,0,0,0,0-0.01c0,0-0.01,0-0.01-0.01
		c-5.34-4.47-12.01-6.91-19.05-6.91c-0.28,0-0.5,0.22-0.5,0.5v29.24c0,0.2,0.12,0.39,0.31,0.46c0.06,0.03,0.13,0.04,0.19,0.04
		c0.13,0,0.26-0.05,0.35-0.15l3.25-3.25c0.26,0.35,0.22,0.93,0.22,0.93c0,0.01,0,0.03,0,0.04c0,0.85,0.69,1.53,1.53,1.53
		s1.53-0.69,1.53-1.53v-3.49v-0.78l4.24-4.24c0.32,0.03,0.56,0.15,0.74,0.35c0.42,0.45,0.45,1.27,0.43,1.55c0,0.01,0,0.03,0,0.04
		c0,1.08,0.87,1.95,1.95,1.95s1.95-0.87,1.95-1.95v-4.83v-2.18l4.83-4.83c0.09-0.09,0.15-0.22,0.15-0.35
		C404.66,417.63,404.61,417.5,404.51,417.41z M399.18,420.52c-0.28,0-0.5,0.22-0.5,0.5v1.72v2.38v4.83c0,0.52-0.42,0.95-0.95,0.95
		c-0.52,0-0.94-0.42-0.95-0.93c0.01-0.21,0.06-1.47-0.69-2.28c-0.42-0.45-0.98-0.68-1.68-0.68c-0.13,0-0.26,0.05-0.35,0.15
		l-3.69,3.69v-1.53c0-0.28-0.22-0.5-0.5-0.5c-0.28,0-0.5,0.22-0.5,0.5v2.74v0.99v3.49c0,0.29-0.24,0.53-0.53,0.53
		c-0.29,0-0.52-0.23-0.53-0.51c0.04-0.61-0.13-1.71-1.08-2.11c-0.19-0.08-0.41-0.04-0.55,0.11l-2.7,2.7v-5
		c1.4-0.24,2.46-1.45,2.46-2.92s-1.07-2.68-2.46-2.92v-13.14c6.26,0.43,12.23,2.91,16.95,7.03l-1.24,1.24v-0.51
		C399.68,420.74,399.46,420.52,399.18,420.52z M401.64,419.57c-1.73-1.52-3.63-2.83-5.65-3.91l0.8-1.33
		c0.14-0.24,0.07-0.55-0.17-0.69c-0.24-0.14-0.55-0.07-0.69,0.17l-0.84,1.4c-2.7-1.32-5.59-2.23-8.57-2.69l0.41-1.43
		c0.08-0.27-0.08-0.54-0.34-0.62c-0.27-0.08-0.54,0.08-0.62,0.34l-0.45,1.56c-0.51-0.06-1.02-0.11-1.53-0.14v-2.54
		c2.71,0.05,5.36,0.47,7.89,1.24l-0.59,1.25c-0.12,0.25-0.01,0.55,0.24,0.67c0.07,0.03,0.14,0.05,0.21,0.05
		c0.19,0,0.37-0.11,0.45-0.29l0.65-1.37c3.11,1.07,6.03,2.67,8.63,4.77l-0.77,0.82c-0.19,0.2-0.18,0.52,0.02,0.71
		c0.1,0.09,0.22,0.14,0.34,0.14c0.13,0,0.27-0.05,0.36-0.16l0.81-0.86c0.41,0.35,0.81,0.72,1.21,1.1L401.64,419.57z"/>
</g>
<g id="SvgjsG1240_00000105388195392446056370000012770569035690254223_" transform="matrix(0.9552998825966725,0,0,0.9552998825966725,-27.343545944908506,-13.208931155976364)">
	<path class="st1" d="M489.92,371.74c-1,0-1.81,0.81-1.81,1.81s0.81,1.81,1.81,1.81c1,0,1.81-0.81,1.81-1.81
		S490.91,371.74,489.92,371.74z"/>
	<path class="st1" d="M489.11,367.36c0-1.63-1.33-2.96-2.96-2.96c-1.63,0-2.96,1.33-2.96,2.96s1.33,2.96,2.96,2.96
		C487.78,370.32,489.11,368.99,489.11,367.36z"/>
	<path class="st1" d="M502.7,367.13c-0.63-0.63-1.29-1.22-1.96-1.79c0,0,0,0,0-0.01c0,0-0.01,0-0.01-0.01
		c-5.34-4.47-12.01-6.91-19.05-6.91c-0.28,0-0.5,0.22-0.5,0.5v29.24c0,0.2,0.12,0.39,0.31,0.46c0.06,0.03,0.13,0.04,0.19,0.04
		c0.13,0,0.26-0.05,0.35-0.15l3.25-3.25c0.26,0.35,0.22,0.93,0.22,0.93c0,0.01,0,0.03,0,0.04c0,0.85,0.69,1.53,1.53,1.53
		s1.53-0.69,1.53-1.53v-3.49v-0.78l4.24-4.24c0.32,0.03,0.56,0.15,0.74,0.35c0.42,0.45,0.45,1.27,0.43,1.55c0,0.01,0,0.03,0,0.04
		c0,1.08,0.87,1.95,1.95,1.95s1.95-0.87,1.95-1.95v-4.83v-2.18l4.83-4.83c0.09-0.09,0.15-0.22,0.15-0.35
		C502.84,367.35,502.79,367.23,502.7,367.13z M497.36,370.24c-0.28,0-0.5,0.22-0.5,0.5v1.72v2.38v4.83c0,0.52-0.42,0.95-0.95,0.95
		c-0.52,0-0.94-0.42-0.95-0.93c0.01-0.21,0.06-1.47-0.69-2.28c-0.42-0.45-0.98-0.68-1.68-0.68c-0.13,0-0.26,0.05-0.35,0.15
		l-3.69,3.69v-1.53c0-0.28-0.22-0.5-0.5-0.5c-0.28,0-0.5,0.22-0.5,0.5v2.74v0.99v3.49c0,0.29-0.24,0.53-0.53,0.53
		c-0.29,0-0.52-0.23-0.53-0.51c0.04-0.61-0.13-1.71-1.08-2.11c-0.19-0.08-0.41-0.04-0.55,0.11l-2.7,2.7v-5
		c1.4-0.24,2.46-1.45,2.46-2.92s-1.07-2.68-2.46-2.92v-13.14c6.26,0.43,12.23,2.91,16.95,7.03l-1.24,1.24v-0.51
		C497.87,370.47,497.64,370.24,497.36,370.24z M499.82,369.3c-1.73-1.52-3.63-2.83-5.65-3.91l0.8-1.33
		c0.14-0.24,0.07-0.55-0.17-0.69c-0.24-0.14-0.55-0.07-0.69,0.17l-0.84,1.4c-2.7-1.32-5.59-2.23-8.57-2.69l0.41-1.43
		c0.08-0.27-0.08-0.54-0.34-0.62c-0.27-0.08-0.54,0.08-0.62,0.34l-0.45,1.56c-0.51-0.06-1.02-0.11-1.53-0.14v-2.54
		c2.71,0.05,5.36,0.47,7.89,1.24l-0.59,1.25c-0.12,0.25-0.01,0.55,0.24,0.67c0.07,0.03,0.14,0.05,0.21,0.05
		c0.19,0,0.37-0.11,0.45-0.29l0.65-1.37c3.11,1.07,6.03,2.67,8.63,4.77l-0.77,0.82c-0.19,0.2-0.18,0.52,0.02,0.71
		c0.1,0.09,0.22,0.14,0.34,0.14c0.13,0,0.27-0.05,0.36-0.16l0.81-0.86c0.41,0.35,0.81,0.72,1.21,1.1L499.82,369.3z"/>
</g>
<g id="SvgjsG1240_00000005225454575862323350000006242910331840591294_" transform="matrix(0.9552998825966725,0,0,0.9552998825966725,-27.343545944908506,-13.208931155976364)">
	<path class="st1" d="M357.7,322.06c-1,0-1.81,0.81-1.81,1.81c0,1,0.81,1.81,1.81,1.81s1.81-0.81,1.81-1.81
		C359.5,322.87,358.69,322.06,357.7,322.06z"/>
	<path class="st1" d="M356.89,317.68c0-1.63-1.33-2.96-2.96-2.96c-1.63,0-2.96,1.33-2.96,2.96s1.33,2.96,2.96,2.96
		S356.89,319.31,356.89,317.68z"/>
	<path class="st1" d="M370.48,317.45c-0.63-0.63-1.29-1.22-1.96-1.79c0,0,0,0,0-0.01c0,0-0.01,0-0.01-0.01
		c-5.34-4.47-12.01-6.91-19.05-6.91c-0.28,0-0.5,0.22-0.5,0.5v29.24c0,0.2,0.12,0.39,0.31,0.46c0.06,0.03,0.13,0.04,0.19,0.04
		c0.13,0,0.26-0.05,0.35-0.15l3.25-3.25c0.26,0.35,0.22,0.93,0.22,0.93c0,0.01,0,0.03,0,0.04c0,0.85,0.69,1.53,1.53,1.53
		s1.53-0.69,1.53-1.53v-3.49v-0.78l4.24-4.24c0.32,0.03,0.56,0.15,0.74,0.35c0.42,0.45,0.45,1.27,0.43,1.55c0,0.01,0,0.03,0,0.04
		c0,1.08,0.87,1.95,1.95,1.95s1.95-0.87,1.95-1.95v-4.83v-2.18l4.83-4.83c0.09-0.09,0.15-0.22,0.15-0.35
		S370.57,317.55,370.48,317.45z M365.14,320.56c-0.28,0-0.5,0.22-0.5,0.5v1.72v2.38V330c0,0.52-0.42,0.95-0.95,0.95
		c-0.52,0-0.94-0.42-0.95-0.93c0.01-0.21,0.06-1.47-0.69-2.28c-0.42-0.45-0.98-0.68-1.68-0.68c-0.13,0-0.26,0.05-0.35,0.15
		l-3.69,3.69v-1.53c0-0.28-0.22-0.5-0.5-0.5c-0.28,0-0.5,0.22-0.5,0.5v2.74v0.99v3.49c0,0.29-0.24,0.53-0.53,0.53
		c-0.29,0-0.52-0.23-0.53-0.51c0.04-0.61-0.13-1.71-1.08-2.11c-0.19-0.08-0.41-0.04-0.55,0.11l-2.7,2.7v-5
		c1.4-0.24,2.46-1.45,2.46-2.92s-1.07-2.68-2.46-2.92v-13.14c6.26,0.43,12.23,2.91,16.95,7.03l-1.24,1.24v-0.51
		C365.64,320.79,365.42,320.56,365.14,320.56z M367.6,319.62c-1.73-1.52-3.63-2.83-5.65-3.91l0.8-1.33
		c0.14-0.24,0.07-0.55-0.17-0.69c-0.24-0.14-0.55-0.07-0.69,0.17l-0.84,1.4c-2.7-1.32-5.59-2.23-8.57-2.69l0.41-1.43
		c0.08-0.27-0.08-0.54-0.34-0.62c-0.27-0.08-0.54,0.08-0.62,0.34l-0.45,1.56c-0.51-0.06-1.02-0.11-1.53-0.14v-2.54
		c2.71,0.05,5.36,0.47,7.89,1.24l-0.59,1.25c-0.12,0.25-0.01,0.55,0.24,0.67c0.07,0.03,0.14,0.05,0.21,0.05
		c0.19,0,0.37-0.11,0.45-0.29l0.65-1.37c3.11,1.07,6.03,2.67,8.63,4.77l-0.77,0.82c-0.19,0.2-0.18,0.52,0.02,0.71
		c0.1,0.09,0.22,0.14,0.34,0.14c0.13,0,0.27-0.05,0.36-0.16l0.81-0.86c0.41,0.35,0.81,0.72,1.21,1.1L367.6,319.62z"/>
</g>
<g id="SvgjsG1240_00000183932784425939842020000013385395883538559922_" transform="matrix(0.9552998825966725,0,0,0.9552998825966725,-27.343545944908506,-13.208931155976364)">
	<path class="st1" d="M461.7,269.07c-1,0-1.81,0.81-1.81,1.81c0,1,0.81,1.81,1.81,1.81c1,0,1.81-0.81,1.81-1.81
		C463.51,269.88,462.7,269.07,461.7,269.07z"/>
	<path class="st1" d="M460.9,264.69c0-1.63-1.33-2.96-2.96-2.96c-1.63,0-2.96,1.33-2.96,2.96s1.33,2.96,2.96,2.96
		S460.9,266.32,460.9,264.69z"/>
	<path class="st1" d="M474.48,264.47c-0.63-0.63-1.29-1.22-1.96-1.79c0,0,0,0,0-0.01c0,0-0.01,0-0.01-0.01
		c-5.34-4.47-12.01-6.91-19.05-6.91c-0.28,0-0.5,0.22-0.5,0.5v29.24c0,0.2,0.12,0.39,0.31,0.46c0.06,0.03,0.13,0.04,0.19,0.04
		c0.13,0,0.26-0.05,0.35-0.15l3.25-3.25c0.26,0.35,0.22,0.93,0.22,0.93c0,0.01,0,0.03,0,0.04c0,0.85,0.69,1.53,1.53,1.53
		c0.84,0,1.53-0.69,1.53-1.53v-3.49v-0.78l4.24-4.24c0.32,0.03,0.56,0.15,0.74,0.35c0.42,0.45,0.45,1.27,0.43,1.55
		c0,0.01,0,0.03,0,0.04c0,1.08,0.87,1.95,1.95,1.95s1.95-0.87,1.95-1.95v-4.83V270l4.83-4.83c0.09-0.09,0.15-0.22,0.15-0.35
		S474.57,264.56,474.48,264.47z M469.15,267.58c-0.28,0-0.5,0.22-0.5,0.5v1.72v2.39v4.83c0,0.52-0.42,0.95-0.95,0.95
		c-0.52,0-0.94-0.42-0.95-0.93c0.01-0.21,0.06-1.47-0.69-2.28c-0.42-0.45-0.98-0.68-1.68-0.68c-0.13,0-0.26,0.05-0.35,0.15
		l-3.69,3.69v-1.53c0-0.28-0.22-0.5-0.5-0.5c-0.28,0-0.5,0.22-0.5,0.5v2.74v0.99v3.49c0,0.29-0.24,0.53-0.53,0.53
		c-0.29,0-0.52-0.23-0.53-0.51c0.04-0.61-0.13-1.71-1.08-2.11c-0.19-0.08-0.41-0.04-0.55,0.11l-2.7,2.7v-5
		c1.4-0.24,2.46-1.45,2.46-2.92s-1.07-2.68-2.46-2.92v-13.14c6.26,0.43,12.23,2.91,16.95,7.03l-1.24,1.24v-0.51
		C469.65,267.8,469.43,267.58,469.15,267.58z M471.61,266.63c-1.73-1.52-3.63-2.83-5.65-3.91l0.8-1.33
		c0.14-0.24,0.07-0.55-0.17-0.69c-0.24-0.14-0.55-0.07-0.69,0.17l-0.84,1.4c-2.7-1.32-5.59-2.23-8.57-2.69l0.41-1.43
		c0.08-0.27-0.08-0.54-0.34-0.62c-0.27-0.08-0.54,0.08-0.62,0.34l-0.45,1.56c-0.51-0.06-1.02-0.11-1.53-0.14v-2.54
		c2.71,0.05,5.36,0.47,7.89,1.24l-0.59,1.25c-0.12,0.25-0.01,0.55,0.24,0.67c0.07,0.03,0.14,0.05,0.21,0.05
		c0.19,0,0.37-0.11,0.45-0.29l0.65-1.37c3.11,1.07,6.03,2.67,8.63,4.77l-0.77,0.82c-0.19,0.2-0.18,0.52,0.02,0.71
		c0.1,0.09,0.22,0.14,0.34,0.14c0.13,0,0.27-0.05,0.36-0.16l0.81-0.86c0.41,0.35,0.81,0.72,1.21,1.1L471.61,266.63z"/>
</g>
<g id="SvgjsG1240_00000101099194618118689340000006619487128746982547_" transform="matrix(0.9552998825966725,0,0,0.9552998825966725,-27.343545944908506,-13.208931155976364)">
	<path class="st1" d="M213.39,326.3c-1,0-1.81,0.81-1.81,1.81s0.81,1.81,1.81,1.81c1,0,1.81-0.81,1.81-1.81
		S214.39,326.3,213.39,326.3z"/>
	<path class="st1" d="M212.59,321.92c0-1.63-1.33-2.96-2.96-2.96c-1.63,0-2.96,1.33-2.96,2.96s1.33,2.96,2.96,2.96
		S212.59,323.56,212.59,321.92z"/>
	<path class="st1" d="M226.17,321.7c-0.63-0.63-1.29-1.22-1.96-1.79c0,0,0,0,0-0.01c0,0-0.01,0-0.01-0.01
		c-5.34-4.47-12.01-6.91-19.05-6.91c-0.28,0-0.5,0.22-0.5,0.5v29.24c0,0.2,0.12,0.39,0.31,0.46c0.06,0.03,0.13,0.04,0.19,0.04
		c0.13,0,0.26-0.05,0.35-0.15l3.25-3.25c0.26,0.35,0.22,0.93,0.22,0.93c0,0.01,0,0.03,0,0.04c0,0.85,0.69,1.53,1.53,1.53
		s1.53-0.69,1.53-1.53v-3.49v-0.78l4.24-4.24c0.32,0.03,0.56,0.15,0.74,0.35c0.42,0.45,0.45,1.27,0.43,1.55c0,0.01,0,0.03,0,0.04
		c0,1.08,0.87,1.95,1.95,1.95s1.95-0.87,1.95-1.95v-4.83v-2.18l4.83-4.83c0.09-0.09,0.15-0.22,0.15-0.35S226.26,321.79,226.17,321.7
		z M220.84,324.81c-0.28,0-0.5,0.22-0.5,0.5v1.72v2.38v4.83c0,0.52-0.42,0.95-0.95,0.95c-0.52,0-0.94-0.42-0.95-0.93
		c0.01-0.21,0.06-1.47-0.69-2.28c-0.42-0.45-0.98-0.68-1.68-0.68c-0.13,0-0.26,0.05-0.35,0.15l-3.69,3.69v-1.53
		c0-0.28-0.22-0.5-0.5-0.5s-0.5,0.22-0.5,0.5v2.74v0.99v3.49c0,0.29-0.24,0.53-0.53,0.53c-0.29,0-0.52-0.23-0.53-0.51
		c0.04-0.61-0.13-1.71-1.08-2.11c-0.19-0.08-0.41-0.04-0.55,0.11l-2.7,2.7v-5c1.4-0.24,2.46-1.45,2.46-2.92s-1.07-2.68-2.46-2.92
		v-13.14c6.26,0.43,12.23,2.91,16.95,7.03l-1.24,1.24v-0.51C221.34,325.04,221.11,324.81,220.84,324.81z M223.29,323.87
		c-1.73-1.52-3.63-2.83-5.65-3.91l0.8-1.33c0.14-0.24,0.07-0.55-0.17-0.69c-0.24-0.14-0.55-0.07-0.69,0.17l-0.84,1.4
		c-2.7-1.32-5.59-2.23-8.57-2.69l0.41-1.43c0.08-0.27-0.08-0.54-0.34-0.62c-0.27-0.08-0.54,0.08-0.62,0.34l-0.45,1.56
		c-0.51-0.06-1.02-0.11-1.53-0.14V314c2.71,0.05,5.36,0.47,7.89,1.24l-0.59,1.25c-0.12,0.25-0.01,0.55,0.24,0.67
		c0.07,0.03,0.14,0.05,0.21,0.05c0.19,0,0.37-0.11,0.45-0.29l0.65-1.37c3.11,1.07,6.03,2.67,8.63,4.77l-0.77,0.82
		c-0.19,0.2-0.18,0.52,0.02,0.71c0.1,0.09,0.22,0.14,0.34,0.14c0.13,0,0.27-0.05,0.36-0.16l0.81-0.86c0.41,0.35,0.81,0.72,1.21,1.1
		L223.29,323.87z"/>
</g>
<g id="SvgjsG1240_00000032631968621843865120000007577414658236166828_" transform="matrix(0.9552998825966725,0,0,0.9552998825966725,-27.343545944908506,-13.208931155976364)">
	<path class="st1" d="M294.54,240.54c-1,0-1.81,0.81-1.81,1.81c0,1,0.81,1.81,1.81,1.81c1,0,1.81-0.81,1.81-1.81
		C296.35,241.35,295.54,240.54,294.54,240.54z"/>
	<path class="st1" d="M293.74,236.16c0-1.63-1.33-2.96-2.96-2.96c-1.63,0-2.96,1.33-2.96,2.96c0,1.63,1.33,2.96,2.96,2.96
		S293.74,237.79,293.74,236.16z"/>
	<path class="st1" d="M307.32,235.93c-0.63-0.63-1.29-1.22-1.96-1.79c0,0,0,0,0-0.01c0,0-0.01,0-0.01-0.01
		c-5.34-4.47-12.01-6.91-19.05-6.91c-0.28,0-0.5,0.22-0.5,0.5v29.24c0,0.2,0.12,0.39,0.31,0.46c0.06,0.03,0.13,0.04,0.19,0.04
		c0.13,0,0.26-0.05,0.35-0.15l3.25-3.25c0.26,0.35,0.22,0.93,0.22,0.93c0,0.01,0,0.03,0,0.04c0,0.85,0.69,1.53,1.53,1.53
		s1.53-0.69,1.53-1.53v-3.49v-0.78l4.24-4.24c0.32,0.03,0.56,0.15,0.74,0.35c0.42,0.45,0.45,1.27,0.43,1.55c0,0.01,0,0.03,0,0.04
		c0,1.08,0.87,1.95,1.95,1.95c1.07,0,1.95-0.87,1.95-1.95v-4.83v-2.18l4.83-4.83c0.09-0.09,0.15-0.22,0.15-0.35
		C307.46,236.15,307.41,236.03,307.32,235.93z M301.99,239.04c-0.28,0-0.5,0.22-0.5,0.5v1.72v2.38v4.83c0,0.52-0.42,0.95-0.95,0.95
		c-0.52,0-0.94-0.42-0.95-0.93c0.01-0.21,0.06-1.47-0.69-2.28c-0.42-0.45-0.98-0.68-1.68-0.68c-0.13,0-0.26,0.05-0.35,0.15
		l-3.69,3.69v-1.53c0-0.28-0.22-0.5-0.5-0.5c-0.28,0-0.5,0.22-0.5,0.5v2.74v0.99v3.49c0,0.29-0.24,0.53-0.53,0.53
		c-0.29,0-0.52-0.23-0.53-0.51c0.04-0.61-0.13-1.71-1.08-2.11c-0.19-0.08-0.41-0.04-0.55,0.11l-2.7,2.7v-5
		c1.4-0.24,2.46-1.45,2.46-2.92s-1.07-2.68-2.46-2.92v-13.14c6.26,0.43,12.23,2.91,16.95,7.03l-1.24,1.24v-0.51
		C302.49,239.27,302.26,239.04,301.99,239.04z M304.44,238.1c-1.73-1.52-3.63-2.83-5.65-3.91l0.8-1.33
		c0.14-0.24,0.07-0.55-0.17-0.69c-0.24-0.14-0.55-0.07-0.69,0.17l-0.84,1.4c-2.7-1.32-5.59-2.23-8.57-2.69l0.41-1.43
		c0.08-0.27-0.08-0.54-0.34-0.62c-0.27-0.08-0.54,0.08-0.62,0.34l-0.45,1.56c-0.51-0.06-1.02-0.11-1.53-0.14v-2.54
		c2.71,0.05,5.36,0.47,7.89,1.24l-0.59,1.25c-0.12,0.25-0.01,0.55,0.24,0.67c0.07,0.03,0.14,0.05,0.21,0.05
		c0.19,0,0.37-0.11,0.45-0.29l0.65-1.37c3.11,1.07,6.03,2.67,8.63,4.77l-0.77,0.82c-0.19,0.2-0.18,0.52,0.02,0.71
		c0.1,0.09,0.22,0.14,0.34,0.14c0.13,0,0.27-0.05,0.36-0.16l0.81-0.86c0.41,0.35,0.81,0.72,1.21,1.1L304.44,238.1z"/>
</g>
<g id="SvgjsG1240_00000029754329702044301860000005942298198892456639_" transform="matrix(0.9552998825966725,0,0,0.9552998825966725,-27.343545944908506,-13.208931155976364)">
	<path class="st1" d="M394.62,194.22c-1,0-1.81,0.81-1.81,1.81c0,1,0.81,1.81,1.81,1.81c1,0,1.81-0.81,1.81-1.81
		C396.43,195.03,395.62,194.22,394.62,194.22z"/>
	<path class="st1" d="M393.82,189.84c0-1.63-1.33-2.96-2.96-2.96c-1.63,0-2.96,1.33-2.96,2.96c0,1.63,1.33,2.96,2.96,2.96
		C392.49,192.81,393.82,191.48,393.82,189.84z"/>
	<path class="st1" d="M407.4,189.62c-0.63-0.63-1.29-1.22-1.96-1.79c0,0,0,0,0-0.01c0,0-0.01,0-0.01-0.01
		c-5.34-4.47-12.01-6.91-19.05-6.91c-0.28,0-0.5,0.22-0.5,0.5v29.24c0,0.2,0.12,0.39,0.31,0.46c0.06,0.03,0.13,0.04,0.19,0.04
		c0.13,0,0.26-0.05,0.35-0.15l3.25-3.25c0.26,0.35,0.22,0.93,0.22,0.93c0,0.01,0,0.03,0,0.04c0,0.85,0.69,1.53,1.53,1.53
		s1.53-0.69,1.53-1.53v-3.49v-0.78l4.24-4.24c0.32,0.03,0.56,0.15,0.74,0.35c0.42,0.45,0.45,1.27,0.43,1.55c0,0.01,0,0.03,0,0.04
		c0,1.08,0.87,1.95,1.95,1.95s1.95-0.87,1.95-1.95v-4.83v-2.18l4.83-4.83c0.09-0.09,0.15-0.22,0.15-0.35S407.49,189.71,407.4,189.62
		z M402.07,192.73c-0.28,0-0.5,0.22-0.5,0.5v1.72v2.38v4.83c0,0.52-0.42,0.95-0.95,0.95c-0.52,0-0.94-0.42-0.95-0.93
		c0.01-0.21,0.06-1.47-0.69-2.28c-0.42-0.45-0.98-0.68-1.68-0.68c-0.13,0-0.26,0.05-0.35,0.15l-3.69,3.69v-1.53
		c0-0.28-0.22-0.5-0.5-0.5c-0.28,0-0.5,0.22-0.5,0.5v2.74v0.99v3.49c0,0.29-0.24,0.53-0.53,0.53c-0.29,0-0.52-0.23-0.53-0.51
		c0.04-0.61-0.13-1.71-1.08-2.11c-0.19-0.08-0.41-0.04-0.55,0.11l-2.7,2.7v-5c1.4-0.24,2.46-1.45,2.46-2.92s-1.07-2.68-2.46-2.92
		v-13.14c6.26,0.43,12.23,2.91,16.95,7.03l-1.24,1.24v-0.51C402.57,192.95,402.35,192.73,402.07,192.73z M404.52,191.78
		c-1.73-1.52-3.63-2.83-5.65-3.91l0.8-1.33c0.14-0.24,0.07-0.55-0.17-0.69c-0.24-0.14-0.55-0.07-0.69,0.17l-0.84,1.4
		c-2.7-1.32-5.59-2.23-8.57-2.69l0.41-1.43c0.08-0.27-0.08-0.54-0.34-0.62c-0.27-0.08-0.54,0.08-0.62,0.34l-0.45,1.56
		c-0.51-0.06-1.02-0.11-1.53-0.14v-2.54c2.71,0.05,5.36,0.47,7.89,1.24l-0.59,1.25c-0.12,0.25-0.01,0.55,0.24,0.67
		c0.07,0.03,0.14,0.05,0.21,0.05c0.19,0,0.37-0.11,0.45-0.29l0.65-1.37c3.11,1.07,6.03,2.67,8.63,4.77l-0.77,0.82
		c-0.19,0.2-0.18,0.52,0.02,0.71c0.1,0.09,0.22,0.14,0.34,0.14c0.13,0,0.27-0.05,0.36-0.16l0.81-0.86c0.41,0.35,0.81,0.72,1.21,1.1
		L404.52,191.78z"/>
</g>
<g id="SvgjsG1240_00000152956231789930563050000005610281208347846307_" transform="matrix(0.9552998825966725,0,0,0.9552998825966725,-27.343545944908506,-13.208931155976364)">
	<path class="st1" d="M493.81,150.57c-1,0-1.81,0.81-1.81,1.81s0.81,1.81,1.81,1.81s1.81-0.81,1.81-1.81
		S494.81,150.57,493.81,150.57z"/>
	<path class="st1" d="M493.01,146.19c0-1.63-1.33-2.96-2.96-2.96c-1.63,0-2.96,1.33-2.96,2.96s1.33,2.96,2.96,2.96
		S493.01,147.82,493.01,146.19z"/>
	<path class="st1" d="M506.59,145.96c-0.63-0.63-1.29-1.22-1.96-1.79c0,0,0,0,0-0.01c0,0-0.01,0-0.01-0.01
		c-5.34-4.47-12.01-6.91-19.05-6.91c-0.28,0-0.5,0.22-0.5,0.5v29.24c0,0.2,0.12,0.39,0.31,0.46c0.06,0.03,0.13,0.04,0.19,0.04
		c0.13,0,0.26-0.05,0.35-0.15l3.25-3.25c0.26,0.35,0.22,0.93,0.22,0.93c0,0.01,0,0.03,0,0.04c0,0.85,0.69,1.53,1.53,1.53
		s1.53-0.69,1.53-1.53v-3.49v-0.78l4.24-4.24c0.32,0.03,0.56,0.15,0.74,0.35c0.42,0.45,0.45,1.27,0.43,1.55c0,0.01,0,0.03,0,0.04
		c0,1.08,0.87,1.95,1.95,1.95s1.95-0.87,1.95-1.95v-4.83v-2.18l4.83-4.83c0.09-0.09,0.15-0.22,0.15-0.35
		C506.73,146.18,506.68,146.06,506.59,145.96z M501.26,149.07c-0.28,0-0.5,0.22-0.5,0.5v1.72v2.38v4.83c0,0.52-0.42,0.95-0.95,0.95
		c-0.52,0-0.94-0.42-0.95-0.93c0.01-0.21,0.06-1.47-0.69-2.28c-0.42-0.45-0.98-0.68-1.68-0.68c-0.13,0-0.26,0.05-0.35,0.15
		l-3.69,3.69v-1.53c0-0.28-0.22-0.5-0.5-0.5c-0.28,0-0.5,0.22-0.5,0.5v2.74v0.99v3.49c0,0.29-0.24,0.53-0.53,0.53
		c-0.29,0-0.52-0.23-0.53-0.51c0.04-0.61-0.13-1.71-1.08-2.11c-0.19-0.08-0.41-0.04-0.55,0.11l-2.7,2.7v-5
		c1.4-0.24,2.46-1.45,2.46-2.92s-1.07-2.68-2.46-2.92V141.8c6.26,0.43,12.23,2.91,16.95,7.03l-1.24,1.24v-0.51
		C501.76,149.3,501.53,149.07,501.26,149.07z M503.71,148.13c-1.73-1.52-3.63-2.83-5.65-3.91l0.8-1.33
		c0.14-0.24,0.07-0.55-0.17-0.69c-0.24-0.14-0.55-0.07-0.69,0.17l-0.84,1.4c-2.7-1.32-5.59-2.23-8.57-2.69l0.41-1.43
		c0.08-0.27-0.08-0.54-0.34-0.62c-0.27-0.08-0.54,0.08-0.62,0.34l-0.45,1.56c-0.51-0.06-1.02-0.11-1.53-0.14v-2.54
		c2.71,0.05,5.36,0.47,7.89,1.24l-0.59,1.25c-0.12,0.25-0.01,0.55,0.24,0.67c0.07,0.03,0.14,0.05,0.21,0.05
		c0.19,0,0.37-0.11,0.45-0.29l0.65-1.37c3.11,1.07,6.03,2.67,8.63,4.77l-0.77,0.82c-0.19,0.2-0.18,0.52,0.02,0.71
		c0.1,0.09,0.22,0.14,0.34,0.14c0.13,0,0.27-0.05,0.36-0.16l0.81-0.86c0.41,0.35,0.81,0.72,1.21,1.1L503.71,148.13z"/>
</g>
<g id="SvgjsG1240_00000025402286946229903730000008380709966704953010_" transform="matrix(0.9552998825966725,0,0,0.9552998825966725,-27.343545944908506,-13.208931155976364)">
	<path class="st1" d="M394.62,72.14c-1,0-1.81,0.81-1.81,1.81s0.81,1.81,1.81,1.81c1,0,1.81-0.81,1.81-1.81
		C396.43,72.95,395.62,72.14,394.62,72.14z"/>
	<path class="st1" d="M393.82,67.76c0-1.63-1.33-2.96-2.96-2.96c-1.63,0-2.96,1.33-2.96,2.96c0,1.63,1.33,2.96,2.96,2.96
		C392.49,70.73,393.82,69.4,393.82,67.76z"/>
	<path class="st1" d="M407.4,67.54c-0.63-0.63-1.29-1.22-1.96-1.79c0,0,0,0,0-0.01c0,0-0.01,0-0.01-0.01
		c-5.34-4.47-12.01-6.91-19.05-6.91c-0.28,0-0.5,0.22-0.5,0.5v29.24c0,0.2,0.12,0.39,0.31,0.46c0.06,0.03,0.13,0.04,0.19,0.04
		c0.13,0,0.26-0.05,0.35-0.15l3.25-3.25c0.26,0.35,0.22,0.93,0.22,0.93c0,0.01,0,0.03,0,0.04c0,0.85,0.69,1.53,1.53,1.53
		s1.53-0.69,1.53-1.53v-3.49v-0.78l4.24-4.24c0.32,0.03,0.56,0.15,0.74,0.35c0.42,0.45,0.45,1.27,0.43,1.55c0,0.01,0,0.03,0,0.04
		c0,1.08,0.87,1.95,1.95,1.95s1.95-0.87,1.95-1.95v-4.83v-2.18l4.83-4.83c0.09-0.09,0.15-0.22,0.15-0.35
		C407.55,67.76,407.49,67.63,407.4,67.54z M402.07,70.65c-0.28,0-0.5,0.22-0.5,0.5v1.72v2.38v4.83c0,0.52-0.42,0.95-0.95,0.95
		c-0.52,0-0.94-0.42-0.95-0.93c0.01-0.21,0.06-1.47-0.69-2.28c-0.42-0.45-0.98-0.68-1.68-0.68c-0.13,0-0.26,0.05-0.35,0.15
		l-3.69,3.69v-1.53c0-0.28-0.22-0.5-0.5-0.5c-0.28,0-0.5,0.22-0.5,0.5v2.74v0.99v3.49c0,0.29-0.24,0.53-0.53,0.53
		c-0.29,0-0.52-0.23-0.53-0.51c0.04-0.61-0.13-1.71-1.08-2.11c-0.19-0.08-0.41-0.04-0.55,0.11l-2.7,2.7v-5
		c1.4-0.24,2.46-1.45,2.46-2.92c0-1.46-1.07-2.68-2.46-2.92V63.38c6.26,0.43,12.23,2.91,16.95,7.03l-1.24,1.24v-0.51
		C402.57,70.88,402.35,70.65,402.07,70.65z M404.52,69.7c-1.73-1.52-3.63-2.83-5.65-3.91l0.8-1.33c0.14-0.24,0.07-0.55-0.17-0.69
		c-0.24-0.14-0.55-0.07-0.69,0.17l-0.84,1.4c-2.7-1.32-5.59-2.23-8.57-2.69l0.41-1.43c0.08-0.27-0.08-0.54-0.34-0.62
		c-0.27-0.08-0.54,0.08-0.62,0.34l-0.45,1.56c-0.51-0.06-1.02-0.11-1.53-0.14v-2.54c2.71,0.05,5.36,0.47,7.89,1.24l-0.59,1.25
		c-0.12,0.25-0.01,0.55,0.24,0.67c0.07,0.03,0.14,0.05,0.21,0.05c0.19,0,0.37-0.11,0.45-0.29l0.65-1.37
		c3.11,1.07,6.03,2.67,8.63,4.77l-0.77,0.82c-0.19,0.2-0.18,0.52,0.02,0.71c0.1,0.09,0.22,0.14,0.34,0.14
		c0.13,0,0.27-0.05,0.36-0.16l0.81-0.86c0.41,0.35,0.81,0.72,1.21,1.1L404.52,69.7z"/>
</g>
<g id="SvgjsG1240_00000054223342086986487620000011715707587693724307_" transform="matrix(0.9552998825966725,0,0,0.9552998825966725,-27.343545944908506,-13.208931155976364)">
	<path class="st1" d="M314.19,120.67c-1,0-1.81,0.81-1.81,1.81c0,1,0.81,1.81,1.81,1.81c1,0,1.81-0.81,1.81-1.81
		C316,121.48,315.19,120.67,314.19,120.67z"/>
	<path class="st1" d="M313.39,116.29c0-1.63-1.33-2.96-2.96-2.96c-1.63,0-2.96,1.33-2.96,2.96s1.33,2.96,2.96,2.96
		S313.39,117.92,313.39,116.29z"/>
	<path class="st1" d="M326.97,116.06c-0.63-0.63-1.29-1.22-1.96-1.79c0,0,0,0,0-0.01c0,0-0.01,0-0.01-0.01
		c-5.34-4.47-12.01-6.91-19.05-6.91c-0.28,0-0.5,0.22-0.5,0.5v29.24c0,0.2,0.12,0.39,0.31,0.46c0.06,0.03,0.13,0.04,0.19,0.04
		c0.13,0,0.26-0.05,0.35-0.15l3.25-3.25c0.26,0.35,0.22,0.93,0.22,0.93c0,0.01,0,0.03,0,0.04c0,0.85,0.69,1.53,1.53,1.53
		s1.53-0.69,1.53-1.53v-3.49v-0.78l4.24-4.24c0.32,0.03,0.56,0.15,0.74,0.35c0.42,0.45,0.45,1.27,0.43,1.55c0,0.01,0,0.03,0,0.04
		c0,1.08,0.87,1.95,1.95,1.95c1.07,0,1.95-0.87,1.95-1.95v-4.83v-2.18l4.83-4.83c0.09-0.09,0.15-0.22,0.15-0.35
		C327.12,116.28,327.07,116.16,326.97,116.06z M321.64,119.17c-0.28,0-0.5,0.22-0.5,0.5v1.72v2.38v4.83c0,0.52-0.42,0.95-0.95,0.95
		c-0.52,0-0.94-0.42-0.95-0.93c0.01-0.21,0.06-1.47-0.69-2.28c-0.42-0.45-0.98-0.68-1.68-0.68c-0.13,0-0.26,0.05-0.35,0.15
		l-3.69,3.69v-1.53c0-0.28-0.22-0.5-0.5-0.5c-0.28,0-0.5,0.22-0.5,0.5v2.74v0.99v3.49c0,0.29-0.24,0.53-0.53,0.53
		c-0.29,0-0.52-0.23-0.53-0.51c0.04-0.61-0.13-1.71-1.08-2.11c-0.19-0.08-0.41-0.04-0.55,0.11l-2.7,2.7v-5
		c1.4-0.24,2.46-1.45,2.46-2.92s-1.07-2.68-2.46-2.92V111.9c6.26,0.43,12.23,2.91,16.95,7.03l-1.24,1.24v-0.51
		C322.14,119.4,321.92,119.17,321.64,119.17z M324.1,118.23c-1.73-1.52-3.63-2.83-5.65-3.91l0.8-1.33c0.14-0.24,0.07-0.55-0.17-0.69
		c-0.24-0.14-0.55-0.07-0.69,0.17l-0.84,1.4c-2.7-1.32-5.59-2.23-8.57-2.69l0.41-1.43c0.08-0.27-0.08-0.54-0.34-0.62
		c-0.27-0.08-0.54,0.08-0.62,0.34l-0.45,1.56c-0.51-0.06-1.02-0.11-1.53-0.14v-2.54c2.71,0.05,5.36,0.47,7.89,1.24l-0.59,1.25
		c-0.12,0.25-0.01,0.55,0.24,0.67c0.07,0.03,0.14,0.05,0.21,0.05c0.19,0,0.37-0.11,0.45-0.29l0.65-1.37
		c3.11,1.07,6.03,2.67,8.63,4.77l-0.77,0.82c-0.19,0.2-0.18,0.52,0.02,0.71c0.1,0.09,0.22,0.14,0.34,0.14
		c0.13,0,0.27-0.05,0.36-0.16l0.81-0.86c0.41,0.35,0.81,0.72,1.21,1.1L324.1,118.23z"/>
</g>
<g id="SvgjsG1240_00000170254232545632281400000012239192766196698504_" transform="matrix(0.9552998825966725,0,0,0.9552998825966725,-27.343545944908506,-13.208931155976364)">
	<path class="st1" d="M243.88,70.72c-1,0-1.81,0.81-1.81,1.81c0,1,0.81,1.81,1.81,1.81c1,0,1.81-0.81,1.81-1.81
		C245.69,71.53,244.88,70.72,243.88,70.72z"/>
	<path class="st1" d="M243.08,66.34c0-1.63-1.33-2.96-2.96-2.96c-1.63,0-2.96,1.33-2.96,2.96s1.33,2.96,2.96,2.96
		C241.75,69.31,243.08,67.98,243.08,66.34z"/>
	<path class="st1" d="M256.66,66.12c-0.63-0.63-1.29-1.22-1.96-1.79c0,0,0,0,0-0.01c0,0-0.01,0-0.01-0.01
		c-5.34-4.47-12.01-6.91-19.05-6.91c-0.28,0-0.5,0.22-0.5,0.5v29.24c0,0.2,0.12,0.39,0.31,0.46c0.06,0.03,0.13,0.04,0.19,0.04
		c0.13,0,0.26-0.05,0.35-0.15l3.25-3.25c0.26,0.35,0.22,0.93,0.22,0.93c0,0.01,0,0.03,0,0.04c0,0.85,0.69,1.53,1.53,1.53
		s1.53-0.69,1.53-1.53v-3.49v-0.78l4.24-4.24c0.32,0.03,0.56,0.15,0.74,0.35c0.42,0.45,0.45,1.27,0.43,1.55c0,0.01,0,0.03,0,0.04
		c0,1.08,0.87,1.95,1.95,1.95s1.95-0.87,1.95-1.95v-4.83v-2.18l4.83-4.83c0.09-0.09,0.15-0.22,0.15-0.35
		C256.81,66.34,256.76,66.21,256.66,66.12z M251.33,69.23c-0.28,0-0.5,0.22-0.5,0.5v1.72v2.38v4.83c0,0.52-0.42,0.95-0.95,0.95
		c-0.52,0-0.94-0.42-0.95-0.93c0.01-0.21,0.06-1.47-0.69-2.28c-0.42-0.45-0.98-0.68-1.68-0.68c-0.13,0-0.26,0.05-0.35,0.15
		l-3.69,3.69v-1.53c0-0.28-0.22-0.5-0.5-0.5s-0.5,0.22-0.5,0.5v2.74v0.99v3.49c0,0.29-0.24,0.53-0.53,0.53
		c-0.29,0-0.52-0.23-0.53-0.51c0.04-0.61-0.13-1.71-1.08-2.11c-0.19-0.08-0.41-0.04-0.55,0.11l-2.7,2.7v-5
		c1.4-0.24,2.46-1.45,2.46-2.92c0-1.46-1.07-2.68-2.46-2.92V61.96c6.26,0.43,12.23,2.91,16.95,7.03l-1.24,1.24v-0.51
		C251.83,69.46,251.61,69.23,251.33,69.23z M253.79,68.28c-1.73-1.52-3.63-2.83-5.65-3.91l0.8-1.33c0.14-0.24,0.07-0.55-0.17-0.69
		c-0.24-0.14-0.55-0.07-0.69,0.17l-0.84,1.4c-2.7-1.32-5.59-2.23-8.57-2.69l0.41-1.43c0.08-0.27-0.08-0.54-0.34-0.62
		c-0.27-0.08-0.54,0.08-0.62,0.34l-0.45,1.56c-0.51-0.06-1.02-0.11-1.53-0.14v-2.54c2.71,0.05,5.36,0.47,7.89,1.24l-0.59,1.25
		c-0.12,0.25-0.01,0.55,0.24,0.67c0.07,0.03,0.14,0.05,0.21,0.05c0.19,0,0.37-0.11,0.45-0.29l0.65-1.37
		c3.11,1.07,6.03,2.67,8.63,4.77l-0.77,0.82c-0.19,0.2-0.18,0.52,0.02,0.71c0.1,0.09,0.22,0.14,0.34,0.14
		c0.13,0,0.27-0.05,0.36-0.16l0.81-0.86c0.41,0.35,0.81,0.72,1.21,1.1L253.79,68.28z"/>
</g>
<g id="SvgjsG1240_00000008144920131461548920000003150361846554962855_" transform="matrix(0.9552998825966725,0,0,0.9552998825966725,-27.343545944908506,-13.208931155976364)">
	<path class="st1" d="M485,707.07c-1,0-1.81,0.81-1.81,1.81c0,1,0.81,1.81,1.81,1.81c1,0,1.81-0.81,1.81-1.81
		C486.8,707.88,485.99,707.07,485,707.07z"/>
	<path class="st1" d="M484.19,702.69c0-1.63-1.33-2.96-2.96-2.96c-1.63,0-2.96,1.33-2.96,2.96c0,1.63,1.33,2.96,2.96,2.96
		S484.19,704.33,484.19,702.69z"/>
	<path class="st1" d="M497.77,702.47c-0.63-0.63-1.29-1.22-1.96-1.79c0,0,0,0,0-0.01c0,0-0.01,0-0.01-0.01
		c-5.34-4.47-12.01-6.91-19.05-6.91c-0.28,0-0.5,0.22-0.5,0.5v29.24c0,0.2,0.12,0.39,0.31,0.46c0.06,0.03,0.13,0.04,0.19,0.04
		c0.13,0,0.26-0.05,0.35-0.15l3.25-3.25c0.26,0.35,0.22,0.93,0.22,0.93c0,0.01,0,0.03,0,0.04c0,0.85,0.69,1.53,1.53,1.53
		s1.53-0.69,1.53-1.53v-3.49v-0.78l4.24-4.24c0.32,0.03,0.56,0.15,0.74,0.35c0.42,0.45,0.45,1.27,0.43,1.55c0,0.01,0,0.03,0,0.04
		c0,1.08,0.87,1.95,1.95,1.95s1.95-0.87,1.95-1.95v-4.83v-2.18l4.83-4.83c0.09-0.09,0.15-0.22,0.15-0.35
		S497.87,702.56,497.77,702.47z M492.44,705.58c-0.28,0-0.5,0.22-0.5,0.5v1.72v2.38v4.83c0,0.52-0.42,0.95-0.95,0.95
		c-0.52,0-0.94-0.42-0.95-0.93c0.01-0.21,0.06-1.47-0.69-2.28c-0.42-0.45-0.98-0.68-1.68-0.68c-0.13,0-0.26,0.05-0.35,0.15
		l-3.69,3.69v-1.53c0-0.28-0.22-0.5-0.5-0.5c-0.28,0-0.5,0.22-0.5,0.5v2.74v0.99v3.49c0,0.29-0.24,0.53-0.53,0.53
		c-0.29,0-0.52-0.23-0.53-0.51c0.04-0.61-0.13-1.71-1.08-2.11c-0.19-0.08-0.41-0.04-0.55,0.11l-2.7,2.7v-5
		c1.4-0.24,2.46-1.45,2.46-2.92s-1.07-2.68-2.46-2.92v-13.14c6.26,0.43,12.23,2.91,16.95,7.03l-1.24,1.24v-0.51
		C492.94,705.8,492.72,705.58,492.44,705.58z M494.9,704.63c-1.73-1.52-3.63-2.83-5.65-3.91l0.8-1.33c0.14-0.24,0.07-0.55-0.17-0.69
		c-0.24-0.14-0.55-0.07-0.69,0.17l-0.84,1.4c-2.7-1.32-5.59-2.23-8.57-2.69l0.41-1.43c0.08-0.27-0.08-0.54-0.34-0.62
		c-0.27-0.08-0.54,0.08-0.62,0.34l-0.45,1.56c-0.51-0.06-1.02-0.11-1.53-0.14v-2.54c2.71,0.05,5.36,0.47,7.89,1.24l-0.59,1.25
		c-0.12,0.25-0.01,0.55,0.24,0.67c0.07,0.03,0.14,0.05,0.21,0.05c0.19,0,0.37-0.11,0.45-0.29l0.65-1.37
		c3.11,1.07,6.03,2.67,8.63,4.77l-0.77,0.82c-0.19,0.2-0.18,0.52,0.02,0.71c0.1,0.09,0.22,0.14,0.34,0.14
		c0.13,0,0.27-0.05,0.36-0.16l0.81-0.86c0.41,0.35,0.81,0.72,1.21,1.1L494.9,704.63z"/>
</g>
<g id="SvgjsG1240_00000021834269749947231050000016472499082214414481_" transform="matrix(0.9552998825966725,0,0,0.9552998825966725,-27.343545944908506,-13.208931155976364)">
	<path class="st1" d="M391.63,637.54c-1,0-1.81,0.81-1.81,1.81s0.81,1.81,1.81,1.81c1,0,1.81-0.81,1.81-1.81
		S392.63,637.54,391.63,637.54z"/>
	<path class="st1" d="M390.82,633.16c0-1.63-1.33-2.96-2.96-2.96c-1.63,0-2.96,1.33-2.96,2.96c0,1.63,1.33,2.96,2.96,2.96
		S390.82,634.8,390.82,633.16z"/>
	<path class="st1" d="M404.41,632.94c-0.63-0.63-1.29-1.22-1.96-1.79c0,0,0,0,0-0.01c0,0-0.01,0-0.01-0.01
		c-5.34-4.47-12.01-6.91-19.05-6.91c-0.28,0-0.5,0.22-0.5,0.5v29.24c0,0.2,0.12,0.39,0.31,0.46c0.06,0.03,0.13,0.04,0.19,0.04
		c0.13,0,0.26-0.05,0.35-0.15l3.25-3.25c0.26,0.35,0.22,0.93,0.22,0.93c0,0.01,0,0.03,0,0.04c0,0.85,0.69,1.53,1.53,1.53
		s1.53-0.69,1.53-1.53v-3.49v-0.78l4.24-4.24c0.32,0.03,0.56,0.15,0.74,0.35c0.42,0.45,0.45,1.27,0.43,1.55c0,0.01,0,0.03,0,0.04
		c0,1.08,0.87,1.95,1.95,1.95s1.95-0.87,1.95-1.95v-4.83v-2.18l4.83-4.83c0.09-0.09,0.15-0.22,0.15-0.35
		C404.55,633.16,404.5,633.03,404.41,632.94z M399.07,636.05c-0.28,0-0.5,0.22-0.5,0.5v1.72v2.39v4.83c0,0.52-0.42,0.95-0.95,0.95
		c-0.52,0-0.94-0.42-0.95-0.93c0.01-0.21,0.06-1.47-0.69-2.28c-0.42-0.45-0.98-0.68-1.68-0.68c-0.13,0-0.26,0.05-0.35,0.15
		l-3.69,3.69v-1.53c0-0.28-0.22-0.5-0.5-0.5c-0.28,0-0.5,0.22-0.5,0.5v2.74v0.99v3.49c0,0.29-0.24,0.53-0.53,0.53
		c-0.29,0-0.52-0.23-0.53-0.51c0.04-0.61-0.13-1.71-1.08-2.11c-0.19-0.08-0.41-0.04-0.55,0.11l-2.7,2.7v-5
		c1.4-0.24,2.46-1.45,2.46-2.92s-1.07-2.68-2.46-2.92v-13.14c6.26,0.43,12.23,2.91,16.95,7.03l-1.24,1.24v-0.51
		C399.58,636.28,399.35,636.05,399.07,636.05z M401.53,635.1c-1.73-1.52-3.63-2.83-5.65-3.91l0.8-1.33
		c0.14-0.24,0.07-0.55-0.17-0.69c-0.24-0.14-0.55-0.07-0.69,0.17l-0.84,1.4c-2.7-1.32-5.59-2.23-8.57-2.69l0.41-1.43
		c0.08-0.27-0.08-0.54-0.34-0.62c-0.27-0.08-0.54,0.08-0.62,0.34l-0.45,1.56c-0.51-0.06-1.02-0.11-1.53-0.14v-2.54
		c2.71,0.05,5.36,0.47,7.89,1.24l-0.59,1.25c-0.12,0.25-0.01,0.55,0.24,0.67c0.07,0.03,0.14,0.05,0.21,0.05
		c0.19,0,0.37-0.11,0.45-0.29l0.65-1.37c3.11,1.07,6.03,2.67,8.63,4.77l-0.77,0.82c-0.19,0.2-0.18,0.52,0.02,0.71
		c0.1,0.09,0.22,0.14,0.34,0.14c0.13,0,0.27-0.05,0.36-0.16l0.81-0.86c0.41,0.35,0.81,0.72,1.21,1.1L401.53,635.1z"/>
</g>
<g id="SvgjsG1240_00000060708770285825979720000001368834354427855496_" transform="matrix(0.9552998825966725,0,0,0.9552998825966725,-27.343545944908506,-13.208931155976364)">
	<path class="st1" d="M254.72,646.69c-1,0-1.81,0.81-1.81,1.81s0.81,1.81,1.81,1.81c1,0,1.81-0.81,1.81-1.81
		S255.72,646.69,254.72,646.69z"/>
	<path class="st1" d="M253.92,642.31c0-1.63-1.33-2.96-2.96-2.96c-1.63,0-2.96,1.33-2.96,2.96c0,1.63,1.33,2.96,2.96,2.96
		C252.59,645.28,253.92,643.95,253.92,642.31z"/>
	<path class="st1" d="M267.5,642.09c-0.63-0.63-1.29-1.22-1.96-1.79c0,0,0,0,0-0.01c0,0-0.01,0-0.01-0.01
		c-5.34-4.47-12.01-6.91-19.05-6.91c-0.28,0-0.5,0.22-0.5,0.5v29.24c0,0.2,0.12,0.39,0.31,0.46c0.06,0.03,0.13,0.04,0.19,0.04
		c0.13,0,0.26-0.05,0.35-0.15l3.25-3.25c0.26,0.35,0.22,0.93,0.22,0.93c0,0.01,0,0.03,0,0.04c0,0.85,0.69,1.53,1.53,1.53
		s1.53-0.69,1.53-1.53v-3.49v-0.78l4.24-4.24c0.32,0.03,0.56,0.15,0.74,0.35c0.42,0.45,0.45,1.27,0.43,1.55c0,0.01,0,0.03,0,0.04
		c0,1.08,0.87,1.95,1.95,1.95s1.95-0.87,1.95-1.95v-4.83v-2.18l4.83-4.83c0.09-0.09,0.15-0.22,0.15-0.35S267.6,642.18,267.5,642.09z
		 M262.17,645.2c-0.28,0-0.5,0.22-0.5,0.5v1.72v2.39v4.83c0,0.52-0.42,0.95-0.95,0.95c-0.52,0-0.94-0.42-0.95-0.93
		c0.01-0.21,0.06-1.47-0.69-2.28c-0.42-0.45-0.98-0.68-1.68-0.68c-0.13,0-0.26,0.05-0.35,0.15l-3.69,3.69v-1.53
		c0-0.28-0.22-0.5-0.5-0.5c-0.28,0-0.5,0.22-0.5,0.5v2.74v0.99v3.49c0,0.29-0.24,0.53-0.53,0.53c-0.29,0-0.52-0.23-0.53-0.51
		c0.04-0.61-0.13-1.71-1.08-2.11c-0.19-0.08-0.41-0.04-0.55,0.11l-2.7,2.7v-5c1.4-0.24,2.46-1.45,2.46-2.92s-1.07-2.68-2.46-2.92
		v-13.14c6.26,0.43,12.23,2.91,16.95,7.03l-1.24,1.24v-0.51C262.67,645.42,262.45,645.2,262.17,645.2z M264.63,644.25
		c-1.73-1.52-3.63-2.83-5.65-3.91l0.8-1.33c0.14-0.24,0.07-0.55-0.17-0.69c-0.24-0.14-0.55-0.07-0.69,0.17l-0.84,1.4
		c-2.7-1.32-5.59-2.23-8.57-2.69l0.41-1.43c0.08-0.27-0.08-0.54-0.34-0.62c-0.27-0.08-0.54,0.08-0.62,0.34l-0.45,1.56
		c-0.51-0.06-1.02-0.11-1.53-0.14v-2.54c2.71,0.05,5.36,0.47,7.89,1.24l-0.59,1.25c-0.12,0.25-0.01,0.55,0.24,0.67
		c0.07,0.03,0.14,0.05,0.21,0.05c0.19,0,0.37-0.11,0.45-0.29l0.65-1.37c3.11,1.07,6.03,2.67,8.63,4.77l-0.77,0.82
		c-0.19,0.2-0.18,0.52,0.02,0.71c0.1,0.09,0.22,0.14,0.34,0.14c0.13,0,0.27-0.05,0.36-0.16l0.81-0.86c0.41,0.35,0.81,0.72,1.21,1.1
		L264.63,644.25z"/>
</g>
<g id="SvgjsG1240_00000163030900517984178370000007643831486421693077_" transform="matrix(0.9552998825966725,0,0,0.9552998825966725,-27.343545944908506,-13.208931155976364)">
	<path class="st1" d="M487.03,586.97c-1,0-1.81,0.81-1.81,1.81s0.81,1.81,1.81,1.81s1.81-0.81,1.81-1.81
		S488.03,586.97,487.03,586.97z"/>
	<path class="st1" d="M486.23,582.59c0-1.63-1.33-2.96-2.96-2.96c-1.63,0-2.96,1.33-2.96,2.96c0,1.63,1.33,2.96,2.96,2.96
		S486.23,584.22,486.23,582.59z"/>
	<path class="st1" d="M499.81,582.36c-0.63-0.63-1.29-1.22-1.96-1.79c0,0,0,0,0-0.01c0,0-0.01,0-0.01-0.01
		c-5.34-4.47-12.01-6.91-19.05-6.91c-0.28,0-0.5,0.22-0.5,0.5v29.24c0,0.2,0.12,0.39,0.31,0.46c0.06,0.03,0.13,0.04,0.19,0.04
		c0.13,0,0.26-0.05,0.35-0.15l3.25-3.25c0.26,0.35,0.22,0.93,0.22,0.93c0,0.01,0,0.03,0,0.04c0,0.85,0.69,1.53,1.53,1.53
		s1.53-0.69,1.53-1.53v-3.49v-0.78l4.24-4.24c0.32,0.03,0.56,0.15,0.74,0.35c0.42,0.45,0.45,1.27,0.43,1.55c0,0.01,0,0.03,0,0.04
		c0,1.08,0.87,1.95,1.95,1.95s1.95-0.87,1.95-1.95v-4.83v-2.18l4.83-4.83c0.09-0.09,0.15-0.22,0.15-0.35S499.9,582.46,499.81,582.36
		z M494.48,585.47c-0.28,0-0.5,0.22-0.5,0.5v1.72v2.38v4.83c0,0.52-0.42,0.95-0.95,0.95c-0.52,0-0.94-0.42-0.95-0.93
		c0.01-0.21,0.06-1.47-0.69-2.28c-0.42-0.45-0.98-0.68-1.68-0.68c-0.13,0-0.26,0.05-0.35,0.15l-3.69,3.69v-1.53
		c0-0.28-0.22-0.5-0.5-0.5c-0.28,0-0.5,0.22-0.5,0.5V597v0.99v3.49c0,0.29-0.24,0.53-0.53,0.53c-0.29,0-0.52-0.23-0.53-0.51
		c0.04-0.61-0.13-1.71-1.08-2.11c-0.19-0.08-0.41-0.04-0.55,0.11l-2.7,2.7v-5c1.4-0.24,2.46-1.45,2.46-2.92s-1.07-2.68-2.46-2.92
		V578.2c6.26,0.43,12.23,2.91,16.95,7.03l-1.24,1.24v-0.51C494.98,585.7,494.75,585.47,494.48,585.47z M496.93,584.53
		c-1.73-1.52-3.63-2.83-5.65-3.91l0.8-1.33c0.14-0.24,0.07-0.55-0.17-0.69c-0.24-0.14-0.55-0.07-0.69,0.17l-0.84,1.4
		c-2.7-1.32-5.59-2.23-8.57-2.69l0.41-1.43c0.08-0.27-0.08-0.54-0.34-0.62c-0.27-0.08-0.54,0.08-0.62,0.34l-0.45,1.56
		c-0.51-0.06-1.02-0.11-1.53-0.14v-2.54c2.71,0.05,5.36,0.47,7.89,1.24l-0.59,1.25c-0.12,0.25-0.01,0.55,0.24,0.67
		c0.07,0.03,0.14,0.05,0.21,0.05c0.19,0,0.37-0.11,0.45-0.29l0.65-1.37c3.11,1.07,6.03,2.67,8.63,4.77l-0.77,0.82
		c-0.19,0.2-0.18,0.52,0.02,0.71c0.1,0.09,0.22,0.14,0.34,0.14c0.13,0,0.27-0.05,0.36-0.16l0.81-0.86c0.41,0.35,0.81,0.72,1.21,1.1
		L496.93,584.53z"/>
</g>
<g id="SvgjsG1240_00000140729633241556072950000004091017859818995863_" transform="matrix(0.9552998825966725,0,0,0.9552998825966725,-27.343545944908506,-13.208931155976364)">
	<path class="st1" d="M348.88,529.9c-1,0-1.81,0.81-1.81,1.81c0,1,0.81,1.81,1.81,1.81c1,0,1.81-0.81,1.81-1.81
		C350.69,530.71,349.88,529.9,348.88,529.9z"/>
	<path class="st1" d="M348.08,525.52c0-1.63-1.33-2.96-2.96-2.96c-1.63,0-2.96,1.33-2.96,2.96c0,1.63,1.33,2.96,2.96,2.96
		C346.75,528.48,348.08,527.15,348.08,525.52z"/>
	<path class="st1" d="M361.66,525.3c-0.63-0.63-1.29-1.22-1.96-1.79c0,0,0,0,0-0.01c0,0-0.01,0-0.01-0.01
		c-5.34-4.47-12.01-6.91-19.05-6.91c-0.28,0-0.5,0.22-0.5,0.5v29.24c0,0.2,0.12,0.39,0.31,0.46c0.06,0.03,0.13,0.04,0.19,0.04
		c0.13,0,0.26-0.05,0.35-0.15l3.25-3.25c0.26,0.35,0.22,0.93,0.22,0.93c0,0.01,0,0.03,0,0.04c0,0.85,0.69,1.53,1.53,1.53
		s1.53-0.69,1.53-1.53v-3.49v-0.78l4.24-4.24c0.32,0.03,0.56,0.15,0.74,0.35c0.42,0.45,0.45,1.27,0.43,1.55c0,0.01,0,0.03,0,0.04
		c0,1.08,0.87,1.95,1.95,1.95s1.95-0.87,1.95-1.95v-4.83v-2.18l4.83-4.83c0.09-0.09,0.15-0.22,0.15-0.35S361.76,525.39,361.66,525.3
		z M356.33,528.41c-0.28,0-0.5,0.22-0.5,0.5v1.72v2.38v4.83c0,0.52-0.42,0.95-0.95,0.95c-0.52,0-0.94-0.42-0.95-0.93
		c0.01-0.21,0.06-1.47-0.69-2.28c-0.42-0.45-0.98-0.68-1.68-0.68c-0.13,0-0.26,0.05-0.35,0.15l-3.69,3.69v-1.53
		c0-0.28-0.22-0.5-0.5-0.5c-0.28,0-0.5,0.22-0.5,0.5v2.74v0.99v3.49c0,0.29-0.24,0.53-0.53,0.53c-0.29,0-0.52-0.23-0.53-0.51
		c0.04-0.61-0.13-1.71-1.08-2.11c-0.19-0.08-0.41-0.04-0.55,0.11l-2.7,2.7v-5c1.4-0.24,2.46-1.45,2.46-2.92s-1.07-2.68-2.46-2.92
		v-13.14c6.26,0.43,12.23,2.91,16.95,7.03l-1.24,1.24v-0.51C356.83,528.63,356.61,528.41,356.33,528.41z M358.79,527.46
		c-1.73-1.52-3.63-2.83-5.65-3.91l0.8-1.33c0.14-0.24,0.07-0.55-0.17-0.69c-0.24-0.14-0.55-0.07-0.69,0.17l-0.84,1.4
		c-2.7-1.32-5.59-2.23-8.57-2.69l0.41-1.43c0.08-0.27-0.08-0.54-0.34-0.62c-0.27-0.08-0.54,0.08-0.62,0.34l-0.45,1.56
		c-0.51-0.06-1.02-0.11-1.53-0.14v-2.54c2.71,0.05,5.36,0.47,7.89,1.24l-0.59,1.25c-0.12,0.25-0.01,0.55,0.24,0.67
		c0.07,0.03,0.14,0.05,0.21,0.05c0.19,0,0.37-0.11,0.45-0.29l0.65-1.37c3.11,1.07,6.03,2.67,8.63,4.77l-0.77,0.82
		c-0.19,0.2-0.18,0.52,0.02,0.71c0.1,0.09,0.22,0.14,0.34,0.14c0.13,0,0.27-0.05,0.36-0.16l0.81-0.86c0.41,0.35,0.81,0.72,1.21,1.1
		L358.79,527.46z"/>
</g>
<g id="SvgjsG1240_00000062178466898549298430000007730123614522007181_" transform="matrix(0.9552998825966725,0,0,0.9552998825966725,-27.343545944908506,-13.208931155976364)">
	<path class="st1" d="M229.31,499.65c-1,0-1.81,0.81-1.81,1.81s0.81,1.81,1.81,1.81c1,0,1.81-0.81,1.81-1.81
		S230.31,499.65,229.31,499.65z"/>
	<path class="st1" d="M228.51,495.27c0-1.63-1.33-2.96-2.96-2.96c-1.63,0-2.96,1.33-2.96,2.96s1.33,2.96,2.96,2.96
		S228.51,496.91,228.51,495.27z"/>
	<path class="st1" d="M242.09,495.05c-0.63-0.63-1.29-1.22-1.96-1.79c0,0,0,0,0-0.01c0,0-0.01,0-0.01-0.01
		c-5.34-4.47-12.01-6.91-19.05-6.91c-0.28,0-0.5,0.22-0.5,0.5v29.24c0,0.2,0.12,0.39,0.31,0.46c0.06,0.03,0.13,0.04,0.19,0.04
		c0.13,0,0.26-0.05,0.35-0.15l3.25-3.25c0.26,0.35,0.22,0.93,0.22,0.93c0,0.01,0,0.03,0,0.04c0,0.85,0.69,1.53,1.53,1.53
		s1.53-0.69,1.53-1.53v-3.49v-0.78l4.24-4.24c0.32,0.03,0.56,0.15,0.74,0.35c0.42,0.45,0.45,1.27,0.43,1.55c0,0.01,0,0.03,0,0.04
		c0,1.08,0.87,1.95,1.95,1.95s1.95-0.87,1.95-1.95v-4.83v-2.18l4.83-4.83c0.09-0.09,0.15-0.22,0.15-0.35
		C242.24,495.27,242.18,495.14,242.09,495.05z M236.76,498.16c-0.28,0-0.5,0.22-0.5,0.5v1.72v2.38v4.83c0,0.52-0.42,0.95-0.95,0.95
		c-0.52,0-0.94-0.42-0.95-0.93c0.01-0.21,0.06-1.47-0.69-2.28c-0.42-0.45-0.98-0.68-1.68-0.68c-0.13,0-0.26,0.05-0.35,0.15
		l-3.69,3.69v-1.53c0-0.28-0.22-0.5-0.5-0.5s-0.5,0.22-0.5,0.5v2.74v0.99v3.49c0,0.29-0.24,0.53-0.53,0.53
		c-0.29,0-0.52-0.23-0.53-0.51c0.04-0.61-0.13-1.71-1.08-2.11c-0.19-0.08-0.41-0.04-0.55,0.11l-2.7,2.7v-5
		c1.4-0.24,2.46-1.45,2.46-2.92s-1.07-2.68-2.46-2.92v-13.14c6.26,0.43,12.23,2.91,16.95,7.03l-1.24,1.24v-0.51
		C237.26,498.38,237.04,498.16,236.76,498.16z M239.22,497.21c-1.73-1.52-3.63-2.83-5.65-3.91l0.8-1.33
		c0.14-0.24,0.07-0.55-0.17-0.69c-0.24-0.14-0.55-0.07-0.69,0.17l-0.84,1.4c-2.7-1.32-5.59-2.23-8.57-2.69l0.41-1.43
		c0.08-0.27-0.08-0.54-0.34-0.62c-0.27-0.08-0.54,0.08-0.62,0.34l-0.45,1.56c-0.51-0.06-1.02-0.11-1.53-0.14v-2.54
		c2.71,0.05,5.36,0.47,7.89,1.24l-0.59,1.25c-0.12,0.25-0.01,0.55,0.24,0.67c0.07,0.03,0.14,0.05,0.21,0.05
		c0.19,0,0.37-0.11,0.45-0.29l0.65-1.37c3.11,1.07,6.03,2.67,8.63,4.77l-0.77,0.82c-0.19,0.2-0.18,0.52,0.02,0.71
		c0.1,0.09,0.22,0.14,0.34,0.14c0.13,0,0.27-0.05,0.36-0.16l0.81-0.86c0.41,0.35,0.81,0.72,1.21,1.1L239.22,497.21z"/>
</g>
<g id="SvgjsG1240_00000078765891657074919710000016520181700478695082_" transform="matrix(0.9552998825966725,0,0,0.9552998825966725,-27.343545944908506,-13.208931155976364)">
	<path class="st1" d="M277.85,411.13c-1,0-1.81,0.81-1.81,1.81c0,1,0.81,1.81,1.81,1.81c1,0,1.81-0.81,1.81-1.81
		C279.66,411.94,278.85,411.13,277.85,411.13z"/>
	<path class="st1" d="M277.04,406.75c0-1.63-1.33-2.96-2.96-2.96c-1.63,0-2.96,1.33-2.96,2.96s1.33,2.96,2.96,2.96
		S277.04,408.39,277.04,406.75z"/>
	<path class="st1" d="M290.63,406.53c-0.63-0.63-1.29-1.22-1.96-1.79c0,0,0,0,0-0.01c0,0-0.01,0-0.01-0.01
		c-5.34-4.47-12.01-6.91-19.05-6.91c-0.28,0-0.5,0.22-0.5,0.5v29.24c0,0.2,0.12,0.39,0.31,0.46c0.06,0.03,0.13,0.04,0.19,0.04
		c0.13,0,0.26-0.05,0.35-0.15l3.25-3.25c0.26,0.35,0.22,0.93,0.22,0.93c0,0.01,0,0.03,0,0.04c0,0.85,0.69,1.53,1.53,1.53
		s1.53-0.69,1.53-1.53v-3.49v-0.78l4.24-4.24c0.32,0.03,0.56,0.15,0.74,0.35c0.42,0.45,0.45,1.27,0.43,1.55c0,0.01,0,0.03,0,0.04
		c0,1.08,0.87,1.95,1.95,1.95s1.95-0.87,1.95-1.95v-4.83v-2.18l4.83-4.83c0.09-0.09,0.15-0.22,0.15-0.35
		C290.77,406.75,290.72,406.62,290.63,406.53z M285.29,409.64c-0.28,0-0.5,0.22-0.5,0.5v1.72v2.38v4.83c0,0.52-0.42,0.95-0.95,0.95
		c-0.52,0-0.94-0.42-0.95-0.93c0.01-0.21,0.06-1.47-0.69-2.28c-0.42-0.45-0.98-0.68-1.68-0.68c-0.13,0-0.26,0.05-0.35,0.15
		l-3.69,3.69v-1.53c0-0.28-0.22-0.5-0.5-0.5c-0.28,0-0.5,0.22-0.5,0.5v2.74v0.99v3.49c0,0.29-0.24,0.53-0.53,0.53
		c-0.29,0-0.52-0.23-0.53-0.51c0.04-0.61-0.13-1.71-1.08-2.11c-0.19-0.08-0.41-0.04-0.55,0.11l-2.7,2.7v-5
		c1.4-0.24,2.46-1.45,2.46-2.92s-1.07-2.68-2.46-2.92v-13.14c6.26,0.43,12.23,2.91,16.95,7.03l-1.24,1.24v-0.51
		C285.8,409.86,285.57,409.64,285.29,409.64z M287.75,408.69c-1.73-1.52-3.63-2.83-5.65-3.91l0.8-1.33
		c0.14-0.24,0.07-0.55-0.17-0.69c-0.24-0.14-0.55-0.07-0.69,0.17l-0.84,1.4c-2.7-1.32-5.59-2.23-8.57-2.69l0.41-1.43
		c0.08-0.27-0.08-0.54-0.34-0.62c-0.27-0.08-0.54,0.08-0.62,0.34l-0.45,1.56c-0.51-0.06-1.02-0.11-1.53-0.14v-2.54
		c2.71,0.05,5.36,0.47,7.89,1.24l-0.59,1.25c-0.12,0.25-0.01,0.55,0.24,0.67c0.07,0.03,0.14,0.05,0.21,0.05
		c0.19,0,0.37-0.11,0.45-0.29l0.65-1.37c3.11,1.07,6.03,2.67,8.63,4.77l-0.77,0.82c-0.19,0.2-0.18,0.52,0.02,0.71
		c0.1,0.09,0.22,0.14,0.34,0.14c0.13,0,0.27-0.05,0.36-0.16l0.81-0.86c0.41,0.35,0.81,0.72,1.21,1.1L287.75,408.69z"/>
</g>
<g id="SvgjsG1240_00000145030157080654975530000014973362727806609846_" transform="matrix(0.9552998825966725,0,0,0.9552998825966725,-27.343545944908506,-13.208931155976364)">
	<path class="st1" d="M442.05,484.53c-1,0-1.81,0.81-1.81,1.81s0.81,1.81,1.81,1.81c1,0,1.81-0.81,1.81-1.81
		S443.05,484.53,442.05,484.53z"/>
	<path class="st1" d="M441.24,480.15c0-1.63-1.33-2.96-2.96-2.96c-1.63,0-2.96,1.33-2.96,2.96s1.33,2.96,2.96,2.96
		S441.24,481.78,441.24,480.15z"/>
	<path class="st1" d="M454.83,479.93c-0.63-0.63-1.29-1.22-1.96-1.79c0,0,0,0,0-0.01c0,0-0.01,0-0.01-0.01
		c-5.34-4.47-12.01-6.91-19.05-6.91c-0.28,0-0.5,0.22-0.5,0.5v29.24c0,0.2,0.12,0.39,0.31,0.46c0.06,0.03,0.13,0.04,0.19,0.04
		c0.13,0,0.26-0.05,0.35-0.15l3.25-3.25c0.26,0.35,0.22,0.93,0.22,0.93c0,0.01,0,0.03,0,0.04c0,0.85,0.69,1.53,1.53,1.53
		c0.84,0,1.53-0.69,1.53-1.53v-3.49v-0.78l4.24-4.24c0.32,0.03,0.56,0.15,0.74,0.35c0.42,0.45,0.45,1.27,0.43,1.55
		c0,0.01,0,0.03,0,0.04c0,1.08,0.87,1.95,1.95,1.95s1.95-0.87,1.95-1.95v-4.83v-2.18l4.83-4.83c0.09-0.09,0.15-0.22,0.15-0.35
		C454.97,480.15,454.92,480.02,454.83,479.93z M449.49,483.04c-0.28,0-0.5,0.22-0.5,0.5v1.72v2.38v4.83c0,0.52-0.42,0.95-0.95,0.95
		c-0.52,0-0.94-0.42-0.95-0.93c0.01-0.21,0.06-1.47-0.69-2.28c-0.42-0.45-0.98-0.68-1.68-0.68c-0.13,0-0.26,0.05-0.35,0.15
		l-3.69,3.69v-1.53c0-0.28-0.22-0.5-0.5-0.5c-0.28,0-0.5,0.22-0.5,0.5v2.74v0.99v3.49c0,0.29-0.24,0.53-0.53,0.53
		c-0.29,0-0.52-0.23-0.53-0.51c0.04-0.61-0.13-1.71-1.08-2.11c-0.19-0.08-0.41-0.04-0.55,0.11l-2.7,2.7v-5
		c1.4-0.24,2.46-1.45,2.46-2.92s-1.07-2.68-2.46-2.92v-13.14c6.26,0.43,12.23,2.91,16.95,7.03l-1.24,1.24v-0.51
		C450,483.26,449.77,483.04,449.49,483.04z M451.95,482.09c-1.73-1.52-3.63-2.83-5.65-3.91l0.8-1.33c0.14-0.24,0.07-0.55-0.17-0.69
		c-0.24-0.14-0.55-0.07-0.69,0.17l-0.84,1.4c-2.7-1.32-5.59-2.23-8.57-2.69l0.41-1.43c0.08-0.27-0.08-0.54-0.34-0.62
		c-0.27-0.08-0.54,0.08-0.62,0.34l-0.45,1.56c-0.51-0.06-1.02-0.11-1.53-0.14v-2.54c2.71,0.05,5.36,0.47,7.89,1.24l-0.59,1.25
		c-0.12,0.25-0.01,0.55,0.24,0.67c0.07,0.03,0.14,0.05,0.21,0.05c0.19,0,0.37-0.11,0.45-0.29l0.65-1.37
		c3.11,1.07,6.03,2.67,8.63,4.77l-0.77,0.82c-0.19,0.2-0.18,0.52,0.02,0.71c0.1,0.09,0.22,0.14,0.34,0.14
		c0.13,0,0.27-0.05,0.36-0.16l0.81-0.86c0.41,0.35,0.81,0.72,1.21,1.1L451.95,482.09z"/>
</g>
<g id="SvgjsG1240_00000023988071304815306220000016771443496988575631_" transform="matrix(0.9552998825966725,0,0,0.9552998825966725,-27.343545944908506,-13.208931155976364)">
	<path class="st1" d="M405.46,780.21c-1,0-1.81,0.81-1.81,1.81s0.81,1.81,1.81,1.81s1.81-0.81,1.81-1.81
		S406.46,780.21,405.46,780.21z"/>
	<path class="st1" d="M404.66,775.83c0-1.63-1.33-2.96-2.96-2.96c-1.63,0-2.96,1.33-2.96,2.96c0,1.63,1.33,2.96,2.96,2.96
		S404.66,777.47,404.66,775.83z"/>
	<path class="st1" d="M418.24,775.61c-0.63-0.63-1.29-1.22-1.96-1.79c0,0,0,0,0-0.01c0,0-0.01,0-0.01-0.01
		c-5.34-4.47-12.01-6.91-19.05-6.91c-0.28,0-0.5,0.22-0.5,0.5v29.24c0,0.2,0.12,0.39,0.31,0.46c0.06,0.03,0.13,0.04,0.19,0.04
		c0.13,0,0.26-0.05,0.35-0.15l3.25-3.25c0.26,0.35,0.22,0.93,0.22,0.93c0,0.01,0,0.03,0,0.04c0,0.85,0.69,1.53,1.53,1.53
		s1.53-0.69,1.53-1.53v-3.49v-0.78l4.24-4.24c0.32,0.03,0.56,0.15,0.74,0.35c0.42,0.45,0.45,1.27,0.43,1.55c0,0.01,0,0.03,0,0.04
		c0,1.08,0.87,1.95,1.95,1.95s1.95-0.87,1.95-1.95v-4.83v-2.18l4.83-4.83c0.09-0.09,0.15-0.22,0.15-0.35S418.33,775.7,418.24,775.61
		z M412.91,778.72c-0.28,0-0.5,0.22-0.5,0.5v1.72v2.39v4.83c0,0.52-0.42,0.95-0.95,0.95c-0.52,0-0.94-0.42-0.95-0.93
		c0.01-0.21,0.06-1.47-0.69-2.28c-0.42-0.45-0.98-0.68-1.68-0.68c-0.13,0-0.26,0.05-0.35,0.15l-3.69,3.69v-1.53
		c0-0.28-0.22-0.5-0.5-0.5c-0.28,0-0.5,0.22-0.5,0.5v2.74v0.99v3.49c0,0.29-0.24,0.53-0.53,0.53c-0.29,0-0.52-0.23-0.53-0.51
		c0.04-0.61-0.13-1.71-1.08-2.11c-0.19-0.08-0.41-0.04-0.55,0.11l-2.7,2.7v-5c1.4-0.24,2.46-1.45,2.46-2.92s-1.07-2.68-2.46-2.92
		v-13.14c6.26,0.43,12.23,2.91,16.95,7.03l-1.24,1.24v-0.51C413.41,778.95,413.19,778.72,412.91,778.72z M415.37,777.78
		c-1.73-1.52-3.63-2.83-5.65-3.91l0.8-1.33c0.14-0.24,0.07-0.55-0.17-0.69c-0.24-0.14-0.55-0.07-0.69,0.17l-0.84,1.4
		c-2.7-1.32-5.59-2.23-8.57-2.69l0.41-1.43c0.08-0.27-0.08-0.54-0.34-0.62c-0.27-0.08-0.54,0.08-0.62,0.34l-0.45,1.56
		c-0.51-0.06-1.02-0.11-1.53-0.14v-2.54c2.71,0.05,5.36,0.47,7.89,1.24l-0.59,1.25c-0.12,0.25-0.01,0.55,0.24,0.67
		c0.07,0.03,0.14,0.05,0.21,0.05c0.19,0,0.37-0.11,0.45-0.29l0.65-1.37c3.11,1.07,6.03,2.67,8.63,4.77l-0.77,0.82
		c-0.19,0.2-0.18,0.52,0.02,0.71c0.1,0.09,0.22,0.14,0.34,0.14c0.13,0,0.27-0.05,0.36-0.16l0.81-0.86c0.41,0.35,0.81,0.72,1.21,1.1
		L415.37,777.78z"/>
</g>
<g id="SvgjsG1240_00000048470641815969239250000002902652644092124835_" transform="matrix(0.9552998825966725,0,0,0.9552998825966725,-27.343545944908506,-13.208931155976364)">
	<path class="st1" d="M250.99,780.21c-1,0-1.81,0.81-1.81,1.81s0.81,1.81,1.81,1.81c1,0,1.81-0.81,1.81-1.81
		S251.99,780.21,250.99,780.21z"/>
	<path class="st1" d="M250.19,775.83c0-1.63-1.33-2.96-2.96-2.96c-1.63,0-2.96,1.33-2.96,2.96c0,1.63,1.33,2.96,2.96,2.96
		S250.19,777.47,250.19,775.83z"/>
	<path class="st1" d="M263.77,775.61c-0.63-0.63-1.29-1.22-1.96-1.79c0,0,0,0,0-0.01c0,0-0.01,0-0.01-0.01
		c-5.34-4.47-12.01-6.91-19.05-6.91c-0.28,0-0.5,0.22-0.5,0.5v29.24c0,0.2,0.12,0.39,0.31,0.46c0.06,0.03,0.13,0.04,0.19,0.04
		c0.13,0,0.26-0.05,0.35-0.15l3.25-3.25c0.26,0.35,0.22,0.93,0.22,0.93c0,0.01,0,0.03,0,0.04c0,0.85,0.69,1.53,1.53,1.53
		s1.53-0.69,1.53-1.53v-3.49v-0.78l4.24-4.24c0.32,0.03,0.56,0.15,0.74,0.35c0.42,0.45,0.45,1.27,0.43,1.55c0,0.01,0,0.03,0,0.04
		c0,1.08,0.87,1.95,1.95,1.95s1.95-0.87,1.95-1.95v-4.83v-2.18l4.83-4.83c0.09-0.09,0.15-0.22,0.15-0.35S263.86,775.7,263.77,775.61
		z M258.44,778.72c-0.28,0-0.5,0.22-0.5,0.5v1.72v2.39v4.83c0,0.52-0.42,0.95-0.95,0.95c-0.52,0-0.94-0.42-0.95-0.93
		c0.01-0.21,0.06-1.47-0.69-2.28c-0.42-0.45-0.98-0.68-1.68-0.68c-0.13,0-0.26,0.05-0.35,0.15l-3.69,3.69v-1.53
		c0-0.28-0.22-0.5-0.5-0.5s-0.5,0.22-0.5,0.5v2.74v0.99v3.49c0,0.29-0.24,0.53-0.53,0.53c-0.29,0-0.52-0.23-0.53-0.51
		c0.04-0.61-0.13-1.71-1.08-2.11c-0.19-0.08-0.41-0.04-0.55,0.11l-2.7,2.7v-5c1.4-0.24,2.46-1.45,2.46-2.92s-1.07-2.68-2.46-2.92
		v-13.14c6.26,0.43,12.23,2.91,16.95,7.03l-1.24,1.24v-0.51C258.94,778.95,258.72,778.72,258.44,778.72z M260.9,777.78
		c-1.73-1.52-3.63-2.83-5.65-3.91l0.8-1.33c0.14-0.24,0.07-0.55-0.17-0.69c-0.24-0.14-0.55-0.07-0.69,0.17l-0.84,1.4
		c-2.7-1.32-5.59-2.23-8.57-2.69l0.41-1.43c0.08-0.27-0.08-0.54-0.34-0.62c-0.27-0.08-0.54,0.08-0.62,0.34l-0.45,1.56
		c-0.51-0.06-1.02-0.11-1.53-0.14v-2.54c2.71,0.05,5.36,0.47,7.89,1.24l-0.59,1.25c-0.12,0.25-0.01,0.55,0.24,0.67
		c0.07,0.03,0.14,0.05,0.21,0.05c0.19,0,0.37-0.11,0.45-0.29l0.65-1.37c3.11,1.07,6.03,2.67,8.63,4.77l-0.77,0.82
		c-0.19,0.2-0.18,0.52,0.02,0.71c0.1,0.09,0.22,0.14,0.34,0.14c0.13,0,0.27-0.05,0.36-0.16l0.81-0.86c0.41,0.35,0.81,0.72,1.21,1.1
		L260.9,777.78z"/>
</g>
<g id="SvgjsG1240_00000119818207115468461150000009114379418081562537_" transform="matrix(0.9552998825966725,0,0,0.9552998825966725,-27.343545944908506,-13.208931155976364)">
	<path class="st1" d="M325.03,720.48c-1,0-1.81,0.81-1.81,1.81s0.81,1.81,1.81,1.81c1,0,1.81-0.81,1.81-1.81
		S326.03,720.48,325.03,720.48z"/>
	<path class="st1" d="M324.23,716.1c0-1.63-1.33-2.96-2.96-2.96c-1.63,0-2.96,1.33-2.96,2.96c0,1.63,1.33,2.96,2.96,2.96
		S324.23,717.74,324.23,716.1z"/>
	<path class="st1" d="M337.81,715.88c-0.63-0.63-1.29-1.22-1.96-1.79c0,0,0,0,0-0.01c0,0-0.01,0-0.01-0.01
		c-5.34-4.47-12.01-6.91-19.05-6.91c-0.28,0-0.5,0.22-0.5,0.5v29.24c0,0.2,0.12,0.39,0.31,0.46c0.06,0.03,0.13,0.04,0.19,0.04
		c0.13,0,0.26-0.05,0.35-0.15l3.25-3.25c0.26,0.35,0.22,0.93,0.22,0.93c0,0.01,0,0.03,0,0.04c0,0.85,0.69,1.53,1.53,1.53
		c0.84,0,1.53-0.69,1.53-1.53v-3.49v-0.78l4.24-4.24c0.32,0.03,0.56,0.15,0.74,0.35c0.42,0.45,0.45,1.27,0.43,1.55
		c0,0.01,0,0.03,0,0.04c0,1.08,0.87,1.95,1.95,1.95s1.95-0.87,1.95-1.95v-4.83v-2.18l4.83-4.83c0.09-0.09,0.15-0.22,0.15-0.35
		S337.91,715.97,337.81,715.88z M332.48,718.99c-0.28,0-0.5,0.22-0.5,0.5v1.72v2.38v4.83c0,0.52-0.42,0.95-0.95,0.95
		c-0.52,0-0.94-0.42-0.95-0.93c0.01-0.21,0.06-1.47-0.69-2.28c-0.42-0.45-0.98-0.68-1.68-0.68c-0.13,0-0.26,0.05-0.35,0.15
		l-3.69,3.69v-1.53c0-0.28-0.22-0.5-0.5-0.5c-0.28,0-0.5,0.22-0.5,0.5v2.74v0.99v3.49c0,0.29-0.24,0.53-0.53,0.53
		c-0.29,0-0.52-0.23-0.53-0.51c0.04-0.61-0.13-1.71-1.08-2.11c-0.19-0.08-0.41-0.04-0.55,0.11l-2.7,2.7v-5
		c1.4-0.24,2.46-1.45,2.46-2.92s-1.07-2.68-2.46-2.92v-13.14c6.26,0.43,12.23,2.91,16.95,7.03l-1.24,1.24v-0.51
		C332.98,719.21,332.76,718.99,332.48,718.99z M334.94,718.04c-1.73-1.52-3.63-2.83-5.65-3.91l0.8-1.33
		c0.14-0.24,0.07-0.55-0.17-0.69c-0.24-0.14-0.55-0.07-0.69,0.17l-0.84,1.4c-2.7-1.32-5.59-2.23-8.57-2.69l0.41-1.43
		c0.08-0.27-0.08-0.54-0.34-0.62c-0.27-0.08-0.54,0.08-0.62,0.34l-0.45,1.56c-0.51-0.06-1.02-0.11-1.53-0.14v-2.54
		c2.71,0.05,5.36,0.47,7.89,1.24l-0.59,1.25c-0.12,0.25-0.01,0.55,0.24,0.67c0.07,0.03,0.14,0.05,0.21,0.05
		c0.19,0,0.37-0.11,0.45-0.29l0.65-1.37c3.11,1.07,6.03,2.67,8.63,4.77l-0.77,0.82c-0.19,0.2-0.18,0.52,0.02,0.71
		c0.1,0.09,0.22,0.14,0.34,0.14c0.13,0,0.27-0.05,0.36-0.16l0.81-0.86c0.41,0.35,0.81,0.72,1.21,1.1L334.94,718.04z"/>
</g>
</svg>
