<?xml version="1.0" encoding="utf-8"?>
<!-- Generator: Adobe Illustrator 26.1.0, SVG Export Plug-In . SVG Version: 6.00 Build 0)  -->
<svg version="1.1" id="Layer_1" xmlns="http://www.w3.org/2000/svg" xmlns:xlink="http://www.w3.org/1999/xlink" x="0px" y="0px"
	 viewBox="0 0 3190.4 3075.6" style="enable-background:new 0 0 3190.4 3075.6;" xml:space="preserve">
<style type="text/css">
	.st0{fill:#111111;}
</style>
<path class="st0" d="M643.7,1355.1c-0.7,0-0.7,0-0.7-0.7v-2.2h-2.2l0.7-1.4c0-0.7,0.7-1.4,1.4-1.4s0.7,0,0.7-0.7s-0.7-0.7-1.4-0.7
	s-2.2,0-2.2,1.4l-1.4,0.7l-0.7-1.4l1.4-1.4h-0.7c-1.4,0-3.6-0.7-3.6-1.4s0.7-0.7,2.2-0.7h1.4l-2.2-1.4v-0.7c0-0.7,0-1.4-0.7-1.4
	l-4.3-2.2l-0.7,1.4c-0.7,0-1.4-0.7-1.4-1.4s0.7-1.4,1.4-1.4l0.7-0.7c0-0.7-0.7-0.7-2.2-0.7l-1.4,0.7v-5l-3.6,0.7
	c-0.7,0-0.7,0-0.7-2.2c0-0.7,0-2.2,0.7-2.2h0.7l-0.7-0.7c0-0.7-1.4-0.7-2.2-0.7c-2.2,0-5.8-5-5.8-6.5v-0.7c0.7,0,0.7-1.4,0.7-2.2
	c0-2.9,6.5-7.9,12.2-11.5l5.8-2.9l2.2-1.4l1.4,1.4h0.7l0.7-0.7h-0.7l-0.7-1.4h2.2c0.7,0,0.7,0.7,0.7,1.4c0,0.7,0,1.4,0.7,1.4
	l0.7-0.7l-1.4-2.2v-1.4c0-0.7,4.3-2.9,5.8-2.9c1.4,0,2.2-0.7,2.9-1.4c0.7-1.4,2.2-2.2,3.6-2.9c0.7,0,2.9-1.4,3.6-2.9
	c1.4-1.4,2.9-2.9,3.6-2.9l7.9-2.9c4.3-1.4,5.8-2.9,5.8-2.9v-0.7c-0.7-0.7-1.4-1.4-1.4-2.2l0.7,0.7l5,1.4c3.6,0,7.2-2.9,7.2-4.3v-1.4
	c0-0.7,1.4-1.4,5-3.6l7.2-4.3l4.3-2.2c0-0.7,1.4-1.4,3.6-2.2l2.9-1.4c0-0.7,0.7-0.7,1.4-0.7s1.4,0,2.2-0.7c0.7-0.7,2.2-1.4,3.6-1.4
	l2.9-1.4c0.7-0.7,2.9-0.7,5-0.7c3.6,0,4.3,0,4.3-1.4c0-1.4-0.7-2.2-1.4-2.2l0.7-1.4c0.7-0.7,2.2-0.7,2.2-0.7l4.3-0.7l2.9-0.7v0.7
	h0.7c0.7,0,1.4,0,1.4-0.7s1.4-1.4,3.6-2.2c1.4-0.7,3.6-2.2,5-2.2c0.7-0.7,2.2-0.7,2.9-0.7c0.7,0,1.4-0.7,1.4-1.4
	c0-0.7,0.7-0.7,1.4-0.7h0.7c1.4,0,2.2,0,2.2-0.7s0-0.7,0.7-0.7s0.7,0,0.7,0.7l-0.7,0.7l0.7,0.7l1.4-0.7c0.7,0,1.4-0.7,1.4-1.4v-0.7
	h2.2c0.7,0,2.2,0,2.9-0.7c0.7-0.7,1.4-1.4,2.2-1.4s1.4-0.7,1.4-1.4l-0.7-1.4l-3.6,0.7l0.7-1.4c0.7-1.4,2.2-2.2,4.3-2.2l3.6,1.4
	l2.9-1.4c2.2-1.4,3.6-2.9,3.6-4.3l0.7-1.4l-1.4,0.7l-1.4,2.9l-1.4,0.7c-0.7,0-1.4-0.7-1.4-1.4l-4.3-2.2l-2.2-0.7h-1.4
	c-1.4,0-2.9,0-2.9-0.7h-2.2c-2.2,0-2.2-0.7-2.9-2.2l-0.7-2.9c-0.7,0-0.7-0.7-0.7-2.2c0-0.7,0-1.4-0.7-1.4h-0.7l0.7,0.7
	c0,0.7,0,1.4-1.4,1.4c-0.7,0-0.7,1.4-0.7,2.2c0.7,0.7,0.7,1.4,1.4,1.4h0.7v2.2l-1.4-0.7c-1.4-0.7-2.9-0.7-3.6-0.7s-1.4,0-1.4-0.7
	c0-0.7,0-1.4-0.7-1.4c-0.7,0-1.4,0-1.4-0.7h-2.9l-5.8-2.9l-2.2,1.4l-1.4,0.7v-1.4c0-1.4-0.7-2.9-1.4-3.6l-1.4-0.7l-0.7,0.7l1.4,3.6
	c-1.4,0-10.8-6.5-14.4-10.1c-10.8-11.5-12.2-13.7-12.2-14.4v-0.7c0-0.7-0.7-1.4-1.4-2.2c-1.4-0.7-2.2-2.2-2.9-5
	c0-2.2-1.4-3.6-1.4-4.3c-0.7,0-2.2-1.4-2.2-3.6l-3.6-7.9c-1.4-2.9-3.6-8.6-4.3-12.2c-0.7-3.6-2.2-7.2-2.9-9.3l-0.7-4.3
	c0-6.5,2.2-15.8,3.6-17.3c0.7-0.7,1.4-1.4,1.4-2.2s0-1.4,0.7-1.4s6.5-5.8,6.5-6.5h-1.4l-1.4-0.7l-0.7-1.4l1.4-1.4
	c0.7-1.4,2.2-2.2,2.9-2.2c2.2,0,6.5-4.3,6.5-5v-0.7c0-0.7,0-1.4,0.7-2.2l0.7-2.2l-0.7,0.7c-0.7,0.7-1.4,0.7-2.2,0.7v-0.7l2.9-5.8
	c2.9-3.6,5-6.5,5.8-6.5l0.7,0.7c0,0.7-0.7,2.2-2.9,3.6l-3.6,5.8l0.7,0.7c0.7,0,5.8-4.3,5.8-5l6.5-7.9c4.3-4.3,7.2-7.9,7.2-8.6
	c0-0.7,0.7-0.7,1.4-0.7c0.7,0,6.5-5,6.5-6.5c0-0.7,3.6-3.6,7.2-7.2c4.3-2.9,7.2-6.5,7.2-6.5l-0.7-0.7h1.4c0.7,0,2.2-0.7,3.6-2.2
	c2.2-0.7,4.3-2.2,4.3-2.9c0.7-0.7,2.9-1.4,4.3-2.9c1.4-1.4,2.9-2.2,3.6-2.2s1.4-0.7,2.2-1.4l2.9-1.4l2.9-0.7c0-0.7,1.4-1.4,2.2-1.4
	c1.4,0,2.9,0,4.3-0.7c1.4-1.4,6.5-2.2,10.8-3.6c3.6-0.7,5.8-0.7,5.8-1.4h-0.7c-1.4,0-2.2-0.7-2.2-0.7v-0.7h2.2c0.7,0,1.4,0,1.4-0.7
	l0.7-0.7c0,0.7,0.7,0.7,1.4,0.7c0.7,1.4,2.9,1.4,3.6,1.4h0.7c0.7,0,1.4,0.7,2.2,1.4l3.6,2.9c0.7,0.7,2.9,2.2,3.6,4.3l2.9,4.3
	c0.7,0.7,2.2,2.9,2.9,5.8c0.7,2.2,3.6,6.5,5,8.6l2.9,5.8l-0.7,2.2l2.2,2.2l-1.4,2.9l-0.7,2.9l1.4-0.7l-0.7,1.4c0,0.7,0,1.4,0.7,2.2
	l0.7,0.7h-1.4c-0.7,0-0.7,0-0.7,0.7l0.7,4.3h-2.2c0.7,0,0.7,0.7,0.7,1.4c0,0,0,0.7-1.4,0.7c-0.7,0-0.7-0.7-0.7-1.4l-0.7-1.4
	l-0.7,0.7c0,0.7,0,0.7-0.7,0.7h-0.7l-1.4,0.7v0.7l-1.4-1.4c-0.7-0.7-2.2-0.7-2.2-0.7l0.7-2.9c0-0.7-0.7-0.7-2.2-1.4
	c-1.4,0-2.9,0.7-3.6,1.4l-2.2,0.7h-2.9l0.7,1.4c0,0.7-0.7,0.7-2.2,0.7l-0.7-0.7v-1.4l-1.4,0.7l-0.7,1.4l1.4,2.9
	c0,0.7-0.7,1.4-2.9,2.2c-2.2,0.7-4.3,0.7-5,0.7c-1.4,0-2.2,0.7-2.9,2.2l-1.4,0.7c0-0.7-0.7-0.7-0.7-0.7l-0.7,1.4v0.7
	c0,0.7-2.2,1.4-3.6,1.4h-2.9l0.7,0.7l0.7,1.4c0,0.7-0.7,1.4-2.2,1.4l-0.7-0.7v-2.2l-0.7,0.7c-0.7,0-1.4,0.7-1.4,1.4l-1.4,0.7
	c-0.7,0-1.4,0.7-1.4,1.4c0,0.7,0,1.4,0.7,1.4s0.7,0,0.7,0.7l-1.4,1.4l-0.7-1.4v-0.7h-0.7c-0.7,0-2.9,1.4-4.3,2.9l-3.6,2.9l-1.4-0.7
	c-1.4,0-2.2,0.7-2.9,1.4c-1.4,0.7-2.9,2.2-2.9,2.9l-0.7,0.7v-0.7c0-0.7,0-2.2,0.7-3.6l0.7-1.4l-1.4,0.7c-1.4,0-1.4,0.7-1.4,5v3.6
	l-1.4-1.4l-2.2,1.4l-0.7,1.4h1.4c0.7,0,0.7,0,0.7,0.7v0.7c-0.7,2.2-2.9,3.6-7.2,3.6c-0.7,0-1.4,1.4-1.4,2.2c0,1.4-0.7,2.2-1.4,2.2
	s-0.7,0.7-0.7,1.4c0,1.4-0.7,2.2-2.2,2.2c-1.4,0-2.9,0-2.9,0.7c0,0.7,0,2.2-1.4,2.9c-0.7,1.4-0.7,1.4-1.4,1.4l-1.4-2.2l-1.4,2.2
	c0,0.7,0.7,1.4,1.4,2.2c2.2,1.4,2.2,2.2,2.2,4.3c-0.7,1.4-0.7,2.2-1.4,2.2h-0.7c-2.2,0-5.8,2.9-5.8,5v1.4h-0.7
	c-0.7,0-1.4,0.7-1.4,1.4c0,0,0,0.7,0.7,0.7c0,0.7-0.7,2.2-2.2,3.6c-2.9,2.9-4.3,5-4.3,6.5l0.7,2.2c0,0,1.4,1.4,3.6,2.2l4.3,2.9
	c0.7,0.7,1.4,1.4,2.2,1.4l3.6,1.4l3.6,0.7l2.9,0.7c1.4,1.4,2.9,2.2,4.3,2.2c2.2,0,2.9,0,2.9,0.7s10.1,2.9,14.4,2.9h2.2l1.4,0.7
	c0.7,0.7,0.7,1.4,1.4,1.4h0.7c0.7,0,1.4,0,2.2,0.7l0.7,0.7l1.4-1.4l1.4-0.7c0,1.4,0.7,1.4,1.4,1.4c1.4,0,2.2,0,3.6-0.7
	c0.7-0.7,2.9-0.7,2.9-0.7c0.7,0.7,2.2,0.7,3.6,0.7l2.9,0.7l0.7,0.7v-1.4l1.4,0.7c0.7,0.7,0.7,1.4,0.7,2.2c0,0,0,0.7,0.7,0.7
	c0.7,0,0.7-0.7,0.7-1.4c0-0.7,0.7-1.4,1.4-1.4l0.7,0.7l4.3,0.7h4.3c0,0.7,0.7,0.7,1.4,0.7c3.6,0.7,11.5,3.6,12.2,4.3l4.3,2.9
	c5,2.9,16.5,12.2,16.5,14.4c0,0.7,6.5,10.8,7.9,12.9c0.7,0.7,1.4,2.2,1.4,4.3l1.4,3.6c1.4,1.4,2.2,8.6,2.2,12.9v2.9
	c0,2.9-0.7,4.3-2.2,5c-0.7,0.7-1.4,1.4-1.4,2.2v0.7l-1.4,1.4c-1.4,0.7-2.2,1.4-2.2,2.2v0.7c0,0.7-0.7,0.7-1.4,0.7
	c-0.7,0-1.4,0-2.2-0.7l-4.3-2.2l0.7,2.2c0,1.4-0.7,2.2-2.2,3.6c-2.2,2.2-3.6,2.9-5,2.9c-0.7,0-1.4,0-1.4-1.4c0-1.4,0.7-1.4,1.4-1.4
	h0.7c0.7,0,1.4,0,1.4-0.7l2.9-1.4c0.7,0,0.7,0,0.7-0.7l-1.4-0.7l-2.2,0.7c0,0.7-2.2,1.4-4.3,2.9c-2.2,0.7-5,2.9-5.8,3.6
	s-1.4,1.4-2.2,1.4s-1.4,0.7-1.4,1.4h-0.7c-1.4,0-1.4,0-1.4,0.7c0,1.4-7.2,5.8-10.8,5.8c-1.4,0-2.2,0.7-2.2,0.7v0.7
	c0,0.7-0.7,1.4-2.2,1.4c-0.7,0-1.4,0.7-1.4,1.4s-1.4,1.4-2.2,2.2c-1.4,0-2.2,0.7-2.2,1.4l0.7,0.7l-3.6,0.7l-2.9-0.7l-0.7-0.7v0.7
	c0,1.4-1.4,2.9-2.2,2.9l-1.4-2.2v1.4c0,0.7-0.7,1.4-1.4,2.2h-0.7v-2.9c-0.7,0-0.7,0-1.4,1.4c-0.7,0.7-1.4,1.4-2.2,1.4l-4.3,1.4
	c-2.9,0.7-4.3,1.4-4.3,2.9s-0.7,2.2-1.4,2.2H771c0,0.7-0.7,0.7-1.4,0.7l-0.7-1.4v-0.7l-0.7,0.7l-3.6,0.7l-5,2.2l-1.4-0.7
	c0,0,0-0.7,0.7-0.7l0.7-1.4v-0.7h0.7c2.2,0,7.2-2.9,7.2-4.3h-0.7l-8.6,3.6c-0.7,0-0.7,0-0.7,0.7c0,0.7-0.7,0.7-0.7,0.7l-2.9,0.7
	l-3.6,1.4c-1.4,0-5.8,2.2-5.8,2.2c0,0.7-0.7,1.4-2.2,1.4c-0.7,0-0.7,0-0.7,0.7v0.7c0,0.7,0,1.4-0.7,1.4c-0.7,0-0.7,0-0.7-0.7
	c0-0.7,0-0.7-0.7-0.7h-1.4c-0.7,0-1.4,0.7-1.4,1.4l-1.4,0.7c-1.4,0-2.9,1.4-2.9,2.9l0.7,1.4c0,0.7-2.9,2.2-4.3,2.2
	c-0.7,0-1.4,0-1.4,0.7l-2.2,0.7l-1.4-0.7c0-0.7-0.7-0.7-2.2-0.7h-1.4l1.4,2.2h-2.2c-2.2,0-5,0.7-5.8,2.2c0,0.7-1.4,1.4-2.2,1.4
	c-2.9,0.7-5,2.2-5,2.9c0,0.7-1.4,1.4-7.2,2.2l-2.9,0.7l-0.7-0.7l0.7-0.7l-0.7-0.7c-0.7,0-0.7,0.7-0.7,1.4c0,0.7,0,1.4,0.7,1.4
	c0.7,0,0.7,0.7,0.7,2.2c0,1.4,0,1.4-1.4,1.4H694c-1.4,0-2.9,0.7-3.6,1.4c-3.6,1.4-3.6,2.2-3.6,4.3v1.4c0,2.2-0.7,2.9-1.4,2.9
	l-1.4-0.7l-0.7-0.7h0.7c0.7,0,1.4-0.7,1.4-1.4s0-0.7-0.7-0.7s-2.2,0.7-3.6,2.2c-1.4,0.7-2.9,1.4-4.3,1.4c-0.7,0-1.4,0.7-2.2,1.4
	c0,0.7-2.2,2.2-4.3,2.9l-5,2.9c0,0,0,0.7,0.7,0.7l1.4,0.7l2.2-2.2l0.7,1.4l-0.7,1.4h-0.7c0,0-1.4,0-2.2,0.7l-5,2.9l-2.9,0.7l0.7-2.2
	l-0.7-0.7l-0.7,0.7l-2.9,1.4h-0.7v0.7c0,0.7,0,1.4-5,2.2l-3.6,2.2L643.7,1355.1z M767.4,1043l-1.4-0.7c0-1.4,0.7-2.2,1.4-2.2
	l2.9-0.7c0-0.7,0.7-1.4,1.4-1.4l4.3-1.4c2.2-1.4,6.5-2.2,8.6-2.2c1.4,0,2.9,0,2.9,0.7l0.7,0.7v-0.7c0-0.7,0.7-1.4,1.4-1.4
	c0.7,0,1.4,0.7,1.4,1.4c0,1.4-3.6,2.2-8.6,2.2c-2.2,0-3.6,0.7-3.6,1.4v0.7h-0.7L767.4,1043z M743.7,1061.7c-0.7,0-1.4-0.7-1.4-1.4
	c0-0.7,1.4-3.6,4.3-5c5-4.3,7.9-6.5,8.6-6.5c0.7,0,0.7,0,0.7,0.7c0,1.4-2.9,3.6-4.3,3.6c-1.4,0-2.2,0.7-2.2,1.4
	c0,1.4-1.4,2.9-2.9,2.9h-0.7l-2.9,0.7l0.7,0.7c0.7,0.7,0.7,1.4,0.7,2.2L743.7,1061.7z M740.1,1063.9l-0.7-1.4l0.7-0.7l0.7,0.7
	C740.8,1063.1,740.8,1063.9,740.1,1063.9z M737.2,1066.7l-0.7-1.4l1.4-0.7c0.7,0,0.7,0,0.7,0.7
	C738.6,1066,737.9,1066.7,737.2,1066.7z M720.7,1082.6c1.4-2.9,2.2-3.6,3.6-4.3c0,0,0.7,0,0.7,0.7L720.7,1082.6z M823.5,1084.7
	c0.7,0,0.7,0,0.7-0.7v-0.7l-0.7-1.4c0,0-0.7,0-0.7,0.7l-0.7,0.7l0.7,1.4H823.5z M717.8,1089l-0.7-0.7c-0.7-0.7-1.4-0.7-2.2-0.7h-0.7
	l-0.7-0.7c0-0.7,1.4-2.2,2.9-2.9c0.7-0.7,2.2-0.7,3.6-0.7c0.7,0,0.7,0,0.7,0.7v0.7c0,0.7-1.4,0.7-1.4,0.7h-0.7
	c-0.7,0-0.7,0.7-0.7,1.4C717.8,1086.9,717.8,1089,717.8,1089z M796.2,1091.2l0.7-0.7v-0.7c0-0.7,0.7-1.4,2.2-2.2l2.2-1.4h-2.9
	c-2.9,0.7-4.3,0.7-4.3,1.4l2.2,2.2V1091.2L796.2,1091.2z M814.9,1089v-0.7c0-0.7,0-0.7,0.7-0.7c0.7,0,0.7,0,0.7,0.7L814.9,1089z
	 M810.6,1089h-1.4l0.7-0.7h2.2C812,1089,811.3,1089,810.6,1089z M799.8,1091.2v-0.7l-1.4-0.7c0,0,0,0.7,0.7,0.7L799.8,1091.2z
	 M827.1,1092.6l0.7-1.4v0.7L827.1,1092.6z M779.6,1097.7l1.4-0.7c0.7,0,1.4-1.4,1.4-1.4c0-0.7,0-0.7-1.4-0.7h-0.7l0.7-0.7l-0.7-0.7
	c-0.7,0-1.4,0.7-1.4,2.2v1.4L779.6,1097.7z M788.3,1098.4l0.7-2.9l-0.7-2.2c-0.7,0-0.7,1.4-0.7,2.2L788.3,1098.4z M789.7,1103.4
	c0,0-0.7,0-0.7-1.4l0.7-1.4h0.7l0.7,1.4L789.7,1103.4z M766.7,1107c0.7,0,1.4-0.7,2.2-1.4c0-1.4,0.7-2.2,2.9-2.2
	c2.2,0,2.9-0.7,2.9-0.7c0-0.7-0.7-0.7-2.2-0.7c-2.2,0-6.5,2.9-6.5,4.3C766,1107,766,1107,766.7,1107L766.7,1107z M701.2,1108.4
	c0-1.4,1.4-2.2,3.6-3.6h1.4c0,0.7-0.7,0.7-2.2,2.2L701.2,1108.4z M770.3,1107c0,0,0.7,0,0.7-0.7c0-0.7,0-0.7-0.7-0.7l-0.7,0.7
	C769.6,1107,769.6,1107,770.3,1107z M775.3,1109.2l-0.7-0.7l0.7-1.4h0.7c0.7,0,0.7,0,0.7,0.7C776.8,1108.4,776,1109.2,775.3,1109.2z
	 M700.5,1113.5l1.4-0.7c0-0.7,0-0.7-0.7-0.7c-0.7,0-0.7,0-0.7,0.7C700.5,1112.8,700.5,1113.5,700.5,1113.5z M763.8,1116.4
	c-0.7,0-0.7-0.7-0.7-2.2l0.7-1.4c0.7,0,0.7,0.7,0.7,1.4L763.8,1116.4z M756.6,1115.6l1.4-0.7l0.7-1.4v-0.7c-0.7,0-0.7,0.7-1.4,2.2
	L756.6,1115.6z M750.9,1119.9l0.7-0.7c0-0.7,0-1.4-0.7-1.4l-0.7,1.4L750.9,1119.9z M741.5,1130l0.7-0.7c1.4,0,3.6-2.2,5-3.6
	c1.4-1.4,2.9-2.9,2.9-3.6c-0.7,0-1.4,0.7-2.2,1.4l-1.4,0.7l-0.7-0.7c-0.7,0-2.2,1.4-3.6,3.6L741.5,1130z M739.4,1135.1
	c0.7,0,0.7-0.7,1.4-1.4l0.7-2.9h-0.7c-0.7,0-1.4,1.4-1.4,2.9V1135.1z M734.3,1142.2v-1.4l-0.7-0.7h1.4l0.7,0.7l-0.7-0.7
	c0-0.7,0-0.7-0.7-0.7l-1.4,0.7L734.3,1142.2z M728.6,1148.7l1.4-1.4c1.4-0.7,2.2-2.2,2.2-2.9l-0.7-0.7l-0.7,1.4v1.4
	c-0.7,0-1.4,0.7-2.2,1.4C728.6,1148,728.6,1148.7,728.6,1148.7z M726.4,1154.5l2.2-2.2l-0.7-1.4c-0.7,0-1.4,0.7-2.2,1.4l-0.7,1.4
	C725,1154.5,725.7,1154.5,726.4,1154.5z M723.5,1153l0.7-0.7c0-0.7,0-1.4-0.7-1.4l-0.7,1.4C722.8,1153,722.8,1153,723.5,1153z
	 M725.7,1166c-0.7,0-0.7,0-0.7-1.4c0-0.7,0.7-0.7,1.4-0.7s0.7,0,0.7,0.7C726.4,1166,725.7,1166,725.7,1166z M755.9,1179.6
	c-0.7,0-1.4,0-1.4-0.7l1.4-0.7c0.7,0,1.4,0,1.4,0.7L755.9,1179.6z M758.8,1181.1l-0.7-1.4l1.4-0.7v0.7L758.8,1181.1z M748,1217.8
	l0.7-1.4c0-0.7-1.4-1.4-2.2-1.4l-1.4,0.7c0,0.7,0.7,1.4,1.4,1.4L748,1217.8z M753,1219.2v-0.7c0-0.7,0-0.7-0.7-0.7h-0.7
	c0,0-0.7,0-0.7-0.7v-0.7l-1.4,0.7c0,1.4,0.7,2.2,2.2,2.2L753,1219.2L753,1219.2z M761.6,1219.9c0.7,0,1.4,0,1.4-0.7
	c0-0.7-0.7-0.7-1.4-0.7c-0.7,0-1.4,0-1.4,0.7L761.6,1219.9z M768.8,1223.5l0.7-0.7v-1.4c-0.7,0-1.4,0.7-1.4,1.4L768.8,1223.5z
	 M773.9,1226.4c0.7,0,0.7-0.7,0.7-0.7l-0.7-1.4l1.4-1.4h-0.7c-1.4,0-1.4,0.7-1.4,1.4C773.2,1224.9,773.2,1226.4,773.9,1226.4
	L773.9,1226.4z M781.8,1228.5l2.9-1.4l0.7-0.7l-4.3,2.2H781.8L781.8,1228.5z M759.5,1237.2l-1.4-0.7c0-0.7,1.4-1.4,2.2-1.4
	s1.4,0.7,1.4,1.4L759.5,1237.2z M711.3,1254.4v-5l0.7,1.4C712,1252.3,712,1253.7,711.3,1254.4L711.3,1254.4z M809.1,1269.5l1.4-0.7
	l0.7-0.7h-0.7c0,0-0.7,0-0.7,0.7L809.1,1269.5z M738.6,1273.9c0.7,0,0.7,0,0.7-0.7c0-1.4-0.7-1.4-0.7-1.4l-0.7,1.4L738.6,1273.9z
	 M783.9,1281.8l2.9-0.7l-1.4-0.7C784.7,1280.3,783.9,1281,783.9,1281.8z M668.2,1287.5l1.4-0.7l2.9-2.2h-0.7c-0.7,0-1.4,0-2.2,0.7
	l-2.2,1.4L668.2,1287.5z M658.8,1290.4l7.2-1.4l0.7-0.7l-0.7-0.7l-4.3,1.4L658.8,1290.4z M770.3,1293.3l1.4-0.7c0-0.7,0-1.4-0.7-1.4
	l-0.7,1.4C770.3,1292.6,770.3,1293.3,770.3,1293.3z M733.6,1297.6l1.4-0.7l0.7-2.2H735v0.7C734.3,1296.1,733.6,1296.9,733.6,1297.6z
	 M722.8,1301.9l2.9-0.7l2.9-1.4c0-0.7-0.7-0.7-1.4-0.7s-1.4,0-2.2,0.7l-2.2,0.7l-1.4,0.7L722.8,1301.9z M719.9,1306.2v-1.4
	c0-0.7-0.7-1.4-1.4-1.4h-0.7L719.9,1306.2z M722.1,1304.8l1.4-0.7c0-0.7,0-0.7-0.7-0.7l-0.7,0.7
	C722.1,1304.1,722.1,1304.8,722.1,1304.8z M735.8,1306.2l-1.4-0.7v-0.7c0-0.7,0.7-1.4,1.4-1.4l1.4,1.4
	C737.2,1305.5,736.5,1306.2,735.8,1306.2z M727.8,1307.7v-0.7l2.9-1.4c0-0.7-0.7-0.7-2.2-0.7c-1.4,0-1.4,0-1.4,1.4L727.8,1307.7z
	 M713.5,1308.4l1.4-1.4h-1.4l-1.4,0.7C712,1308.4,712.7,1308.4,713.5,1308.4z M674.6,1311.3v-0.7c0-0.7,0-0.7-0.7-0.7
	s-0.7,0-0.7,0.7L674.6,1311.3z M707.7,1313.4c0.7,0,0.7,0,0.7-0.7s-1.4-2.2-2.9-2.2h-0.7l0.7,2.2
	C706.3,1313.4,707,1313.4,707.7,1313.4z M699.1,1313.4c0.7,0,1.4-0.7,1.4-1.4s0-0.7-0.7-0.7l-1.4,0.7L699.1,1313.4z M623.6,1314.1
	c0.7,0,1.4-0.7,2.2-1.4l0.7-0.7l-0.7-0.7l-2.2,1.4l-0.7,1.4H623.6z M686.9,1319.9l1.4-1.4c0,0,0-0.7-0.7-0.7l-0.7,0.7V1319.9z
	 M691.9,1321.3l1.4-0.7v-1.4c0-0.7,0-0.7-0.7-0.7l-0.7,0.7c-0.7,0-1.4,0.7-1.4,1.4L691.9,1321.3z M704.8,1323.5h-2.2
	c-0.7,0-1.4-0.7-1.4-1.4c0,0,0-0.7,0.7-0.7c0.7,0,0.7,0.7,2.2,0.7L704.8,1323.5z M683.3,1328.5l1.4-0.7c0-0.7,0-0.7-1.4-0.7
	c-0.7,0-1.4,0-1.4,0.7L683.3,1328.5z M673.9,1331.4l2.2-1.4l0.7-1.4h-0.7l-1.4,0.7l-0.7,1.4V1331.4z M666,1331.4l2.2-2.2h-0.7
	c-0.7,0-1.4,0.7-1.4,1.4V1331.4L666,1331.4z M676.1,1339.3c-0.7,0-0.7,0-0.7-0.7c0-1.4,0.7-1.4,1.4-1.4s0.7,0,0.7,0.7L676.1,1339.3z
	 M650.2,1345.1l2.9-1.4h0.7c1.4,0,1.4,0,1.4-0.7s0-1.4,0.7-1.4l0.7-0.7h-0.7c-0.7,0-2.2,0.7-3.6,2.2
	C650.9,1343.6,650.2,1344.3,650.2,1345.1L650.2,1345.1z M671.7,1342.2H671c0-0.7,0.7-0.7,1.4-1.4h1.4l-0.7,0.7
	C673.2,1342.2,672.5,1342.2,671.7,1342.2z M662.4,1346.5c0,0,0.7,0,0.7-0.7s0.7-0.7,1.4-0.7h0.7v-0.7l-1.4-0.7c-0.7,0-1.4,0-2.2,0.7
	l-0.7,1.4L662.4,1346.5z M651.6,1355.1l-0.7-0.7v-1.4c0.7,0,1.4,0.7,1.4,1.4L651.6,1355.1z M1050.7,1296.9l-7.9-0.7l-4.3-0.7
	l-0.7-0.7l-2.2,0.7h-3.6c-0.7-0.7-0.7-0.7-8.6-2.2c-2.2-0.7-8.6-2.9-14.4-5.8l-9.3-4.3c-1.4,0-5.8-4.3-5.8-5v-0.7
	c0-0.7,0-0.7-0.7-0.7s-2.2-0.7-2.2-2.2c0-1.4-0.7-2.2-1.4-2.2h-1.4c-1.4,0-2.2,0-2.2-0.7s0.7-1.4,2.2-1.4h0.7l-1.4-1.4l-1.4-0.7
	l-1.4,1.4l-0.7-1.4c-0.7-0.7-0.7-2.2-1.4-3.6c0-0.7,0-0.7-0.7-0.7l-2.9-1.4c-1.4-2.2-7.2-10.1-7.2-11.5l-5.8-10.1
	c-2.2-1.4-4.3-6.5-4.3-8.6c0-0.7-0.7-2.9-2.2-4.3c-0.7-2.2-2.9-6.5-3.6-10.1l-3.6-10.1c-0.7-0.7-0.7-3.6-0.7-5.8
	c0-1.4-0.7-4.3-1.4-5c-1.4-2.9-3.6-17.3-3.6-25.2l-0.7-10.1c0-2.2,0.7-5.8,1.4-7.9c1.4-3.6,2.2-7.9,2.2-10.8l5.8-11.5
	c1.4-2.2,2.2-5,2.2-5.8c0-1.4,0.7-2.2,2.2-2.2c0.7-0.7,1.4-1.4,1.4-2.2c0-1.4,0.7-2.2,1.4-2.2c1.4-0.7,2.9-2.2,2.9-3.6l1.4-3.6
	c0.7,0,0.7,0,0.7-0.7v-0.7c0-0.7,1.4-2.9,2.9-4.3c2.2-2.2,3.6-5,3.6-5.8h2.9l-1.4-2.2l1.4-0.7c0.7,0,2.2,0,3.6-0.7l1.4-1.4l-1.4-2.2
	l1.4-2.2c0.7-1.4,2.2-2.9,3.6-4.3c0.7-1.4,2.9-2.2,3.6-2.2c2.2,0,2.2-0.7,2.2-2.9v-2.2c0-1.4,0.7-2.2,2.2-2.9l6.5-5
	c2.2-2.2,5-3.6,6.5-4.3c1.4,0,2.9-0.7,3.6-1.4c0-0.7,0.7-0.7,1.4-0.7c1.4,0,1.4,0,1.4,0.7v0.7l1.4-0.7l2.2-2.2
	c0-0.7-1.4-0.7-2.9-0.7h-0.7c-0.7,0-0.7,0-0.7-0.7v-0.7c0-0.7,0.7-1.4,1.4-1.4s1.4-0.7,1.4-1.4c0-0.7,0.7-0.7,1.4-0.7
	c1.4,0,1.4-0.7,1.4-1.4l0.7,0.7l1.4,0.7c0.7,0,1.4-0.7,2.9-2.9c2.2-2.9,9.3-7.2,11.5-7.2h0.7c0.7,0,1.4-0.7,2.9-2.2
	c2.2-2.2,5.8-3.6,7.9-3.6l2.9,0.7c1.4,0,3.6-1.4,3.6-2.9c0-0.7,1.4-2.2,7.2-3.6l7.2-1.4l0.7,0.7l-0.7,0.7c0,0.7,0,1.4,0.7,1.4
	c0.7,0,0.7,0,0.7-0.7s1.4-0.7,2.2-0.7l5-0.7c2.2,0,5,0.7,6.5,1.4l2.2,0.7l1.4-0.7c1.4,0,5.8,0.7,12.2,3.6c1.4,0.7,5,2.2,7.9,4.3
	l5.8,2.9c0.7,0,2.2,0.7,2.2,1.4c0,0.7,0.7,1.4,1.4,1.4c1.4,0,16.5,14.4,20.9,20.1c2.2,2.2,3.6,5,3.6,5.8l0.7,2.2
	c0.7,0,1.4,4.3,2.2,8.6c0,4.3,0.7,9.3,2.2,10.8l1.4,2.9l-2.9,8.6c-1.4,0-4.3,3.6-4.3,5.8h-1.4c-0.7,0-9.3,7.9-10.1,10.1
	c0,0.7-0.7,0.7-1.4,0.7c-1.4,0-5,2.9-8.6,7.2c-2.9,2.9-6.5,5-7.2,5l-0.7-0.7c-0.7,0-1.4,1.4-1.4,2.9s-1.4,2.9-4.3,3.6
	c-1.4,0-2.9,2.9-2.9,4.3c0,0.7-2.2,2.9-5,4.3c-2.9,2.2-5.8,3.6-5.8,4.3c0,0.7-0.7,0.7-1.4,0.7h-0.7l-0.7,0.7c0,0.7-1.4,2.2-2.9,2.2
	c-4.3,1.4-7.9,2.9-7.9,3.6l0.7,0.7h-0.7c-1.4,0-6.5,2.9-6.5,3.6s0.7,0.7,0.7,0.7l1.4-0.7c0,0.7-2.9,2.2-5.8,4.3l-10.1,5
	c0-0.7,0-1.4-0.7-1.4c-0.7,0-1.4,0.7-1.4,1.4c-0.7,1.4-1.4,2.2-2.2,2.2l-2.9,0.7c-0.7,0.7-2.9,2.2-5,2.9c-2.9,0.7-7.2,2.9-11.5,5
	l-7.9,2.9h-0.7c-0.7,0-2.2,0.7-3.6,2.2c-1.4,2.2-4.3,3.6-5,3.6l-6.5,0.7c-2.2,0-2.9-0.7-3.6-1.4h-4.3c-2.9,0-5-2.2-7.9-7.2l-2.9-3.6
	c-0.7,0-1.4,0.7-1.4,2.2l0.7,5.8c0.7,7.9,0.7,11.5,1.4,12.9c0,0,0.7,1.4,0.7,3.6c0.7,7.2,3.6,17.3,7.2,22.3l2.9,5
	c0,2.9,7.2,9.3,9.3,9.3l4.3,0.7c2.9,0.7,10.1,1.4,16.5,1.4c3.6,0,6.5,0,7.9-0.7c0.7-0.7,1.4-0.7,2.9-0.7h1.4c0.7,0,2.9-0.7,3.6-1.4
	l1.4-0.7h0.7c0,0,0.7,0,0.7-0.7c0-0.7,0.7-1.4,2.2-1.4c0.7,0,2.2,0.7,2.2,1.4c0.7,0,0.7-0.7,1.4-1.4l0.7-2.9c0,0-0.7,0-0.7,0.7
	c0,0.7,0,1.4-0.7,1.4l-0.7-0.7l2.2-2.2l0.7,0.7l2.2,0.7c0.7,0,0.7-0.7,0.7-2.2c0-0.7,0.7-1.4,1.4-1.4v2.2l2.9-2.2
	c2.2-1.4,4.3-2.9,4.3-3.6h1.4c2.2,0,2.2,0,2.2-1.4v-0.7c0-2.2,2.9-2.9,8.6-2.9c3.6-0.7,5-1.4,5-4.3c0-2.2,0.7-2.9,1.4-2.9
	s1.4,0.7,1.4,1.4l0.7,0.7l0.7-0.7c0-1.4,0-2.2-0.7-2.9l-0.7-1.4h1.4c0.7,0,1.4,0.7,1.4,1.4s0,1.4,0.7,1.4c0.7,0,2.2-0.7,3.6-2.9
	l2.2-2.9c-2.9,0-5,0-5-1.4c0-0.7,1.4-1.4,2.9-1.4c2.2-0.7,3.6-1.4,4.3-3.6l1.4-2.2h1.4l-1.4,1.4h-0.7l0.7,0.7l-0.7,1.4
	c-0.7,0.7-0.7,1.4-0.7,2.2l3.6-2.2c0.7-0.7,1.4-1.4,1.4-2.2h-0.7l-0.7-0.7c0-0.7,2.2-2.9,4.3-4.3c2.2-1.4,4.3-2.9,4.3-3.6
	c0-0.7,0.7-0.7,1.4-0.7l1.4-0.7l3.6-3.6l2.2-1.4c0.7,0,1.4,0,1.4,0.7l0.7,0.7l4.3-2.9c0.7,0,1.4-0.7,1.4-1.4v-0.7
	c0-0.7,0-0.7-0.7-0.7l-1.4,1.4c0,0.7-0.7,1.4-1.4,1.4c-0.7,0-1.4-0.7-1.4-1.4c0-0.7,0.7-1.4,2.2-2.2c1.4-0.7,2.9-1.4,2.9-2.2
	l2.9-2.9l1.4-0.7l0.7,0.7l-2.2,2.2c0,0.7,0.7,0.7,1.4,0.7h0.7c0.7-0.7,0.7-1.4,0.7-2.9l0.7-1.4l2.9-1.4c1.4-1.4,2.2-2.2,3.6-2.2
	c0.7,0,1.4,0.7,1.4,2.2c0.7,0,1.4-0.7,2.2-2.2c1.4-2.2,2.9-3.6,2.9-4.3c5-2.9,7.2-5.8,7.2-6.5l-0.7-1.4l0.7-0.7
	c1.4,0,1.4-0.7,1.4-1.4v-0.7h2.9c0.7,0,0.7,0,0.7-0.7c0-1.4,0-2.2,0.7-2.2h1.4l-0.7,0.7v1.4l3.6-1.4c1.4-0.7,4.3-1.4,7.2-1.4
	c2.9,0,4.3,0,4.3-0.7c-0.7,0-0.7,0-0.7-0.7s0-0.7,1.4-1.4l1.4-0.7l0.7,0.7l1.4,0.7h0.7c0-0.7,0-1.4-1.4-1.4l-1.4-2.9h0.7
	c0.7,0,2.9-1.4,2.9-2.9c0-0.7,0-0.7-0.7-0.7l-2.9,2.9c-1.4,1.4-2.9,2.2-3.6,2.2c-0.7,0-1.4,1.4-2.9,2.9l-2.2,1.4l-1.4-2.2
	c0-1.4,1.4-2.9,2.9-2.9l1.4-0.7v-1.4c0-0.7,0.7-0.7,2.2-0.7c0.7,0,1.4-0.7,1.4-1.4v-1.4h3.6l2.9-1.4l2.9,1.4l-1.4,1.4v0.7l4.3,2.2
	l0.7-0.7v-0.7h0.7c0.7,0,1.4-0.7,1.4-1.4c0-0.7,1.4-0.7,2.2-0.7c1.4,0,2.9-1.4,3.6-2.2c0.7-1.4,1.4-2.2,2.2-2.2c0.7,0,0.7,0,0.7,0.7
	l-2.2,5.8l0.7,0.7c0.7,0,1.4,1.4,1.4,2.2l-0.7,1.4h-0.7c-1.4,0-6.5,2.2-7.2,4.3v0.7h0.7v0.7c0,0.7-0.7,1.4-1.4,2.2l-8.6,2.9
	c-0.7,0-2.2-0.7-2.2-1.4l-1.4,0.7l-0.7,1.4h2.9c1.4,0,2.2,0.7,2.2,0.7v0.7c-0.7,0.7-1.4,2.9-1.4,3.6v0.7h0.7c0.7,0,0.7-0.7,0.7-1.4
	v-0.7h1.4c2.9,0,5,0,5-0.7l-0.7-1.4l-2.9,1.4c0-1.4,2.9-2.9,5-2.9h2.9l-0.7,1.4c-0.7,0-0.7,0.7-0.7,1.4l0.7,1.4l4.3-2.9v0.7
	c0,0.7,0,1.4-0.7,2.2l-4.3,0.7c-2.2,0-5,3.6-5,6.5l0.7,2.9l-1.4,0.7c-1.4,0.7-1.4,1.4-1.4,2.2v1.4l-0.7-0.7c-1.4,0-2.2-0.7-2.2-2.2
	c0-0.7,0-0.7-0.7-0.7c-0.7,0-1.4,0-2.9,1.4l-1.4,2.9l-0.7,0.7l0.7,0.7c0.7,0,1.4-0.7,1.4-2.2s0.7-2.2,1.4-2.2c0.7,0,1.4,1.4,2.2,2.9
	c0,1.4,0,2.2-1.4,2.2c-0.7,0-0.7,0-0.7,0.7v1.4c0,0.7,0,0.7-1.4,0.7h-0.7l-0.7,0.7h-3.6l1.4,2.9l-2.2,0.7c-2.2,0-2.2,1.4-2.2,2.2
	c0,1.4-0.7,2.2-3.6,3.6c-2.2,0.7-4.3,1.4-4.3,2.2h-0.7c-0.7,0-1.4,0-1.4,0.7c0,0.7-0.7,0.7-2.2,0.7c-1.4,0-2.2,0.7-2.2,0.7v0.7
	l0.7,0.7l1.4-0.7v0.7c0,0.7-0.7,1.4-1.4,1.4c-2.2,0.7-4.3,2.2-4.3,4.3l0.7,2.9c0.7,0.7,0.7,1.4,0.7,2.2v1.4l0.7-0.7
	c1.4,0,2.2-0.7,2.2-1.4s0.7-2.2,1.4-2.2h1.4c0.7,0,1.4,0,1.4,0.7l-0.7,0.7c-0.7,0-2.2,1.4-2.2,2.9c-0.7,1.4-1.4,1.4-2.9,1.4
	l-3.6-0.7l-2.2-0.7v2.9h-1.4c-0.7,0-0.7,0-0.7,0.7c0,2.2-5.8,6.5-7.9,7.2l-3.6,1.4l-2.9,2.2c-0.7,0-0.7,1.4-0.7,2.9s0,2.9,0.7,3.6
	l0.7,0.7l-0.7,1.4h-1.4c-1.4,0-2.9-0.7-2.9-2.2c0-0.7-0.7-0.7-0.7-0.7c-0.7,0.7-0.7,2.2-0.7,2.9c0,2.2,0.7,3.6,1.4,3.6v-0.7
	c0-1.4,0.7-1.4,2.9-1.4c2.2,0.7,3.6,0.7,3.6,1.4c0,0.7-2.2,1.4-3.6,1.4c-0.7,0-0.7,0-0.7,1.4c0,0.7,0,0.7,0.7,0.7l2.2-0.7l3.6-2.9
	c0-0.7,0.7-1.4,1.4-1.4l0.7,0.7c0,1.4-2.9,2.9-5.8,5.8c-2.9,2.9-5.8,4.3-6.5,4.3h-0.7c0-0.7-0.7-1.4-1.4-1.4c-0.7,0-1.4,0.7-1.4,1.4
	c0,0.7,0.7,0.7,0.7,0.7c0.7,0,0.7,0,0.7,0.7s-1.4,2.2-4.3,4.3c-2.2,2.2-4.3,4.3-4.3,5l-0.7,1.4l-0.7-0.7c-1.4,0-1.4,0-1.4,0.7
	c0,2.2-4.3,6.5-5.8,6.5l-0.7,0.7l0.7,0.7c0,0.7,0,1.4-0.7,1.4h-0.7c-2.2,0-8.6,2.9-16.5,6.5c-4.3,2.2-9.3,4.3-11.5,4.3
	s-4.3,0.7-4.3,1.4c-0.7,0.7-2.9,0.7-4.3,1.4c-0.7,0-2.2,0.7-2.2,1.4v0.7l-0.7,0.7c-0.7,0-0.7-0.7-0.7-1.4l-0.7-0.7l-1.4,1.4
	l-1.4-0.7l-1.4-1.4v0.7c0,1.4,0,2.2-1.4,2.2l-2.2-0.7c-1.4,0-2.9,0-3.6,0.7l-0.7,0.7l-0.7-0.7c-0.7,0-0.7,0-0.7,0.7s0.7,1.4,1.4,1.4
	h0.7L1050.7,1296.9z M1050.7,1037.2l-0.7-0.7l0.7-1.4c0.7,0,1.4,0.7,1.4,1.4L1050.7,1037.2z M1065,1038.7v-1.4c0-0.7,0-0.7-0.7-0.7
	s-0.7,0-0.7,0.7L1065,1038.7z M994.6,1078.2l1.4-0.7c0-0.7,0-1.4-0.7-1.4l-0.7,1.4V1078.2z M1008.2,1143l6.5-2.9
	c2.9-2.2,6.5-3.6,7.2-4.3c0-0.7,1.4-0.7,2.9-0.7c0.7,0,2.9-1.4,4.3-2.9s3.6-2.2,5-2.9c2.2,0,2.9-0.7,2.9-2.2v-1.4h0.7l1.4-0.7
	l0.7-1.4l2.9,1.4c0-0.7,1.4-1.4,2.9-2.9s2.2-2.2,2.2-2.9v-0.7c0-0.7,0-0.7,1.4-0.7l1.4,2.9v1.4c0.7,0,1.4-0.7,2.2-1.4
	c1.4-0.7,2.2-2.2,2.2-2.9c-0.7,0-0.7,0.7-1.4,1.4l-1.4,0.7v-1.4c0-2.2,0.7-3.6,3.6-5.8l5-2.9c2.2-0.7,4.3-2.2,6.5-5.8
	c1.4-1.4,2.2-2.2,2.9-2.2l0.7,0.7l1.4-1.4c2.2-1.4,5.8-3.6,9.3-5c0.7-0.7,1.4-1.4,1.4-2.2v-3.6l2.2,0.7c1.4,0,2.9-0.7,4.3-2.9
	c2.2-2.2,2.9-4.3,2.9-5.8c0-0.7,0-1.4-0.7-1.4h-0.7c-0.7,0.7-3.6,0.7-6.5,0.7c-5,0.7-7.2,0.7-8.6,2.2l-5.8,1.4
	c-2.2,0.7-5,2.9-6.5,3.6l-5,3.6c-1.4,0-3.6,0.7-4.3,1.4c0,0.7-2.2,1.4-3.6,2.9c-0.7,1.4-2.9,2.2-4.3,2.2c-0.7,0-1.4,0-1.4,0.7
	c0,0.7-1.4,2.2-3.6,2.9c-1.4,1.4-2.2,2.2-2.2,2.9v0.7c0,1.4-2.2,2.9-4.3,2.9h-0.7c-1.4,0-5,2.9-5,5c0,2.2-5,7.2-6.5,7.2l-1.4,1.4
	c-0.7,0.7-2.2,2.2-4.3,2.2c-1.4,0.7-2.9,1.4-2.9,2.2c0,0.7,0,1.4,1.4,2.2c0,0.7-1.4,2.9-7.2,8.6l-0.7,3.6L1008.2,1143z
	 M1052.8,1091.9l2.9-2.2h-1.4l-0.7,0.7l-0.7-0.7l0.7-2.9l-2.2,1.4l-0.7-0.7l0.7,2.2C1052.1,1091.2,1052.1,1091.9,1052.8,1091.9
	L1052.8,1091.9z M985.9,1092.6c0.7,0,1.4,0,1.4-0.7l-0.7-1.4l-1.4,2.2H985.9z M1062.9,1104.8h-1.4l0.7-0.7h2.2
	C1064.3,1104.8,1063.6,1104.8,1062.9,1104.8L1062.9,1104.8z M1036.3,1108.4c0.7,0,1.4-0.7,1.4-1.4s-0.7-0.7-1.4-0.7l-1.4,1.4
	c0,0.7,0,0.7,0.7,0.7H1036.3L1036.3,1108.4z M1032.7,1113.5v-1.4c0,0,0-0.7,0.7-0.7c0.7,0,0.7,0.7,0.7,0.7L1032.7,1113.5z
	 M1132.6,1114.2c0.7,0,1.4,0,1.4-0.7s0-1.4-0.7-1.4l-0.7,1.4L1132.6,1114.2L1132.6,1114.2z M1024.8,1117.1c0.7,0,1.4,0,2.2-0.7
	c0-0.7,0-0.7-0.7-0.7c-0.7,0-1.4,0-1.4,0.7V1117.1z M1124.7,1118.5c0.7,0,1.4-0.7,1.4-1.4l-1.4-0.7l-0.7,0.7
	C1124,1117.8,1124,1118.5,1124.7,1118.5z M1032.7,1119.9h-1.4c0-0.7,0.7-1.4,1.4-2.2h0.7v0.7L1032.7,1119.9z M1111.8,1130l1.4-0.7
	l2.2-2.2l-1.4-0.7c-0.7,0.7-2.2,2.2-2.2,2.9V1130L1111.8,1130z M1001.7,1135.1l1.4-0.7h-2.9L1001.7,1135.1z M1103.2,1135.8
	c0-0.7-0.7-0.7-1.4-1.4h-0.7l-0.7,0.7c0,0.7,0.7,0.7,1.4,0.7H1103.2L1103.2,1135.8z M1005.3,1144.4c0.7,0,1.4-0.7,1.4-1.4
	c0-0.7,0-0.7-0.7-0.7c0,0-0.7,0-0.7,0.7l-0.7,0.7L1005.3,1144.4z M1195.9,1147.3c-0.7,0-1.4-0.7-2.2-1.4c0-0.7,0-1.4,0.7-2.2
	c1.4,0,2.2-0.7,2.2-0.7c0.7,0,1.4,0.7,1.4,1.4l-1.4,0.7c-0.7,0-0.7,0.7-0.7,0.7l0.7,0.7L1195.9,1147.3z M1188.7,1150.9v-2.9l3.6-0.7
	v0.7c0,0.7-0.7,1.4-1.4,2.2L1188.7,1150.9z M1201,1150.2v-0.7l0.7-1.4c0.7,0,0.7,0.7,0.7,1.4L1201,1150.2z M1188.7,1155.2l-0.7-0.7
	l-1.4-0.7l-1.4,0.7l-0.7,0.7H1188.7L1188.7,1155.2z M1165,1160.2h-0.7l0.7-1.4l2.2-1.4l0.7,0.7l-0.7,0.7
	C1166.4,1160.2,1165,1160.2,1165,1160.2L1165,1160.2z M1187.3,1161.7l1.4-0.7h-1.4c-1.4,0-1.4-1.4-1.4-2.2l0.7-1.4l-1.4,0.7
	l-1.4,2.2l0.7,0.7L1187.3,1161.7z M1180.1,1162.4l1.4-0.7l-0.7-0.7l-2.9,1.4H1180.1L1180.1,1162.4z M1196.6,1167.4h-0.7v-2.2h0.7
	V1167.4z M1172.2,1166.7c1.4,0,2.2,0,2.2-0.7c0-0.7-1.4-0.7-2.2-0.7l-0.7,0.7C1171.5,1166,1171.5,1166.7,1172.2,1166.7z
	 M1063.6,1171l1.4-1.4l0.7-2.2c-0.7,0-1.4,0.7-2.2,2.2V1171z M1171.5,1171.7c0.7,0,2.2,0,2.9-0.7l0.7-0.7l-0.7-0.7L1171.5,1171.7z
	 M1175.8,1173.9l1.4-1.4l-0.7-0.7c-0.7,0-1.4,0.7-1.4,1.4C1175.1,1173.2,1175.1,1173.9,1175.8,1173.9z M1188,1178.2l4.3-5v0.7
	c0,0.7-0.7,1.4-1.4,2.2L1188,1178.2z M1144.1,1176.8l-1.4-0.7v-0.7l1.4-0.7h1.4l0.7,0.7L1144.1,1176.8z M1149.2,1176.8
	c0.7,0,1.4,0,1.4-0.7s0-1.4-0.7-1.4l-1.4,2.2H1149.2z M1167.2,1180.4c0.7,0,1.4-0.7,2.2-1.4l2.2-2.2c-1.4,0-0.7-0.7-2.9-0.7h-3.6
	c-0.7,0.7-0.7,1.4-0.7,2.2c0,0,0,0.7,0.7,0.7l0.7-0.7h-0.7v-0.7h0.7c0.7,0,1.4,1.4,1.4,2.2V1180.4L1167.2,1180.4z M1175.8,1178.2
	c0.7,0,1.4-0.7,1.4-1.4c0,0,0-0.7-0.7-0.7l-1.4,1.4L1175.8,1178.2z M1191.6,1179.6c-0.7,0-1.4,0-1.4-0.7c1.4,0,0.7-0.7,2.2-0.7
	c0.7,0,1.4-0.7,1.4-1.4c0,0,0-0.7,0.7-0.7s1.4,0.7,1.4,1.4s-0.7,1.4-1.4,1.4L1191.6,1179.6z M1183.7,1179.6c0,0,0.7,0,0.7-1.4
	l0.7-0.7l-0.7-0.7l-1.4,0.7l-0.7,1.4C1182.3,1179.6,1183,1179.6,1183.7,1179.6z M1157.8,1181.1l1.4-0.7c0-0.7,0-1.4-0.7-1.4
	c-1.4,0-2.2,0.7-2.2,1.4L1157.8,1181.1z M1173.6,1191.1l0.7-0.7c0.7-0.7,0.7-1.4,0.7-2.2v-0.7c-0.7,0-0.7,0.7-1.4,1.4V1191.1
	L1173.6,1191.1z M1133.4,1191.9l3.6-2.2h-0.7c-0.7,0-1.4,0.7-2.2,1.4L1133.4,1191.9z M1164.3,1196.2l2.9-1.4h2.2l1.4-2.2
	c0-0.7-0.7-1.4-2.2-1.4c-0.7,0.7-2.2,0.7-2.2,1.4c-0.7,1.4-1.4,2.2-2.2,2.2h-0.7v0.7L1164.3,1196.2z M1152.8,1196.2v-0.7
	c0-0.7-0.7-0.7-1.4-0.7c-0.7,0-0.7,0-0.7,0.7s0.7,0.7,1.4,0.7H1152.8z M1142.7,1199.1l1.4-2.2h-0.7l-1.4,1.4
	C1142,1199.1,1142,1199.1,1142.7,1199.1z M1132.6,1209.1l1.4-2.2h-0.7c-0.7,0-1.4,0-1.4,0.7
	C1131.9,1208.4,1131.9,1209.1,1132.6,1209.1z M1162.1,1211.3c-0.7,0-1.4,0-1.4-0.7l0.7-0.7l2.2,0.7
	C1163.6,1211.3,1162.8,1211.3,1162.1,1211.3L1162.1,1211.3z M1145.6,1214.2l0.7-0.7l-1.4-1.4l-0.7,0.7
	C1144.1,1213.4,1144.9,1214.2,1145.6,1214.2z M1158.5,1214.9c-0.7,0-0.7-0.7-0.7-1.4v-1.4l0.7,0.7V1214.9z M1148.5,1221.4
	c0.7,0,0.7-0.7,0.7-2.2s0-2.2-0.7-2.9h-0.7v2.2C1147.7,1219.9,1147.7,1221.4,1148.5,1221.4z M1150.6,1219.2c0.7,0,0.7-0.7,1.4-1.4
	c0-1.4,0-1.4-0.7-1.4L1150.6,1219.2z M1093.1,1219.9l-0.7-0.7v-2.2h0.7c0.7,0,0.7,1.4,0.7,2.2L1093.1,1219.9z M1144.1,1225
	c1.4,0,2.2-1.4,2.2-2.2c-0.7-0.7-2.9-1.4-4.3-1.4c-0.7,0-0.7,0.7-0.7,0.7c0,0.7,0.7,1.4,1.4,2.2L1144.1,1225z M1133.4,1232.1
	l1.4-0.7c0.7-0.7,2.9-2.2,5-2.9l2.2-1.4l-1.4-0.7c-0.7,0-2.2,0-2.2,0.7s-1.4,1.4-2.2,1.4c-1.4,0-2.2,0.7-2.2,2.2L1133.4,1232.1z
	 M1126.9,1238.6c0,0,0.7-0.7,0.7-2.2c0-0.7,0-1.4-0.7-1.4s-0.7,1.4-0.7,2.2S1126.2,1238.6,1126.9,1238.6z M1137,1239.3l-1.4-0.7
	c0-0.7,0-0.7,1.4-0.7c0.7,0,0.7,0,0.7,0.7L1137,1239.3z M1145.6,1242.9c-0.7,0-1.4,0-1.4-0.7l-0.7-4.3c0.7,0,0.7,0.7,1.4,1.4
	l1.4,2.9C1146.3,1242.9,1146.3,1242.9,1145.6,1242.9L1145.6,1242.9z M1124,1249.4l2.2-1.4h-2.2l-1.4,0.7
	C1122.6,1249.4,1123.3,1249.4,1124,1249.4z M1126.2,1252.3l1.4-0.7l1.4-2.9c0-0.7,0-0.7-0.7-0.7c0,0.7-0.7,0.7-0.7,0.7l-1.4,2.9
	V1252.3L1126.2,1252.3z M1111.8,1265.9c0.7,0,2.9-1.4,5-3.6c1.4-1.4,2.9-2.9,2.9-3.6v-0.7c-0.7,0-2.2,1.4-3.6,2.9s-3.6,2.9-4.3,2.9
	c-0.7,0-1.4,0-1.4,0.7S1111.1,1265.9,1111.8,1265.9z M1068.6,1296.1c-1.4,0-2.2-0.7-2.2-1.4s0.7-0.7,1.4-0.7h0.7
	c0.7,0,1.4,0.7,1.4,1.4L1068.6,1296.1z M1057.8,1296.9c-0.7,0-2.2,0-2.2-0.7c0-0.7,0.7-1.4,2.2-1.4h0.7c0.7,0,1.4,0.7,1.4,1.4
	C1060,1296.1,1059.3,1296.9,1057.8,1296.9z M1251.2,1302.6l-0.7-1.4c-0.7-2.2-5-4.3-7.9-4.3c-0.7,0-2.2,0-2.2-1.4
	c0-0.7-2.2-1.4-5-1.4c-3.6-0.7-3.6-1.4-3.6-2.9c0-2.2-0.7-2.9-2.2-2.9c-0.7,0-2.2-0.7-2.2-1.4c-0.7-1.4-5-3.6-6.5-3.6h-0.7
	c0-0.7-2.2-2.9-5-5.8c-2.9-2.9-5.8-6.5-6.5-9.3c-1.4-2.2-2.9-5.8-4.3-7.2l-1.4-5c0-0.7-1.4-2.2-2.2-2.2l-0.7-0.7l0.7-1.4l1.4-0.7
	l1.4,0.7l0.7,1.4c0.7,0,1.4-0.7,1.4-2.2c0-0.7-0.7-1.4-1.4-1.4h-1.4c0-0.7,0.7-1.4,2.2-2.2c2.2,0,2.2-0.7,2.2-3.6
	c0-2.9,0-4.3-1.4-4.3c-1.4-0.7-2.9-2.2-2.9-3.6l0.7-1.4v-2.2c0-0.7,0-1.4,0.7-1.4c0.7,0,0.7,0.7,0.7,1.4v1.4c0,2.2,0.7,3.6,0.7,3.6
	c1.4,0,1.4-2.9,1.4-5.8v-2.9l-0.7-1.4l-0.7,1.4l-0.7,0.7c-0.7,0-1.4-0.7-1.4-2.9c0-1.4,0.7-2.2,2.2-2.2c0.7,0,0.7,0,0.7,0.7v1.4
	l0.7-0.7l0.7-2.2c0-2.2-1.4-5-2.9-5l-0.7-0.7c0-0.7,0.7-0.7,1.4-0.7c0.7,0,1.4-0.7,1.4-2.2c0-2.2-0.7-2.9-0.7-2.9l-0.7-0.7l0.7-1.4
	c0.7-0.7,0.7-2.9,0.7-5c0-1.4,0.7-2.9,1.4-2.9c0,0,0.7,0,0.7-0.7c0-0.7-0.7-0.7-0.7-0.7h-1.4v-0.7c0-0.7,0-0.7,0.7-0.7l0.7-1.4v-0.7
	c-0.7-1.4-0.7-1.4-0.7-9.3c0-3.6-0.7-5.8-2.2-7.2c-0.7-0.7-0.7-1.4-0.7-2.2h1.4c0.7,0,1.4-2.2,1.4-7.9v-5c0-12.2,0-30.2,0.7-36
	l0.7-10.1v-9.3c0-2.9-0.7-3.6-2.2-3.6c-0.7-0.7-1.4-4.3-1.4-6.5l0.7-2.2c0.7,0,0.7,1.4,1.4,3.6l0.7,2.2c0.7,0,0.7-1.4,1.4-5.8
	c0-4.3,0-5.8-1.4-5.8c-0.7,0-1.4-1.4-1.4-2.9v-2.2c0-1.4,0.7-2.2,0.7-2.2l1.4,0.7c0.7,0,0.7-1.4,0.7-6.5c0-5,0-6.5-1.4-6.5
	c-0.7,0-1.4-1.4-1.4-2.9v-0.7c0.7,0,1.4,0.7,2.2,1.4l0.7,0.7l-0.7-4.3c-1.4,0-3.6-2.2-3.6-3.6v-1.4l2.9,2.9l-0.7-7.2
	c0-1.4-0.7-4.3-1.4-5l-0.7-2.9l0.7-2.9c1.4-2.9,2.9-4.3,5-4.3l2.2,0.7c0.7,0.7,2.9,1.4,5,1.4h2.2c2.9,0,5,0.7,5,1.4l1.4,1.4
	c1.4,0.7,4.3,2.9,7.2,5.8c2.2,2.2,5,4.3,5.8,4.3h1.4c1.4,0,5.8,3.6,5.8,5c0,0.7,1.4,1.4,2.2,2.2c1.4,0.7,1.4,1.4,1.4,2.2
	s0,2.2,0.7,3.6l2.2,2.9l-1.4-5l1.4-0.7c0.7,0,1.4,0.7,1.4,2.2c0.7,13.7,1.4,25.2,2.2,28.8l0.7-0.7l1.4-0.7c1.4,0,2.2,1.4,2.2,4.3
	l-0.7,4.3c0,2.2,0.7,3.6,1.4,3.6h0.7c1.4,0,1.4-1.4,1.4-2.2v-1.4l1.4-3.6c1.4-0.7,2.9-2.2,2.9-2.9l1.4-2.9l0.7-0.7l0.7,0.7
	c0,0.7,0,0.7,0.7,0.7c0.7,0,0.7-1.4,0.7-2.2c0-1.4,0.7-2.2,1.4-2.2l0.7-1.4c0-0.7,0.7-2.2,2.2-3.6l0.7-2.2c0-0.7-0.7-1.4-1.4-1.4
	l-0.7,0.7c-1.4,0-1.4,0-1.4-1.4c0.7-0.7,1.4-1.4,2.9-1.4l5.8-2.9l3.6-2.9c-2.2-2.2-2.9-3.6-2.9-4.3c0.7,0,0.7,0,0.7,0.7l0.7,0.7
	c0.7,0,2.9-1.4,3.6-3.6l1.4-2.9l-2.9,2.2c-0.7,0.7-0.7,1.4-1.4,1.4h-0.7c0,0,1.4-2.9,4.3-6.5l4.3-5l1.4,0.7c2.2,0,4.3-2.2,6.5-5
	v-1.4l-1.4,1.4l-2.2,0.7l3.6-5.8l-0.7-0.7h0.7c0.7,0,1.4,0,2.2-0.7l1.4-0.7l2.2,0.7c0.7,0,3.6-1.4,8.6-5.8l6.5-3.6h1.4l-1.4-0.7
	l-4.3,0.7l-1.4,0.7l-1.4-0.7l-0.7-0.7v2.2c0,1.4-0.7,2.2-2.2,2.2l-2.2-0.7l-1.4-0.7l0.7-0.7h1.4l2.9-1.4c0.7-1.4,2.2-2.9,2.9-2.9
	s2.9-0.7,4.3-2.2c1.4-1.4,4.3-2.9,5.8-2.9c1.4,0,3.6-0.7,5-2.2l2.9-0.7c0,0,0.7,0,2.2-1.4l5-1.4c0.7-0.7,3.6-1.4,5-1.4
	s2.9,0,3.6-0.7h5c2.9,0,5.8,0,7.2-0.7c2.9-0.7,5.8-0.7,7.9-0.7c1.4,0,2.9,0,3.6,0.7l3.6,0.7c2.9,0.7,5,1.4,6.5,2.9
	c1.4,1.4,2.9,2.9,4.3,2.9c0.7,0,1.4,0.7,2.2,2.2c0,1.4,0.7,2.2,2.9,2.2c1.4,0,2.2,0,2.2,0.7l-1.4,2.2c0,1.4,1.4,2.9,3.6,2.9
	c0.7,0,1.4,0.7,1.4,1.4l0.7,0.7l1.4,0.7l-0.7,2.2c0,2.2,0,2.9,0.7,2.9l1.4-1.4c0.7,0,0.7,0.7,1.4,1.4c0.7,0.7,1.4,1.4,2.2,1.4h0.7
	c0.7,0,1.4,0.7,1.4,2.2l-1.4,1.4c0,0.7,0.7,1.4,2.2,2.2s2.2,2.2,2.2,3.6l-0.7,1.4h-0.7c-2.9,0-4.3,0-4.3,1.4v0.7l-1.4,2.9
	c-1.4,0.7-2.9,2.2-4.3,3.6c-1.4,1.4-2.9,1.4-10.8,2.2c-9.3,0-12.2,0-17.3,2.2h-2.9l0.7-1.4l0.7-0.7v-0.7c0,0-1.4,0.7-2.2,2.2
	c-1.4,2.2-3.6,3.6-5,3.6l-1.4-0.7l-0.7-0.7v0.7c0,0.7,0,0.7-0.7,0.7h-1.4l2.2,2.2l-0.7,0.7h-0.7l-0.7-0.7c0,0-0.7,0-1.4,1.4
	c-0.7,0.7-2.2,2.2-2.9,2.2s-1.4,0-1.4,0.7v0.7c0,0.7,0,1.4-0.7,1.4s-2.2-0.7-2.2-1.4l-2.9,3.6l2.9-0.7l-1.4,2.2l-1.4,0.7l-2.2-2.2
	v2.2c0,2.2-1.4,4.3-3.6,4.3c-0.7,0-1.4,0-1.4,0.7v1.4c-0.7,0-1.4,0-1.4-0.7c-0.7-0.7-1.4-1.4-2.9-1.4c-0.7,0-1.4,0.7-1.4,1.4
	l0.7,0.7c0.7,0,0.7,0.7,0.7,1.4c0,0.7,0,0.7-0.7,0.7h-0.7l-0.7,0.7c-0.7,2.2-1.4,2.9-2.9,2.9h-2.2c-0.7,0-1.4,0-1.4,0.7v1.4
	c0,1.4-0.7,2.9-1.4,3.6c-1.4,0.7-2.9,3.6-2.9,5.8c0,0.7-0.7,1.4-1.4,1.4l-1.4,2.9c0,1.4-0.7,2.2-1.4,2.9l-1.4,0.7l0.7,2.2
	c0,1.4,0,2.2-1.4,2.2c-0.7,0-1.4,0-1.4-0.7c-0.7,0-1.4,1.4-2.9,2.9l-2.9,2.9l2.2,2.2l-2.9,2.9l-0.7-0.7c0-0.7-0.7-0.7-2.9-0.7
	c-1.4,0.7-2.2,1.4-2.2,2.2c0,0.7,0,0.7,1.4,0.7h0.7l-0.7,2.2c-0.7,1.4-1.4,2.2-2.2,2.2s-0.7,0-0.7-0.7l-0.7,2.9c0,2.9,0,5,0.7,5
	c0,0.7,0,1.4-2.2,2.9c-1.4,1.4-2.2,2.2-2.9,2.2c-1.4,0-4.3,2.9-4.3,5c0,0.7,0,0.7-0.7,0.7c-0.7,0-0.7,1.4-0.7,4.3v2.9l-0.7-0.7
	c-0.7,0-1.4,1.4-1.4,3.6v3.6c-0.7,0-1.4-0.7-1.4-1.4v-1.4l-1.4,2.2l-1.4,5c0,1.4-0.7,1.4-1.4,1.4c-0.7,0-1.4,0.7-1.4,1.4v0.7
	c0,0.7-0.7,2.9-1.4,3.6c-1.4,1.4-2.2,2.9-2.2,3.6c0,2.2-1.4,4.3-2.2,4.3s-0.7-0.7-0.7-1.4v-0.7c0-1.4-0.7-2.2-1.4-2.2l-0.7,0.7
	l0.7,0.7c0.7,0,1.4,2.9,1.4,5.8c0,4.3,0,5-2.2,7.2c-1.4,1.4-2.2,1.4-2.2,2.2l2.2,1.4l-1.4,2.9l2.2,2.2c0,0.7-0.7,1.4-1.4,1.4
	c-0.7,0-0.7,0-0.7-0.7s0-0.7-0.7-0.7c0,0-1.4,1.4-1.4,3.6l-2.2,6.5c-1.4,1.4-1.4,5-2.2,8.6c0,0.7-0.7,2.2-1.4,2.2
	c-1.4,0.7-2.2,1.4-2.2,2.2s0,1.4-0.7,1.4h-0.7l0.7,2.2l0.7,2.9c-0.7,0.7-1.4,12.9-1.4,18.7l0.7,19.4c0.7,0.7,0.7,1.4,1.4,5.8
	l2.2,5.8c0,0.7-1.4,1.4-2.9,1.4h-0.7c-1.4,0-1.4,0-1.4,2.2v1.4c0,1.4,0,2.2-0.7,2.9c-0.7,0.7-1.4,1.4-1.4,2.2s-1.4,1.4-2.9,1.4
	c-1.4,0-2.2-0.7-2.2-2.2v-2.2l-0.7,0.7c-0.7,0-0.7,0.7-0.7,1.4l1.4,2.9L1251.2,1302.6z M1327.4,1035.1l0.7-0.7c0-0.7,0-1.4-0.7-1.4
	s-0.7,0.7-0.7,1.4L1327.4,1035.1z M1307.3,1044.4l-0.7-0.7l0.7-0.7v-1.4h0.7l0.7,1.4C1308.7,1043.7,1308,1044.4,1307.3,1044.4
	L1307.3,1044.4z M1303.7,1051.6l1.4-0.7c0.7-0.7,1.4-1.4,1.4-2.2h-0.7C1305.1,1048.7,1303.7,1050.2,1303.7,1051.6L1303.7,1051.6z
	 M1300.1,1050.9v-0.7h-0.7c0-0.7,0-1.4,0.7-1.4l0.7,1.4L1300.1,1050.9z M1311.6,1058.8l1.4-1.4c0-0.7-0.7-1.4-1.4-1.4l-1.4-0.7
	l0.7,1.4C1311.6,1057.4,1311.6,1058.1,1311.6,1058.8h-0.7H1311.6z M1296.5,1058.8h-0.7v-0.7c0.7-0.7,0.7-1.4,1.4-1.4h0.7v0.7
	C1297.2,1058.8,1296.5,1058.8,1296.5,1058.8z M1323.8,1061l2.9-1.4l1.4-1.4l-2.9,1.4C1323.8,1060.3,1323.8,1061,1323.8,1061z
	 M1290,1061l0.7-1.4l0.7-0.7l-0.7,1.4L1290,1061z M1290.8,1065.3c0.7,0,2.9-1.4,4.3-2.9l0.7-1.4
	C1295.1,1061,1290.8,1064.6,1290.8,1065.3z M1308.7,1062.4l0.7-1.4h-0.7l-1.4,1.4H1308.7z M1385.7,1066.7l1.4-0.7l-0.7-1.4l-2.2,1.4
	C1384.3,1066,1384.3,1066.7,1385.7,1066.7L1385.7,1066.7z M1297.9,1076.1l0.7-2.2h-0.7l-1.4,1.4
	C1296.5,1076.1,1297.2,1076.1,1297.9,1076.1z M1350.4,1079.7c1.4,0,3.6-0.7,5.8-2.2l1.4-1.4l-0.7-1.4h-0.7c0,0-0.7,0-0.7,0.7
	l-0.7,0.7l-1.4-0.7l0.7,0.7c0,0.7-0.7,1.4-2.9,1.4l-2.2,1.4L1350.4,1079.7z M1344,1077.5l0.7-0.7l-1.4-1.4l-0.7,0.7L1344,1077.5z
	 M1279.2,1079.7c-0.7,0-0.7,0-0.7-0.7c0,0,0.7-1.4,2.2-1.4l1.4-0.7L1279.2,1079.7z M1207.3,1080.4l-0.7-1.4l0.7-0.7
	c0.7,0,0.7,0.7,0.7,0.7C1208,1079.7,1208,1080.4,1207.3,1080.4z M1315.9,1083.3l0.7-0.7l-1.4-1.4v0.7L1315.9,1083.3z M1335.3,1084
	l1.4-0.7c0-0.7,0-1.4-0.7-1.4l-1.4,1.4C1334.6,1083.3,1334.6,1084,1335.3,1084z M1259.1,1091.9l-0.7-2.9c0-1.4,0-2.9,0.7-2.9
	c0.7,0,0.7,1.4,0.7,2.9S1259.8,1091.9,1259.1,1091.9z M1274.2,1087.6c0,0-0.7,0-0.7-0.7c0-0.7,0.7-0.7,1.4-0.7v0.7
	C1274.9,1087.6,1274.2,1087.6,1274.2,1087.6L1274.2,1087.6z M1284.3,1094.1l0.7-0.7c0-0.7,1.4-2.2,2.2-2.9l0.7-0.7l-0.7-0.7
	l-2.2,1.4c-0.7,0.7-1.4,0.7-2.2,0.7h-0.7l0.7,1.4L1284.3,1094.1z M1318.8,1094.1c0.7,0,0.7,0,0.7-0.7l0.7-0.7l-0.7-0.7h-0.7
	c-0.7,0-0.7,0.7-0.7,1.4L1318.8,1094.1z M1322.4,1096.2c1.4,0,2.9-0.7,3.6-1.4l1.4-2.2h-1.4c-0.7,0-2.2,0.7-3.6,2.2l-0.7,1.4H1322.4
	z M1207.3,1095.5c-0.7,0-0.7-0.7-0.7-0.7l1.4-1.4l0.7,1.4L1207.3,1095.5z M1327.4,1098.4c0,0,1.4-0.7,1.4-1.4c0.7,0,1.4-1.4,1.4-2.2
	v-0.7c-0.7,0-1.4,0-2.2,0.7l-1.4,2.9C1326.7,1098.4,1326.7,1098.4,1327.4,1098.4L1327.4,1098.4z M1331.7,1098.4l2.2-3.6h-0.7
	l-2.2,2.2C1331,1098.4,1331,1098.4,1331.7,1098.4z M1257.7,1102.7c0.7,0,0.7-0.7,1.4-1.4l2.2-1.4c0,0-0.7-0.7-2.2-0.7
	c-1.4,0-1.4,0.7-1.4,2.2V1102.7z M1321,1104.8c0.7,0,1.4-0.7,2.9-2.2l1.4-2.9h-0.7C1323.1,1100.5,1321,1104.1,1321,1104.8z
	 M1276.4,1104.8l2.2-0.7l1.4-0.7l-1.4-0.7h-1.4l-2.2,1.4L1276.4,1104.8z M1312.3,1107.7l1.4-1.4c1.4-0.7,2.2-2.2,2.2-2.9
	c0,0,0-0.7-0.7-0.7c0,0.7-0.7,0.7-1.4,1.4l-1.4,2.9L1312.3,1107.7L1312.3,1107.7z M1288.6,1105.6l0.7-0.7l-0.7-1.4h-0.7l-1.4,0.7
	L1288.6,1105.6z M1271.3,1107l1.4-0.7l-4.3-2.2l0.7,1.4C1269.2,1106.3,1270.6,1107,1271.3,1107L1271.3,1107z M1258.4,1111.3l0.7-1.4
	l-1.4-3.6v5H1258.4L1258.4,1111.3z M1293.6,1109.2c0.7,0,1.4-0.7,1.4-1.4c0-0.7,0-0.7-0.7-0.7l-1.4,0.7L1293.6,1109.2z
	 M1322.4,1109.2c0.7,0,1.4-0.7,1.4-1.4l-0.7-0.7l-1.4,1.4L1322.4,1109.2z M1273.5,1109.9c0.7,0,0.7-0.7,1.4-1.4v-0.7
	c-0.7,0-1.4,0.7-1.4,1.4V1109.9z M1207.3,1112.8c-0.7,0-1.4-0.7-1.4-2.2s0-2.2,0.7-2.2l1.4,2.9C1208,1112,1208,1112.8,1207.3,1112.8
	L1207.3,1112.8z M1267.7,1117.1l2.2-0.7l1.4-1.4c0,0,0-1.4,0.7-2.2l1.4-1.4C1272.1,1111.3,1267.7,1115.6,1267.7,1117.1
	L1267.7,1117.1z M1315.2,1113.5c0.7,0,1.4,0,1.4-0.7c0-0.7,0-1.4-0.7-1.4l-1.4,0.7C1314.5,1113.5,1314.5,1113.5,1315.2,1113.5z
	 M1258.4,1114.9c0.7,0,0.7-0.7,0.7-1.4c0,0,0-0.7-0.7-0.7s-0.7,0.7-0.7,1.4v0.7H1258.4z M1206.6,1115.6l-1.4-0.7l1.4-1.4l0.7,1.4
	L1206.6,1115.6z M1205.9,1120.7l-0.7-1.4l1.4-0.7l0.7,0.7L1205.9,1120.7z M1262,1127.1l2.9-1.4l0.7,0.7v-0.7c0-0.7,0-0.7-0.7-0.7
	c-0.7,0-1.4,0-2.2,0.7L1262,1127.1z M1205.2,1129.3l-0.7-1.4l0.7-0.7l1.4,0.7C1206.6,1128.6,1205.9,1129.3,1205.2,1129.3z
	 M1205.9,1141.5c-0.7,0-0.7-0.7-0.7-2.2c0-0.7,0-1.4,0.7-1.4l0.7,1.4L1205.9,1141.5z M1290,1145.1l0.7-2.2h-0.7l-0.7,1.4
	C1289.3,1145.1,1289.3,1145.1,1290,1145.1z M1297.9,1145.8c0.7,0,0.7,0,0.7-0.7l-0.7-2.2h-0.7c-0.7,0-0.7,0.7-0.7,1.4v0.7
	L1297.9,1145.8z M1283.6,1150.9c0.7,0,0.7-0.7,0.7-1.4c0,0,0-0.7-0.7-0.7h-0.7l-0.7,0.7C1282.1,1150.9,1282.8,1150.9,1283.6,1150.9
	L1283.6,1150.9z M1289.3,1150.9l1.4-0.7c0-0.7,0-0.7-1.4-0.7l-1.4,0.7C1287.9,1150.9,1288.6,1150.9,1289.3,1150.9z M1266.3,1158.1
	c0.7,0,0.7-0.7,0.7-1.4l-0.7-0.7c-0.7,0-0.7,0-0.7,0.7L1266.3,1158.1z M1280.7,1159.5l0.7-1.4c0-0.7,0-1.4-0.7-1.4
	c-0.7,0-1.4,0.7-1.4,2.2L1280.7,1159.5z M1269.2,1160.2l0.7-1.4v-0.7h-0.7c-0.7,0.7-1.4,1.4-1.4,2.2H1269.2z M1290,1159.5l-0.7-1.4
	l-1.4,0.7c0,0.7,0.7,0.7,1.4,0.7L1290,1159.5L1290,1159.5z M1205.2,1163.8l-0.7-0.7c-0.7-0.7-0.7-1.4-0.7-2.2h0.7
	c0.7,0,0.7,0,0.7,0.7V1163.8z M1282.1,1171.7c0.7,0,1.4-0.7,1.4-1.4c0,0,0-0.7-0.7-0.7h-0.7l-0.7,2.2H1282.1L1282.1,1171.7z
	 M1278.5,1181.1c0.7,0,0.7-0.7,0.7-1.4l-0.7-0.7l-0.7,0.7C1277.8,1180.4,1277.8,1181.1,1278.5,1181.1z M1266.3,1199.1
	c0,0,0.7,0,0.7-0.7c0-0.7,0-0.7-0.7-0.7c0,0-0.7,0-0.7,0.7v0.7H1266.3z M1264.9,1203.4c0.7,0,0.7-0.7,0.7-1.4
	c-0.7-1.4-1.4-1.4-1.4-1.4c-0.7,0-0.7,0.7-0.7,1.4C1263.4,1202.7,1264.1,1203.4,1264.9,1203.4z M1262,1218.5c0.7,0,1.4-0.7,1.4-2.2
	l-0.7-1.4l-0.7,1.4V1218.5L1262,1218.5z M1261.3,1225.7l2.2-0.7l1.4-2.2c0-0.7-0.7-0.7-0.7-0.7c-1.4,0.7-2.9,1.4-2.9,2.9V1225.7z
	 M1458.9,1296.9c-1.4,0-2.9-0.7-3.6-1.4c-1.4-1.4-2.2-1.4-3.6-1.4l-1.4,0.7c-0.7,0-0.7-0.7-0.7-2.2l0.7-1.4h-0.7l-2.9,0.7l0.7,2.9
	l-1.4-0.7c-0.7-0.7-1.4-0.7-2.9-0.7h-1.4c-2.9,0-5-1.4-5-3.6l1.4-4.3h-1.4c-2.9,0-7.2-2.9-7.9-5c-0.7-2.2-5-6.5-7.2-6.5
	c-0.7,0-1.4,0-1.4-0.7l-4.3-7.9c-5.8-8.6-11.5-20.1-12.9-25.2c0-2.2-0.7-4.3-1.4-5c-2.2-2.2-4.3-15.1-4.3-19.4l0.7-1.4
	c0-0.7-0.7-0.7-2.2-0.7c-0.7,0-0.7,0-0.7-0.7s0.7-1.4,1.4-2.2c0.7,0,1.4-0.7,1.4-2.2c0-0.7-0.7-2.2-1.4-2.2
	c-1.4-0.7-2.9-10.1-2.9-15.8l0.7-4.3l0.7-2.2l-0.7-2.2c-0.7-2.2-0.7-4.3-0.7-5c0.7-0.7,0.7-2.2,0.7-3.6c0-2.2,0-3.6,0.7-3.6l0.7-1.4
	c0-1.4-1.4-3.6-2.2-3.6v-1.4c0.7-1.4,1.4-9.3,1.4-18c0-3.6,0.7-7.2,1.4-7.9l0.7-7.2v-2.9c0-2.2,0-3.6,0.7-4.3l0.7-0.7l-0.7-2.9
	c-0.7-1.4-1.4-2.2-1.4-3.6l0.7-1.4c0.7-0.7,1.4-3.6,1.4-5.8s0-3.6,0.7-4.3c0.7,0,0.7-4.3,0.7-8.6c0-5,0-8.6,1.4-10.8l1.4-5.8
	c0-1.4,0-2.9,0.7-3.6c0.7-0.7,1.4-2.9,1.4-4.3l0.7-5c2.2-4.3,4.3-12.9,4.3-14.4s0.7-2.2,0.7-2.2c0.7,0,1.4-1.4,1.4-2.9l1.4-6.5
	c0.7-1.4,1.4-5.8,2.2-9.3l2.9-20.1l2.9-2.9c2.2-2.2,2.9-3.6,5-3.6l2.9,0.7c2.9,0.7,5.8,1.4,6.5,2.2l2.9,1.4c1.4,0,3.6,1.4,5,2.9
	s2.9,2.9,4.3,2.9c0.7,0,2.9,1.4,4.3,2.9c2.2,2.2,4.3,2.9,4.3,2.9h0.7v1.4l2.2,4.3c2.9,2.9,4.3,5,4.3,7.9l-1.4,5
	c0,0.7,0.7,0.7,2.2,0.7c0.7,0,2.2,0.7,2.2,1.4c0.7,1.4,1.4,4.3,1.4,6.5l-0.7,2.2c-0.7,0-0.7,0.7-0.7,1.4c0,0.7,0,0.7,0.7,0.7h0.7
	c0.7,0,0.7,2.2,0.7,4.3c0,3.6,0,7.2-1.4,8.6c-0.7,0.7-0.7,2.2-0.7,2.9l0.7,1.4l-0.7,0.7c-0.7,0-1.4,0.7-1.4,2.2
	c-0.7,1.4-0.7,2.9-1.4,2.9c-1.4,0-2.2,0.7-2.2,1.4l0.7,1.4c0.7,0.7,0.7,2.2,0.7,3.6l-0.7,0.7l-0.7-1.4c-0.7-1.4-1.4-2.2-2.2-2.2v1.4
	l-1.4,6.5c-0.7,2.2-0.7,5-0.7,5.8v1.4c0,0.7,0,0.7-1.4,0.7h-3.6l0.7,0.7c1.4,0.7,2.9,0.7,3.6,0.7h0.7c0.7,0,1.4,0,1.4,0.7l-1.4,3.6
	c-0.7,1.4-1.4,2.2-2.2,2.2h-0.7c-1.4,0-2.2,1.4-3.6,3.6l-1.4,2.9c0,0.7,0.7,0.7,2.2,1.4l2.9,1.4c-5,6.5-7.9,10.1-7.9,12.2l0.7,0.7
	c0.7,0,2.2-2.2,2.2-3.6c0-0.7,0-0.7,0.7-0.7l0.7,1.4c0,1.4-1.4,5.8-2.9,6.5c-0.7,0.7-1.4,1.4-1.4,2.9s0.7,2.2,1.4,2.2h1.4
	c0.7,0,0.7,0.7,0.7,1.4c-0.7,0.7-0.7,1.4-0.7,2.2l-2.9-1.4c-0.7,0-0.7,0.7-0.7,2.9s0,2.9,0.7,2.9l2.9-1.4l-0.7,2.2
	c0,2.2-0.7,3.6-1.4,3.6v-1.4c-0.7,0-0.7,0.7-1.4,1.4c-0.7,0.7-0.7,2.2-0.7,3.6v1.4c0,2.2-0.7,4.3-1.4,5l-0.7,1.4l0.7,0.7
	c0.7,0,0.7,0.7,0.7,2.2v2.9c0,4.3,0,5.8,1.4,5.8c0.7,0.7,1.4,1.4,1.4,2.2h-1.4c-1.4,0-2.2,5-2.2,17.3c0.7,8.6,0.7,12.9,1.4,13.7
	l0.7,0.7l-0.7,1.4c-0.7,0.7-1.4,2.2-1.4,3.6s0.7,2.9,1.4,3.6c1.4,0,2.2-0.7,2.2-1.4l-1.4-0.7c-0.7,0-0.7-0.7-0.7-1.4
	c0-1.4,0.7-2.2,1.4-2.2c1.4,0,5-2.9,5-5c0-0.7,0.7-2.2,2.2-3.6c0.7-0.7,2.2-1.4,2.2-2.2c0-0.7,1.4-2.9,2.9-4.3s2.9-3.6,2.9-4.3
	c0-2.2,0.7-3.6,2.2-3.6c0.7,0,0.7-0.7,0.7-2.2v-0.7c0-0.7,0.7-1.4,2.9-2.2c1.4-0.7,2.9-2.2,2.9-2.9c0-0.7,1.4-0.7,2.2-0.7h1.4
	c0.7,0,1.4,0,1.4-0.7h-1.4l-1.4-2.9l-1.4-2.2l1.4-2.2l-0.7-0.7l2.2-1.4c0.7,0,2.2-1.4,2.2-2.2l0.7-1.4l1.4,0.7l-2.2,2.9l1.4,0.7
	c0.7,0,0.7,0,0.7-0.7c0-1.4,5-7.2,6.5-7.2c0.7,0,1.4-1.4,1.4-2.9c0.7-2.9,2.2-4.3,5.8-7.2c4.3-2.2,7.2-5.8,7.2-7.9l-0.7-1.4l0.7-0.7
	l0.7,0.7c1.4,0,2.2,0,2.2-0.7c0-0.7-0.7-1.4-1.4-1.4c-0.7,0-0.7,0-0.7-0.7c0-0.7,0.7-0.7,1.4-0.7h1.4c0.7,0,0.7,0,0.7-0.7v-1.4
	c0-1.4,0-2.9,0.7-2.9v-1.4c0-0.7,0.7-2.2,2.2-3.6s2.9-4.3,3.6-5.8c0-1.4,0.7-2.9,1.4-2.9c0,0,1.4-0.7,2.2-2.9
	c0.7-1.4,2.2-2.2,2.9-2.2c0.7,0,1.4-1.4,1.4-3.6c0.7-1.4,1.4-2.9,2.9-2.9c0.7,0,0.7-0.7,0.7-0.7v-0.7c0-1.4,3.6-7.9,5-7.9
	c0.7,0,0.7,0.7,0.7,1.4c0,0.7,0,0.7,0.7,0.7l1.4-0.7l0.7-2.2v-3.6c0-1.4,0-2.9,1.4-2.9l1.4,1.4c2.2,0,5-2.9,6.5-5v-2.2
	c-0.7,0-1.4,0.7-2.2,2.2c-1.4,2.2-2.2,2.9-2.9,2.9s-0.7-0.7-0.7-2.2c0-0.7,0.7-1.4,1.4-1.4l1.4-2.9c0.7-1.4,1.4-2.2,2.2-2.2h0.7
	c0.7,0,0.7,0,0.7-0.7l0.7-2.9l1.4-1.4l2.9,1.4c0-0.7,0-1.4-0.7-2.2l-0.7-0.7c0-1.4,2.2-2.9,3.6-2.9c0.7,0,1.4-0.7,2.2-1.4l0.7-1.4
	l1.4,1.4v-0.7c0-1.4,0-2.2-0.7-2.9l-0.7-0.7c0-2.2,2.2-5.8,6.5-10.1l2.2-4.3c0-0.7,0-0.7,1.4-0.7c0.7,0,2.2-1.4,2.9-2.9
	c0.7-2.2,2.2-3.6,2.9-3.6c1.4-0.7,2.2-1.4,2.2-2.2l1.4-2.9c2.2-1.4,4.3-7.2,4.3-9.3l-0.7-1.4l1.4,2.2c0.7,0,2.2-1.4,4.3-3.6
	c2.2-2.2,3.6-4.3,3.6-5c0-0.7,0.7-2.2,1.4-2.2l0.7-0.7v1.4l-0.7,0.7h0.7c0.7-0.7,0.7-2.2,0.7-3.6c0-1.4,0-2.2,0.7-2.2
	c1.4,0,4.3-2.9,4.3-4.3l-0.7-0.7l-1.4,0.7c-0.7,0-1.4,0-1.4-0.7l2.9-2.9c2.9-2.2,5-7.2,5-8.6l-0.7-1.4c0-0.7,0.7-1.4,1.4-1.4
	c0.7,0,0.7,0.7,0.7,1.4l-0.7,0.7l0.7,0.7l1.4-0.7c2.2-0.7,2.2-0.7,5-0.7c1.4,0,2.9,1.4,4.3,2.2l2.9,1.4c0.7-0.7,1.4-0.7,2.9-0.7
	s2.9,0,3.6,1.4s2.2,2.2,3.6,2.9c0.7,0,2.9,2.2,4.3,3.6c1.4,2.2,3.6,3.6,4.3,3.6c2.2,0,2.2,0,2.2,2.2l-0.7,1.4l0.7,0.7
	c0.7,0.7,1.4,2.2,1.4,4.3c0,2.2,0,2.9,1.4,2.9c1.4,0,1.4,0.7,1.4,2.2v1.4l0.7,2.2l2.2,1.4v-2.9c0.7,0,1.4,0.7,1.4,1.4l0.7,5v2.2
	l-2.2-0.7h-0.7l-0.7,1.4v0.7l-0.7,1.4h-1.4c0,0.7,1.4,1.4,2.9,2.2c2.2,1.4,2.9,2.2,2.9,3.6c0,0.7-0.7,1.4-2.2,2.9
	c-1.4,1.4-2.9,2.2-4.3,2.2l-0.7-1.4h-0.7c0,0,0,1.4,0.7,2.2l1.4,1.4h-1.4c-0.7,0-0.7,0-0.7,0.7v2.9l-1.4-0.7
	c-0.7-0.7-1.4-0.7-2.2-0.7c-1.4,0-2.9,0.7-2.9,2.9c-0.7,0.7-0.7,1.4-1.4,1.4c-1.4,0-5,3.6-5,5.8l-0.7,3.6c-0.7,0-1.4,0-1.4-0.7v-1.4
	l-0.7,1.4l-1.4,0.7l-1.4-1.4l-0.7,1.4c-0.7,0.7-0.7,2.9-0.7,4.3s-0.7,2.2-0.7,2.2c-0.7,0-1.4,1.4-2.9,2.2l-0.7,2.2h2.2v1.4l-0.7,1.4
	h-0.7c-1.4,0-5.8,2.9-6.5,4.3v3.6c0,0.7-1.4,1.4-2.9,1.4c-1.4,0-2.2,0.7-2.2,2.2v1.4c0,2.9,0,3.6-1.4,3.6l-0.7-1.4v-1.4l-0.7-1.4
	l-0.7,0.7c-0.7,0.7-0.7,2.9-0.7,5s-0.7,3.6-1.4,3.6v1.4c0,0.7,0,1.4-0.7,1.4c-1.4,0.7-2.2,1.4-2.2,2.2h2.2l-1.4,4.3l1.4,2.9
	c0,0.7,0,0.7-0.7,0.7c-0.7,0-1.4-1.4-2.2-3.6l-0.7-3.6c0-1.4,0-2.2,0.7-2.9c1.4-2.2,1.4-3.6,1.4-4.3l-1.4,0.7l-1.4,2.9
	c0,0.7-1.4,2.2-2.9,4.3c-2.2,1.4-2.9,2.2-2.9,3.6l1.4,4.3l-2.2,2.2c-0.7,0.7-1.4,1.4-2.2,1.4l-1.4-2.2l-0.7,1.4
	c0,1.4-0.7,2.2-0.7,2.2h-0.7c-0.7,0-0.7,0-0.7,0.7v2.2h-1.4c-0.7,0-1.4,1.4-2.2,2.9c-0.7,2.2-2.2,3.6-2.2,3.6
	c-0.7,0-1.4,1.4-2.9,3.6l-1.4,4.3l1.4,2.2l-1.4,4.3c0-3.6,0-5.8-1.4-5.8h-0.7v3.6c0,3.6-1.4,8.6-3.6,8.6c-0.7,0-0.7,0.7-0.7,1.4
	c0,1.4-0.7,2.2-2.2,2.2l-1.4-0.7l-0.7-1.4v1.4c0,0.7-0.7,1.4-1.4,1.4c-1.4,0-2.9,2.2-4.3,5l-4.3,5.8l-0.7,1.4v0.7l2.2,6.5l-2.2-1.4
	l-1.4,1.4c-0.7,0.7-2.2,1.4-3.6,1.4c-2.9,0-4.3,2.2-4.3,5c0,0.7-0.7,2.2-2.2,2.2c-0.7,0.7-1.4,1.4-1.4,2.2c0,0.7-0.7,2.2-1.4,2.2
	c-0.7,0-0.7,0.7-0.7,2.2c0,0.7,0,1.4,0.7,2.2l0.7,2.2c0,1.4-0.7,2.2-1.4,2.2c-0.7,0-0.7,0-0.7-0.7c0-0.7-0.7-1.4-1.4-1.4
	c-0.7,0-2.2,0.7-2.9,2.2l-1.4,2.9c0.7,0,1.4,0,2.2-1.4c1.4-1.4,1.4-1.4,2.2-1.4v0.7c0,0.7,0.7,1.4,1.4,1.4c0.7,0,0.7,0.7,0.7,1.4
	c-0.7,0.7-1.4,1.4-2.2,1.4h-0.7c-1.4,0-1.4,0.7-2.2,1.4c0,1.4-0.7,2.2-1.4,2.2l-0.7-0.7v0.7c0,0.7-0.7,1.4-1.4,1.4
	c-0.7,0-0.7-0.7-0.7-2.2l-0.7-1.4l-1.4,3.6c0,0.7,0.7,0.7,2.2,1.4c1.4,0,2.2,0.7,2.2,0.7c0,0.7-0.7,1.4-2.9,1.4
	c-1.4,0-2.2,0-2.2-0.7v-0.7l-3.6,2.9c2.9,0,4.3,0.7,4.3,2.2l1.4,0.7l0.7,1.4c0,0.7,0,0.7-0.7,0.7l-2.2-1.4l-2.2,2.9l2.2,2.2
	l-4.3-1.4v0.7l1.4,1.4l0.7,1.4h-2.9l-2.2-0.7c-1.4,0-1.4,0.7-2.2,2.2c0,0.7,0,2.2,0.7,2.2l0.7,0.7l-0.7,0.7c-0.7,0-1.4,0.7-1.4,1.4
	l1.4,2.9l2.2,2.2l-0.7,0.7l-5.8-1.4l-2.9,0.7v0.7h5c0.7,0,0.7,0,0.7,0.7l-1.4,2.9l-1.4,0.7l-2.2-0.7c-1.4-1.4-1.4-1.4-2.2-1.4
	l-2.2,0.7l-0.7,2.2c0.7,0,1.4-0.7,2.2-1.4l0.7-0.7l1.4,2.2l-0.7,1.4c-3.6,3.6-5.8,6.5-5.8,7.2v0.7l1.4-0.7c0.7,0,0.7,0,0.7,0.7v0.7
	c0,0.7,0,1.4-0.7,1.4l-5,1.4c-0.7,0-0.7,0-0.7-0.7l2.9-3.6c0-0.7,0-1.4-0.7-1.4l-2.9,2.9l-1.4,2.9l0.7,0.7c1.4,0.7,2.2,2.2,2.2,2.9
	c0,0.7,0.7,0.7,1.4,0.7l2.2-0.7l-0.7,2.2l-2.2,0.7h-2.9c-2.2,0-3.6,2.2-5.8,5c0,1.4-2.2,4.3-3.6,6.5l-1.4,3.6v0.7
	c0.7,0,1.4-0.7,1.4-2.2c0.7-2.2,1.4-2.9,3.6-2.9l4.3,1.4h-1.4c-2.2,0-4.3,4.3-4.3,5.8v1.4l-5,2.2l2.2,1.4c-2.9,0-6.5,4.3-6.5,6.5
	v1.4l-2.2,1.4c-2.9,0.7-7.9,5-7.9,7.2C1459.7,1296.9,1458.9,1296.9,1458.9,1296.9L1458.9,1296.9z M1581.9,1025.7
	c1.4,0,2.2-0.7,2.2-1.4c0-0.7,0-0.7-0.7-0.7l-2.2,0.7l-0.7,1.4H1581.9z M1565.4,1037.2c-0.7,0-0.7-0.7-0.7-1.4
	c0-0.7,0.7-1.4,2.2-2.2h0.7l-0.7,2.2L1565.4,1037.2z M1634.4,1042.3c1.4,0,4.3-1.4,4.3-2.9c0-0.7-0.7-0.7-1.4-0.7
	c-1.4,0-2.2,0.7-2.9,1.4l-0.7,1.4L1634.4,1042.3z M1602.1,1055.9v-1.4c0-0.7,0-0.7-0.7-0.7c-0.7,0-0.7,0-0.7,0.7L1602.1,1055.9z
	 M1604.9,1056.7l2.2-0.7c0-0.7,0-1.4-0.7-1.4c-1.4,0-2.2,0.7-2.9,1.4C1603.5,1055.9,1603.5,1056.7,1604.9,1056.7z M1594.1,1057.4
	l1.4-2.2h-0.7l-1.4,0.7L1594.1,1057.4z M1463.3,1058.1c0.7,0,1.4-0.7,1.4-1.4c0-0.7-0.7-0.7-0.7-0.7s-0.7,0-0.7,0.7l-0.7,0.7
	L1463.3,1058.1z M1601.3,1058.8c0.7,0,0.7,0,0.7-0.7c0,0,0-0.7-0.7-0.7h-1.4C1599.9,1058.1,1600.6,1058.8,1601.3,1058.8
	L1601.3,1058.8z M1620.8,1061v-2.9l0.7,1.4L1620.8,1061z M1557.5,1059.5l-1.4-0.7c0,0-0.7,0-0.7,0.7H1557.5L1557.5,1059.5z
	 M1554.6,1063.1l1.4-1.4c0,0,0-0.7-0.7-0.7l-1.4,0.7L1554.6,1063.1z M1595.6,1066.7v-2.9c-0.7,0-0.7,0-0.7,1.4v1.4H1595.6z
	 M1615,1069.6v-0.7c0-0.7,0.7-1.4,1.4-2.2v1.4C1615.7,1068.9,1615.7,1069.6,1615,1069.6L1615,1069.6z M1604.2,1074.6l1.4-0.7
	l0.7-1.4h-0.7L1604.2,1074.6z M1541.6,1076.8l1.4-0.7c0-0.7,0-1.4-0.7-1.4l-0.7,1.4V1076.8z M1592.7,1086.1c0.7,0,1.4-0.7,1.4-1.4
	c0-1.4,0-1.4-0.7-2.2v0.7c-1.4,0.7-2.2,1.4-2.2,2.2L1592.7,1086.1z M1459.7,1086.9l-0.7-0.7l3.6-2.9L1459.7,1086.9z M1585.5,1088.3
	l0.7-0.7l0.7-1.4c-0.7,0-0.7,0.7-1.4,1.4V1088.3z M1538.8,1089.7l1.4-0.7c0-1.4-0.7-2.2-1.4-2.2l-1.4,0.7c-0.7,0-0.7,0.7-0.7,1.4
	L1538.8,1089.7z M1458.9,1091.2l-0.7-0.7l0.7-0.7c0-0.7,0.7-0.7,0.7-0.7c0.7,0,0.7,0,0.7,0.7
	C1460.4,1090.5,1459.7,1091.2,1458.9,1091.2L1458.9,1091.2z M1570.4,1096.2l1.4-1.4c0,0,0-0.7-0.7-0.7l-0.7,0.7V1096.2z
	 M1454.6,1099.8c0.7,0,1.4-0.7,1.4-1.4s0-0.7-0.7-0.7h-0.7l-0.7,2.2H1454.6z M1574.7,1103.4c0,0,0.7,0,0.7-0.7l-0.7-1.4
	c-0.7,0-1.4,0.7-1.4,1.4C1573.3,1103.4,1574,1103.4,1574.7,1103.4z M1594.9,1106.3h-0.7l-0.7-0.7c0-1.4,0.7-2.2,1.4-2.2
	c0.7,0,0.7,0.7,0.7,1.4C1595.6,1105.6,1595.6,1106.3,1594.9,1106.3L1594.9,1106.3z M1569.7,1109.9l3.6-2.2c0-0.7,0-0.7-0.7-0.7
	c0,0.7-0.7,0.7-1.4,0.7c-0.7,0-2.2,0.7-2.2,1.4L1569.7,1109.9z M1561.1,1111.3l2.9-3.6l-3.6,2.9L1561.1,1111.3z M1584.8,1112.8
	l-0.7-0.7c0-0.7-0.7-2.2-1.4-2.2l-0.7-0.7l1.4-0.7c0.7,0,0.7,0,0.7,0.7c0,0.7,0.7,0.7,0.7,0.7h0.7c0.7,0,0.7,0,0.7,0.7
	S1585.5,1112.8,1584.8,1112.8z M1583.4,1119.2c0-0.7,0.7-1.4,1.4-2.2l1.4-0.7c0,0.7-0.7,1.4-1.4,2.2L1583.4,1119.2z M1507.1,1127.9
	l1.4-0.7c0.7-0.7,2.2-1.4,2.2-2.2c0-0.7-0.7-0.7-1.4-0.7c0,0-1.4,0-2.2,0.7l-0.7,2.2C1506.4,1127.9,1506.4,1127.9,1507.1,1127.9z
	 M1561.1,1129.3c0.7-0.7,0.7-1.4,0.7-2.9l-0.7-0.7l-0.7,1.4v2.2H1561.1z M1546,1133.6l0.7-1.4l-0.7-0.7l-1.4,0.7
	C1544.5,1132.9,1545.2,1133.6,1546,1133.6z M1551.7,1136.5c0,0,0.7,0,0.7-0.7l0.7-0.7l-0.7-0.7c-0.7,0-1.4,0.7-1.4,1.4
	C1551,1136.5,1551,1136.5,1551.7,1136.5L1551.7,1136.5z M1540.9,1138.6l0.7-0.7c1.4,0,2.2-0.7,2.2-0.7s-0.7-0.7-2.2-0.7
	c-0.7,0-1.4,0.7-1.4,1.4L1540.9,1138.6z M1495.6,1143c-0.7,0-1.4,0-1.4-0.7s0.7-1.4,1.4-1.4l0.7-0.7L1495.6,1143z M1556.7,1147.3
	l1.4-0.7l1.4-2.9c0-0.7,0-0.7-0.7-0.7h-0.7c-1.4,0-2.2,1.4-2.2,2.9L1556.7,1147.3z M1553.9,1146.6c0.7,0,1.4-0.7,1.4-1.4
	c0-0.7,0-0.7-0.7-0.7c0,0-0.7,0-0.7,0.7l-0.7,0.7L1553.9,1146.6z M1535.2,1146.6l1.4-0.7l0.7-1.4l-1.4,0.7L1535.2,1146.6z
	 M1546.7,1148.7c0.7,0,1.4-0.7,1.4-1.4l-2.2-1.4c-0.7,0-0.7,0.7-0.7,1.4L1546.7,1148.7z M1543.1,1148v-0.7c-0.7-0.7-1.4-0.7-2.2-0.7
	h-0.7L1543.1,1148z M1543.8,1153.8l0.7-0.7c0.7,0,1.4-0.7,1.4-1.4l-1.4-0.7c-0.7,0.7-0.7,1.4-0.7,2.2V1153.8z M1546.7,1166.7
	l-2.2-1.4l-0.7-1.4h0.7c0.7,0,1.4-0.7,1.4-1.4c0-2.2,2.9-4.3,5-4.3v0.7l-1.4,4.3L1546.7,1166.7z M1448.2,1162.4l-1.4-0.7
	c0-0.7,0-1.4,0.7-1.4c0.7,0,1.4,0.7,1.4,1.4L1448.2,1162.4z M1447.4,1166.7c-0.7,0-0.7-0.7-0.7-1.4v-1.4L1447.4,1166.7z
	 M1547.4,1171.7l-2.2-1.4l2.9-0.7c0.7,0,0.7,0,0.7,0.7C1548.8,1171,1548.1,1171.7,1547.4,1171.7z M1536.6,1171.7c0,0,0.7,0,0.7-0.7
	l0.7-0.7l-0.7-0.7c-0.7,0-1.4,0.7-1.4,1.4C1535.9,1171.7,1536.6,1171.7,1536.6,1171.7L1536.6,1171.7z M1517.2,1176l0.7-0.7
	c0.7-0.7,0.7-2.2,0.7-2.9v-1.4l-0.7,0.7c-0.7,0-1.4,1.4-1.4,2.9C1516.5,1175.3,1516.5,1176,1517.2,1176z M1394.9,1179.6
	c0.7,0,1.4-0.7,2.2-1.4l0.7-2.2v-1.4h-0.7l-2.2,4.3h-0.7L1394.9,1179.6z M1511.4,1178.2c0.7,0,1.4-0.7,1.4-1.4
	c0-0.7-0.7-1.4-1.4-1.4s-0.7,0.7-0.7,1.4C1510.7,1177.5,1510.7,1178.2,1511.4,1178.2z M1446,1179.6v-0.7l0.7-1.4
	c0.7,0,0.7,0.7,0.7,0.7C1447.4,1178.9,1446.7,1179.6,1446,1179.6z M1446,1188.3c-0.7,0-0.7-0.7-0.7-2.2c0-1.4,0-1.4,0.7-2.2
	c0.7,0.7,0.7,1.4,0.7,2.9L1446,1188.3z M1528,1189v-0.7l1.4-1.4c0.7-1.4,1.4-1.4,2.2-2.2v1.4c0,0.7-0.7,2.2-2.2,2.2L1528,1189z
	 M1516.5,1194v-2.2h-0.7v2.2H1516.5z M1498.5,1204.8c0.7-0.7,1.4-1.4,1.4-2.9c0-0.7-0.7-0.7-1.4-0.7l-0.7,2.2
	C1497.8,1204.8,1497.8,1204.8,1498.5,1204.8z M1519.3,1212c0-1.4,2.2-5,2.9-5c0.7,0,0.7,0.7,0.7,2.2c0,0.7-0.7,1.4-1.4,1.4
	C1520.8,1210.6,1520.1,1211.3,1519.3,1212z M1505.7,1211.3c0,0,0.7,0,0.7-0.7l0.7-0.7l-0.7-0.7c-0.7,0-1.4,0.7-1.4,1.4
	C1505,1211.3,1505,1211.3,1505.7,1211.3L1505.7,1211.3z M1508.6,1214.9l0.7-0.7l0.7-2.2c0,0-0.7,0-1.4,1.4V1214.9L1508.6,1214.9z
	 M1446,1213.4c0.7,0,1.4,0,1.4-0.7h-1.4l-1.4,0.7H1446z M1485.5,1224.2l2.2-2.2l-0.7-0.7c-0.7,0-1.4,0.7-1.4,1.4l-0.7,0.7
	L1485.5,1224.2z M1490.6,1227.1l0.7-0.7l0.7-1.4c-0.7,0-0.7,0.7-1.4,1.4V1227.1z M1502.8,1240.1c-0.7,0-0.7,0-0.7-0.7
	c0-0.7,0-1.4,0.7-1.4h0.7c0.7,0,0.7,0,0.7,0.7S1503.5,1240.1,1502.8,1240.1z M1491.3,1253c-0.7,0-0.7,0-0.7-0.7l1.4-1.4v1.4
	C1492,1253,1492,1253,1491.3,1253z M1482,1256.6l3.6-3.6c0-0.7,0-0.7-0.7-0.7c0,0-1.4,0.7-2.2,2.2L1482,1256.6z M1474.8,1264.5
	c0.7,0,2.2-0.7,3.6-2.9l2.2-3.6c0-0.7,0-0.7-0.7-0.7c-0.7,0-1.4,0.7-1.4,1.4c0,1.4,0,2.2-0.7,2.2s-1.4,0.7-2.2,2.2L1474.8,1264.5z
	 M1444.6,1291.8l0.7-0.7l-0.7-0.7l-2.9-0.7h-0.7l1.4,0.7C1443.1,1291.1,1443.8,1291.8,1444.6,1291.8z M1458.2,1293.3l0.7-2.2
	c0-1.4,0-1.4-0.7-1.4l-1.4,2.9L1458.2,1293.3z M1707,1296.9l-7.9-0.7l-4.3-0.7l-0.7-0.7l-2.2,0.7h-3.6c-0.7-0.7-0.7-0.7-8.6-2.2
	c-2.2-0.7-8.6-2.9-14.4-5.8l-9.3-4.3c-1.4,0-5.8-4.3-5.8-5v-0.7c0-0.7,0-0.7-0.7-0.7c-0.7,0-2.2-0.7-2.2-2.2c0-1.4-0.7-2.2-1.4-2.2
	h-1.4c-1.4,0-2.2,0-2.2-0.7s0.7-1.4,2.2-1.4h0.7l-1.4-1.4l-1.4-0.7l-1.4,1.4l-0.7-1.4c-0.7-0.7-0.7-2.2-1.4-3.6c0-0.7,0-0.7-0.7-0.7
	l-2.9-1.4c-1.4-2.2-7.2-10.1-7.2-11.5l-5.8-10.1c-2.2-1.4-4.3-6.5-4.3-8.6c0-0.7-0.7-2.9-2.2-4.3c-0.7-2.2-2.9-6.5-3.6-10.1
	l-3.6-10.1c-0.7-0.7-0.7-3.6-0.7-5.8c0-1.4-0.7-4.3-1.4-5c-1.4-2.9-3.6-17.3-3.6-25.2l-0.7-10.1c0-2.2,0.7-5.8,1.4-7.9
	c1.4-3.6,2.2-7.9,2.2-10.8l5.8-11.5c1.4-2.2,2.2-5,2.2-5.8c0-1.4,0.7-2.2,2.2-2.2c0.7-0.7,1.4-1.4,1.4-2.2c0-1.4,0.7-2.2,1.4-2.2
	c1.4-0.7,2.9-2.2,2.9-3.6l1.4-3.6c0.7,0,0.7,0,0.7-0.7v-0.7c0-0.7,1.4-2.9,2.9-4.3c2.2-2.2,3.6-5,3.6-5.8h2.9l-1.4-2.2l1.4-0.7
	c0.7,0,2.2,0,3.6-0.7l1.4-1.4l-1.4-2.2l1.4-2.2c0.7-1.4,2.2-2.9,3.6-4.3c0.7-1.4,2.9-2.2,3.6-2.2c2.2,0,2.2-0.7,2.2-2.9v-2.2
	c0-1.4,0.7-2.2,2.2-2.9l6.5-5c2.2-2.2,5-3.6,6.5-4.3c1.4,0,2.9-0.7,3.6-1.4c0-0.7,0.7-0.7,1.4-0.7c1.4,0,1.4,0,1.4,0.7v0.7l1.4-0.7
	l2.2-2.2c0-0.7-1.4-0.7-2.9-0.7h-0.7c-0.7,0-0.7,0-0.7-0.7v-0.7c0-0.7,0.7-1.4,1.4-1.4c0.7,0,1.4-0.7,1.4-1.4c0-0.7,0.7-0.7,1.4-0.7
	c1.4,0,1.4-0.7,1.4-1.4l0.7,0.7l1.4,0.7c0.7,0,1.4-0.7,2.9-2.9c2.2-2.9,9.3-7.2,11.5-7.2h0.7c0.7,0,1.4-0.7,2.9-2.2
	c2.2-2.2,5.8-3.6,7.9-3.6l2.9,0.7c1.4,0,3.6-1.4,3.6-2.9c0-0.7,1.4-2.2,7.2-3.6l7.2-1.4l0.7,0.7l-0.7,0.7c0,0.7,0,1.4,0.7,1.4
	s0.7,0,0.7-0.7s1.4-0.7,2.2-0.7l5-0.7c2.2,0,5,0.7,6.5,1.4l2.2,0.7l1.4-0.7c1.4,0,5.8,0.7,12.2,3.6c1.4,0.7,5,2.2,7.9,4.3l5.8,2.9
	c0.7,0,2.2,0.7,2.2,1.4c0,0.7,0.7,1.4,1.4,1.4c1.4,0,16.5,14.4,20.9,20.1c2.2,2.2,3.6,5,3.6,5.8l0.7,2.2c0.7,0,1.4,4.3,2.2,8.6
	c0,4.3,0.7,9.3,2.2,10.8l1.4,2.9l-2.9,8.6c-1.4,0-4.3,3.6-4.3,5.8h-1.4c-0.7,0-9.3,7.9-10.1,10.1c0,0.7-0.7,0.7-1.4,0.7
	c-1.4,0-5,2.9-8.6,7.2c-2.9,2.9-6.5,5-7.2,5l-0.7-0.7c-0.7,0-1.4,1.4-1.4,2.9s-1.4,2.9-4.3,3.6c-1.4,0-2.9,2.9-2.9,4.3
	c0,0.7-2.2,2.9-5,4.3c-2.9,2.2-5.8,3.6-5.8,4.3c0,0.7-0.7,0.7-1.4,0.7h-0.7l-0.7,0.7c0,0.7-1.4,2.2-2.9,2.2
	c-4.3,1.4-7.9,2.9-7.9,3.6l0.7,0.7h-0.7c-1.4,0-6.5,2.9-6.5,3.6s0.7,0.7,0.7,0.7l1.4-0.7c0,0.7-2.9,2.2-5.8,4.3l-10.1,5
	c0-0.7,0-1.4-0.7-1.4s-1.4,0.7-1.4,1.4c-0.7,1.4-1.4,2.2-2.2,2.2l-2.9,0.7c-0.7,0.7-2.9,2.2-5,2.9c-2.9,0.7-7.2,2.9-11.5,5l-7.9,2.9
	h-0.7c-0.7,0-2.2,0.7-3.6,2.2c-1.4,2.2-4.3,3.6-5,3.6l-6.5,0.7c-2.2,0-2.9-0.7-3.6-1.4h-4.3c-2.9,0-5-2.2-7.9-7.2l-2.9-3.6
	c-0.7,0-1.4,0.7-1.4,2.2l0.7,5.8c0.7,7.9,0.7,11.5,1.4,12.9c0,0,0.7,1.4,0.7,3.6c0.7,7.2,3.6,17.3,7.2,22.3l2.9,5
	c0,2.9,7.2,9.3,9.3,9.3l4.3,0.7c2.9,0.7,10.1,1.4,16.5,1.4c3.6,0,6.5,0,7.9-0.7c0.7-0.7,1.4-0.7,2.9-0.7h1.4c0.7,0,2.9-0.7,3.6-1.4
	l1.4-0.7h0.7c0,0,0.7,0,0.7-0.7c0-0.7,0.7-1.4,2.2-1.4c0.7,0,2.2,0.7,2.2,1.4c0.7,0,0.7-0.7,1.4-1.4l0.7-2.9c0,0-0.7,0-0.7,0.7
	c0,0.7,0,1.4-0.7,1.4l-0.7-0.7l2.2-2.2l0.7,0.7l2.2,0.7c0.7,0,0.7-0.7,0.7-2.2c0-0.7,0.7-1.4,1.4-1.4v2.2l2.9-2.2
	c2.2-1.4,4.3-2.9,4.3-3.6h1.4c2.2,0,2.2,0,2.2-1.4v-0.7c0-2.2,2.9-2.9,8.6-2.9c3.6-0.7,5-1.4,5-4.3c0-2.2,0.7-2.9,1.4-2.9
	c0.7,0,1.4,0.7,1.4,1.4l0.7,0.7l0.7-0.7c0-1.4,0-2.2-0.7-2.9l-0.7-1.4h1.4c0.7,0,1.4,0.7,1.4,1.4s0,1.4,0.7,1.4
	c0.7,0,2.2-0.7,3.6-2.9l2.2-2.9c-2.9,0-5,0-5-1.4c0-0.7,1.4-1.4,2.9-1.4c2.2-0.7,3.6-1.4,4.3-3.6l1.4-2.2h1.4l-1.4,1.4h-0.7l0.7,0.7
	l-0.7,1.4c-0.7,0.7-0.7,1.4-0.7,2.2l3.6-2.2c0.7-0.7,1.4-1.4,1.4-2.2h-0.7l-0.7-0.7c0-0.7,2.2-2.9,4.3-4.3c2.2-1.4,4.3-2.9,4.3-3.6
	c0-0.7,0.7-0.7,1.4-0.7l1.4-0.7l3.6-3.6l2.2-1.4c0.7,0,1.4,0,1.4,0.7l0.7,0.7l4.3-2.9c0.7,0,1.4-0.7,1.4-1.4v-0.7
	c0-0.7,0-0.7-0.7-0.7l-1.4,1.4c0,0.7-0.7,1.4-1.4,1.4c-0.7,0-1.4-0.7-1.4-1.4c0-0.7,0.7-1.4,2.2-2.2c1.4-0.7,2.9-1.4,2.9-2.2
	l2.9-2.9l1.4-0.7l0.7,0.7l-2.2,2.2c0,0.7,0.7,0.7,1.4,0.7h0.7c0.7-0.7,0.7-1.4,0.7-2.9l0.7-1.4l2.9-1.4c1.4-1.4,2.2-2.2,3.6-2.2
	c0.7,0,1.4,0.7,1.4,2.2c0.7,0,1.4-0.7,2.2-2.2c1.4-2.2,2.9-3.6,2.9-4.3c5-2.9,7.2-5.8,7.2-6.5l-0.7-1.4l0.7-0.7
	c1.4,0,1.4-0.7,1.4-1.4v-0.7h2.9c0.7,0,0.7,0,0.7-0.7c0-1.4,0-2.2,0.7-2.2h1.4l-0.7,0.7v1.4l3.6-1.4c1.4-0.7,4.3-1.4,7.2-1.4
	c2.9,0,4.3,0,4.3-0.7c-0.7,0-0.7,0-0.7-0.7s0-0.7,1.4-1.4l1.4-0.7l0.7,0.7l1.4,0.7h0.7c0-0.7,0-1.4-1.4-1.4l-1.4-2.9h0.7
	c0.7,0,2.9-1.4,2.9-2.9c0-0.7,0-0.7-0.7-0.7l-2.9,2.9c-1.4,1.4-2.9,2.2-3.6,2.2c-0.7,0-1.4,1.4-2.9,2.9l-2.2,1.4l-1.4-2.2
	c0-1.4,1.4-2.9,2.9-2.9l1.4-0.7v-1.4c0-0.7,0.7-0.7,2.2-0.7c0.7,0,1.4-0.7,1.4-1.4v-1.4h3.6l2.9-1.4l2.9,1.4l-1.4,1.4v0.7l4.3,2.2
	l0.7-0.7v-0.7h0.7c0.7,0,1.4-0.7,1.4-1.4c0-0.7,1.4-0.7,2.2-0.7c1.4,0,2.9-1.4,3.6-2.2c0.7-1.4,1.4-2.2,2.2-2.2c0.7,0,0.7,0,0.7,0.7
	l-2.2,5.8l0.7,0.7c0.7,0,1.4,1.4,1.4,2.2l-0.7,1.4h-0.7c-1.4,0-6.5,2.2-7.2,4.3v0.7h0.7v0.7c0,0.7-0.7,1.4-1.4,2.2l-8.6,2.9
	c-0.7,0-2.2-0.7-2.2-1.4l-1.4,0.7l-0.7,1.4h2.9c1.4,0,2.2,0.7,2.2,0.7v0.7c-0.7,0.7-1.4,2.9-1.4,3.6v0.7h0.7c0.7,0,0.7-0.7,0.7-1.4
	v-0.7h1.4c2.9,0,5,0,5-0.7l-0.7-1.4l-2.9,1.4c0-1.4,2.9-2.9,5-2.9h2.9l-0.7,1.4c-0.7,0-0.7,0.7-0.7,1.4l0.7,1.4l4.3-2.9v0.7
	c0,0.7,0,1.4-0.7,2.2l-4.3,0.7c-2.2,0-5,3.6-5,6.5l0.7,2.9l-1.4,0.7c-1.4,0.7-1.4,1.4-1.4,2.2v1.4l-0.7-0.7c-1.4,0-2.2-0.7-2.2-2.2
	c0-0.7,0-0.7-0.7-0.7c-0.7,0-1.4,0-2.9,1.4l-1.4,2.9l-0.7,0.7l0.7,0.7c0.7,0,1.4-0.7,1.4-2.2s0.7-2.2,1.4-2.2c0.7,0,1.4,1.4,2.2,2.9
	c0,1.4,0,2.2-1.4,2.2c-0.7,0-0.7,0-0.7,0.7v1.4c0,0.7,0,0.7-1.4,0.7h-0.7l-0.7,0.7h-3.6l1.4,2.9l-2.2,0.7c-2.2,0-2.2,1.4-2.2,2.2
	c0,1.4-0.7,2.2-3.6,3.6c-2.2,0.7-4.3,1.4-4.3,2.2h-0.7c-0.7,0-1.4,0-1.4,0.7c0,0.7-0.7,0.7-2.2,0.7s-2.2,0.7-2.2,0.7v0.7l0.7,0.7
	l1.4-0.7v0.7c0,0.7-0.7,1.4-1.4,1.4c-2.2,0.7-4.3,2.2-4.3,4.3l0.7,2.9c0.7,0.7,0.7,1.4,0.7,2.2v1.4l0.7-0.7c1.4,0,2.2-0.7,2.2-1.4
	s0.7-2.2,1.4-2.2h1.4c0.7,0,1.4,0,1.4,0.7l-0.7,0.7c-0.7,0-2.2,1.4-2.2,2.9c-0.7,1.4-1.4,1.4-2.9,1.4l-3.6-0.7l-2.2-0.7v2.9h-1.4
	c-0.7,0-0.7,0-0.7,0.7c0,2.2-5.8,6.5-7.9,7.2l-3.6,1.4l-2.9,2.2c-0.7,0-0.7,1.4-0.7,2.9s0,2.9,0.7,3.6l0.7,0.7l-0.7,1.4h-1.4
	c-1.4,0-2.9-0.7-2.9-2.2c0-0.7-0.7-0.7-0.7-0.7c-0.7,0.7-0.7,2.2-0.7,2.9c0,2.2,0.7,3.6,1.4,3.6v-0.7c0-1.4,0.7-1.4,2.9-1.4
	c2.2,0.7,3.6,0.7,3.6,1.4c0,0.7-2.2,1.4-3.6,1.4c-0.7,0-0.7,0-0.7,1.4c0,0.7,0,0.7,0.7,0.7l2.2-0.7l3.6-2.9c0-0.7,0.7-1.4,1.4-1.4
	l0.7,0.7c0,1.4-2.9,2.9-5.8,5.8c-2.9,2.9-5.8,4.3-6.5,4.3h-0.7c0-0.7-0.7-1.4-1.4-1.4s-1.4,0.7-1.4,1.4c0,0.7,0.7,0.7,0.7,0.7
	c0.7,0,0.7,0,0.7,0.7s-1.4,2.2-4.3,4.3c-2.2,2.2-4.3,4.3-4.3,5l-0.7,1.4l-0.7-0.7c-1.4,0-1.4,0-1.4,0.7c0,2.2-4.3,6.5-5.8,6.5
	l-0.7,0.7l0.7,0.7c0,0.7,0,1.4-0.7,1.4h-0.7c-2.2,0-8.6,2.9-16.5,6.5c-4.3,2.2-9.3,4.3-11.5,4.3c-2.2,0-4.3,0.7-4.3,1.4
	c-0.7,0.7-2.9,0.7-4.3,1.4c-0.7,0-2.2,0.7-2.2,1.4v0.7l-0.7,0.7c-0.7,0-0.7-0.7-0.7-1.4l-0.7-0.7l-1.4,1.4l-1.4-0.7l-1.4-1.4v0.7
	c0,1.4,0,2.2-1.4,2.2l-2.2-0.7c-1.4,0-2.9,0-3.6,0.7l-0.7,0.7l-0.7-0.7c-0.7,0-0.7,0-0.7,0.7s0.7,1.4,1.4,1.4h0.7L1707,1296.9z
	 M1707,1037.2l-0.7-0.7l0.7-1.4c0.7,0,1.4,0.7,1.4,1.4L1707,1037.2z M1721.3,1038.7v-1.4c0-0.7,0-0.7-0.7-0.7s-0.7,0-0.7,0.7
	L1721.3,1038.7z M1650.9,1078.2l1.4-0.7c0-0.7,0-1.4-0.7-1.4l-0.7,1.4V1078.2z M1664.5,1143l6.5-2.9c2.9-2.2,6.5-3.6,7.2-4.3
	c0-0.7,1.4-0.7,2.9-0.7c0.7,0,2.9-1.4,4.3-2.9c1.4-1.4,3.6-2.2,5-2.9c2.2,0,2.9-0.7,2.9-2.2v-1.4h0.7l1.4-0.7l0.7-1.4l2.9,1.4
	c0-0.7,1.4-1.4,2.9-2.9s2.2-2.2,2.2-2.9v-0.7c0-0.7,0-0.7,1.4-0.7l1.4,2.9v1.4c0.7,0,1.4-0.7,2.2-1.4c1.4-0.7,2.2-2.2,2.2-2.9
	c-0.7,0-0.7,0.7-1.4,1.4l-1.4,0.7v-1.4c0-2.2,0.7-3.6,3.6-5.8l5-2.9c2.2-0.7,4.3-2.2,6.5-5.8c1.4-1.4,2.2-2.2,2.9-2.2l0.7,0.7
	l1.4-1.4c2.2-1.4,5.8-3.6,9.3-5c0.7-0.7,1.4-1.4,1.4-2.2v-3.6l2.2,0.7c1.4,0,2.9-0.7,4.3-2.9c2.2-2.2,2.9-4.3,2.9-5.8
	c0-0.7,0-1.4-0.7-1.4h-0.7c-0.7,0.7-3.6,0.7-6.5,0.7c-5,0.7-7.2,0.7-8.6,2.2l-5.8,1.4c-2.2,0.7-5,2.9-6.5,3.6l-5,3.6
	c-1.4,0-3.6,0.7-4.3,1.4c0,0.7-2.2,1.4-3.6,2.9c-0.7,1.4-2.9,2.2-4.3,2.2c-0.7,0-1.4,0-1.4,0.7c0,0.7-1.4,2.2-3.6,2.9
	c-1.4,1.4-2.2,2.2-2.2,2.9v0.7c0,1.4-2.2,2.9-4.3,2.9h-0.7c-1.4,0-5,2.9-5,5c0,2.2-5,7.2-6.5,7.2l-1.4,1.4c-0.7,0.7-2.2,2.2-4.3,2.2
	c-1.4,0.7-2.9,1.4-2.9,2.2c0,0.7,0,1.4,1.4,2.2c0,0.7-1.4,2.9-7.2,8.6l-0.7,3.6L1664.5,1143z M1709.1,1091.9l2.9-2.2h-1.4l-0.7,0.7
	l-0.7-0.7l0.7-2.9l-2.2,1.4l-0.7-0.7l0.7,2.2C1708.4,1091.2,1708.4,1091.9,1709.1,1091.9z M1642.2,1092.6c0.7,0,1.4,0,1.4-0.7
	l-0.7-1.4l-1.4,2.2H1642.2z M1719.2,1104.8h-1.4l0.7-0.7h2.2C1720.6,1104.8,1719.9,1104.8,1719.2,1104.8L1719.2,1104.8z
	 M1692.6,1108.4c0.7,0,1.4-0.7,1.4-1.4s-0.7-0.7-1.4-0.7l-1.4,1.4c0,0.7,0,0.7,0.7,0.7H1692.6z M1689,1113.5v-1.4c0,0,0-0.7,0.7-0.7
	s0.7,0.7,0.7,0.7L1689,1113.5z M1788.9,1114.2c0.7,0,1.4,0,1.4-0.7s0-1.4-0.7-1.4l-0.7,1.4V1114.2z M1681.1,1117.1
	c0.7,0,1.4,0,2.2-0.7c0-0.7,0-0.7-0.7-0.7s-1.4,0-1.4,0.7V1117.1L1681.1,1117.1z M1781,1118.5c0.7,0,1.4-0.7,1.4-1.4l-1.4-0.7
	l-0.7,0.7C1780.3,1117.8,1780.3,1118.5,1781,1118.5z M1689,1119.9h-1.4c0-0.7,0.7-1.4,1.4-2.2h0.7v0.7L1689,1119.9z M1768.1,1130
	l1.4-0.7l2.2-2.2l-1.4-0.7c-0.7,0.7-2.2,2.2-2.2,2.9V1130L1768.1,1130z M1658,1135.1l1.4-0.7h-2.9L1658,1135.1z M1759.5,1135.8
	c0-0.7-0.7-0.7-1.4-1.4h-0.7l-0.7,0.7c0,0.7,0.7,0.7,1.4,0.7H1759.5L1759.5,1135.8z M1661.6,1144.4c0.7,0,1.4-0.7,1.4-1.4
	c0-0.7,0-0.7-0.7-0.7c0,0-0.7,0-0.7,0.7l-0.7,0.7L1661.6,1144.4z M1852.2,1147.3c-0.7,0-1.4-0.7-2.2-1.4c0-0.7,0-1.4,0.7-2.2
	c1.4,0,2.2-0.7,2.2-0.7c0.7,0,1.4,0.7,1.4,1.4l-1.4,0.7c-0.7,0-0.7,0.7-0.7,0.7l0.7,0.7L1852.2,1147.3z M1845,1150.9v-2.9l3.6-0.7
	v0.7c0,0.7-0.7,1.4-1.4,2.2L1845,1150.9z M1857.3,1150.2v-0.7l0.7-1.4c0.7,0,0.7,0.7,0.7,1.4L1857.3,1150.2z M1845,1155.2l-0.7-0.7
	l-1.4-0.7l-1.4,0.7l-0.7,0.7H1845L1845,1155.2z M1821.3,1160.2h-0.7l0.7-1.4l2.2-1.4l0.7,0.7l-0.7,0.7
	C1822.7,1160.2,1821.3,1160.2,1821.3,1160.2L1821.3,1160.2z M1843.6,1161.7l1.4-0.7h-1.4c-1.4,0-1.4-1.4-1.4-2.2l0.7-1.4l-1.4,0.7
	l-1.4,2.2l0.7,0.7L1843.6,1161.7z M1836.4,1162.4l1.4-0.7l-0.7-0.7l-2.9,1.4H1836.4L1836.4,1162.4z M1852.9,1167.4h-0.7v-2.2h0.7
	V1167.4z M1828.5,1166.7c1.4,0,2.2,0,2.2-0.7c0-0.7-1.4-0.7-2.2-0.7l-0.7,0.7C1827.8,1166,1827.8,1166.7,1828.5,1166.7z
	 M1719.9,1171l1.4-1.4l0.7-2.2c-0.7,0-1.4,0.7-2.2,2.2L1719.9,1171L1719.9,1171z M1827.8,1171.7c0.7,0,2.2,0,2.9-0.7l0.7-0.7
	l-0.7-0.7L1827.8,1171.7z M1832.1,1173.9l1.4-1.4l-0.7-0.7c-0.7,0-1.4,0.7-1.4,1.4C1831.4,1173.2,1831.4,1173.9,1832.1,1173.9z
	 M1844.3,1178.2l4.3-5v0.7c0,0.7-0.7,1.4-1.4,2.2L1844.3,1178.2z M1800.4,1176.8l-1.4-0.7v-0.7l1.4-0.7h1.4l0.7,0.7L1800.4,1176.8z
	 M1805.5,1176.8c0.7,0,1.4,0,1.4-0.7s0-1.4-0.7-1.4l-1.4,2.2H1805.5z M1823.5,1180.4c0.7,0,1.4-0.7,2.2-1.4l2.2-2.2
	c-1.4,0-0.7-0.7-2.9-0.7h-3.6c-0.7,0.7-0.7,1.4-0.7,2.2c0,0,0,0.7,0.7,0.7l0.7-0.7h-0.7v-0.7h0.7c0.7,0,1.4,1.4,1.4,2.2V1180.4z
	 M1832.1,1178.2c0.7,0,1.4-0.7,1.4-1.4c0,0,0-0.7-0.7-0.7l-1.4,1.4L1832.1,1178.2z M1847.9,1179.6c-0.7,0-1.4,0-1.4-0.7
	c1.4,0,0.7-0.7,2.2-0.7c0.7,0,1.4-0.7,1.4-1.4c0,0,0-0.7,0.7-0.7s1.4,0.7,1.4,1.4s-0.7,1.4-1.4,1.4L1847.9,1179.6z M1840,1179.6
	c0,0,0.7,0,0.7-1.4l0.7-0.7l-0.7-0.7l-1.4,0.7l-0.7,1.4C1838.6,1179.6,1839.3,1179.6,1840,1179.6z M1814.1,1181.1l1.4-0.7
	c0-0.7,0-1.4-0.7-1.4c-1.4,0-2.2,0.7-2.2,1.4L1814.1,1181.1z M1829.9,1191.1l0.7-0.7c0.7-0.7,0.7-1.4,0.7-2.2v-0.7
	c-0.7,0-0.7,0.7-1.4,1.4V1191.1L1829.9,1191.1z M1789.7,1191.9l3.6-2.2h-0.7c-0.7,0-1.4,0.7-2.2,1.4L1789.7,1191.9z M1820.6,1196.2
	l2.9-1.4h2.2l1.4-2.2c0-0.7-0.7-1.4-2.2-1.4c-0.7,0.7-2.2,0.7-2.2,1.4c-0.7,1.4-1.4,2.2-2.2,2.2h-0.7v0.7L1820.6,1196.2z
	 M1809.1,1196.2v-0.7c0-0.7-0.7-0.7-1.4-0.7c-0.7,0-0.7,0-0.7,0.7s0.7,0.7,1.4,0.7H1809.1z M1799,1199.1l1.4-2.2h-0.7l-1.4,1.4
	C1798.3,1199.1,1798.3,1199.1,1799,1199.1z M1788.9,1209.1l1.4-2.2h-0.7c-0.7,0-1.4,0-1.4,0.7
	C1788.2,1208.4,1788.2,1209.1,1788.9,1209.1z M1818.4,1211.3c-0.7,0-1.4,0-1.4-0.7l0.7-0.7l2.2,0.7
	C1819.9,1211.3,1819.1,1211.3,1818.4,1211.3L1818.4,1211.3z M1801.9,1214.2l0.7-0.7l-1.4-1.4l-0.7,0.7
	C1800.4,1213.4,1801.2,1214.2,1801.9,1214.2z M1814.8,1214.9c-0.7,0-0.7-0.7-0.7-1.4v-1.4l0.7,0.7V1214.9z M1804.8,1221.4
	c0.7,0,0.7-0.7,0.7-2.2s0-2.2-0.7-2.9h-0.7v2.2C1804,1219.9,1804,1221.4,1804.8,1221.4z M1806.9,1219.2c0.7,0,0.7-0.7,1.4-1.4
	c0-1.4,0-1.4-0.7-1.4L1806.9,1219.2z M1749.4,1219.9l-0.7-0.7v-2.2h0.7c0.7,0,0.7,1.4,0.7,2.2L1749.4,1219.9z M1800.4,1225
	c1.4,0,2.2-1.4,2.2-2.2c-0.7-0.7-2.9-1.4-4.3-1.4c-0.7,0-0.7,0.7-0.7,0.7c0,0.7,0.7,1.4,1.4,2.2L1800.4,1225z M1789.7,1232.1
	l1.4-0.7c0.7-0.7,2.9-2.2,5-2.9l2.2-1.4l-1.4-0.7c-0.7,0-2.2,0-2.2,0.7s-1.4,1.4-2.2,1.4c-1.4,0-2.2,0.7-2.2,2.2L1789.7,1232.1z
	 M1783.2,1238.6c0,0,0.7-0.7,0.7-2.2c0-0.7,0-1.4-0.7-1.4c-0.7,0-0.7,1.4-0.7,2.2S1782.5,1238.6,1783.2,1238.6z M1793.3,1239.3
	l-1.4-0.7c0-0.7,0-0.7,1.4-0.7c0.7,0,0.7,0,0.7,0.7L1793.3,1239.3z M1801.9,1242.9c-0.7,0-1.4,0-1.4-0.7l-0.7-4.3
	c0.7,0,0.7,0.7,1.4,1.4l1.4,2.9C1802.6,1242.9,1802.6,1242.9,1801.9,1242.9z M1780.3,1249.4l2.2-1.4h-2.2l-1.4,0.7
	C1778.9,1249.4,1779.6,1249.4,1780.3,1249.4z M1782.5,1252.3l1.4-0.7l1.4-2.9c0-0.7,0-0.7-0.7-0.7c0,0.7-0.7,0.7-0.7,0.7l-1.4,2.9
	V1252.3z M1768.1,1265.9c0.7,0,2.9-1.4,5-3.6c1.4-1.4,2.9-2.9,2.9-3.6v-0.7c-0.7,0-2.2,1.4-3.6,2.9c-1.4,1.4-3.6,2.9-4.3,2.9
	c-0.7,0-1.4,0-1.4,0.7S1767.4,1265.9,1768.1,1265.9L1768.1,1265.9z M1724.9,1296.1c-1.4,0-2.2-0.7-2.2-1.4s0.7-0.7,1.4-0.7h0.7
	c0.7,0,1.4,0.7,1.4,1.4L1724.9,1296.1z M1714.1,1296.9c-0.7,0-2.2,0-2.2-0.7c0-0.7,0.7-1.4,2.2-1.4h0.7c0.7,0,1.4,0.7,1.4,1.4
	C1716.3,1296.1,1715.6,1296.9,1714.1,1296.9L1714.1,1296.9z M2058.5,1317.7l-0.7-1.4c-0.7-1.4-0.7-2.2-2.2-2.2l-2.9,1.4l-1.4,1.4
	l-1.4-1.4l-1.4,1.4l-1.4-0.7c0-0.7,0-1.4,0.7-2.2l0.7-0.7h-1.4c-0.7,0-1.4,0-1.4,0.7v2.9l-3.6-3.6c-1.4-2.2-2.2-2.9-2.9-2.9h-0.7
	c0,0-0.7-0.7-0.7-2.2c-0.7-4.3-2.9-7.9-3.6-7.9c-0.7,0-0.7,0.7-0.7,1.4c0,0.7,0,1.4-0.7,1.4l-2.9-1.4c-1.4-1.4-2.2-5.8-5.8-20.1
	c-0.7-2.9-0.7-14.4-1.4-29.5c0-13.7,0-25.9-0.7-26.6v-5c0-2.2,0-7.2-0.7-10.8c0-4.3,0-5.8-0.7-5.8l-3.6,5.8
	c-0.7,0.7-0.7,1.4-1.4,1.4c0-0.7,0-0.7-0.7-0.7c-0.7,0.7-0.7,2.2-0.7,3.6s0,2.9-1.4,4.3l-2.2,4.3c0,0.7-0.7,1.4-3.6,1.4h-0.7h0.7
	l1.4,1.4l-1.4,0.7c-0.7,0-2.2,2.2-3.6,4.3c-0.7,1.4-2.2,3.6-2.9,3.6l-1.4,2.2c0,2.2-3.6,5.8-5,5.8h-0.7c-0.7,0-0.7,0-0.7,0.7v0.7
	l-0.7,2.2l-0.7,3.6c0,2.2-2.2,5.8-5,8.6c-2.2,1.4-3.6,3.6-3.6,4.3c0,1.4-0.7,1.4-3.6,1.4c-0.7,0-0.7,0-0.7,0.7l0.7,1.4
	c0,2.2-5,8.6-7.9,10.1c-1.4,0-1.4,0.7-1.4,1.4c0,2.2-10.8,12.2-12.9,12.2l-4.3,2.2c-1.4,1.4-5,2.9-7.9,3.6l-9.3,0.7
	c-2.2,0-4.3,0-4.3-0.7c0,0,0-0.7-1.4-0.7c-5.8-0.7-11.5-1.4-12.9-2.9c-0.7-0.7-2.2-0.7-2.2-0.7l-4.3-1.4c-1.4-1.4-4.3-2.9-5.8-2.9
	c-0.7-0.7-1.4-0.7-1.4-1.4l1.4-0.7l-2.2-1.4c-0.7-0.7-2.2-0.7-2.9-0.7h-0.7v-0.7c0-0.7-0.7-1.4-2.2-1.4c-1.4,0-3.6-2.2-5.8-3.6
	c-2.2-2.2-5-4.3-6.5-5c-2.2-0.7-3.6-2.2-4.3-3.6c0-1.4-1.4-2.9-2.2-3.6c-0.7-0.7-1.4-1.4-1.4-2.2s-0.7-1.4-1.4-2.2
	c-7.2-7.9-13.7-16.5-17.3-24.5c-0.7-1.4-2.2-5.8-4.3-8.6c-1.4-5-2.9-8.6-3.6-16.5l-0.7-12.9l0.7-6.5c0.7,0,0.7-1.4,0.7-3.6
	c0-2.9,0.7-5,2.2-6.5c1.4-0.7,2.9-3.6,3.6-5.8c0.7-2.9,1.4-5,2.9-6.5c0.7-0.7,1.4-2.2,1.4-3.6c0-0.7,0.7-2.2,1.4-2.2
	c0.7-0.7,8.6-12.2,8.6-12.9c0-0.7,0-1.4,0.7-1.4s0.7,0,0.7-1.4c0-0.7,0.7-1.4,1.4-1.4l5.8-7.2c1.4-0.7,3.6-3.6,3.6-5.8l-0.7-1.4
	c0-0.7,0-0.7,0.7-0.7h0.7l1.4-0.7l0.7-0.7l-0.7-0.7c0,0,0-0.7,0.7-0.7c1.4-0.7,2.9-2.9,4.3-5c2.2-2.2,3.6-5,4.3-5
	c2.2-2.9,12.9-15.8,12.9-16.5l2.2-1.4c0.7,0,2.2-1.4,2.2-2.9c0.7-2.2,13.7-15.8,20.9-20.9l16.5-13.7l7.9-4.3
	c1.4-0.7,2.2-1.4,2.2-2.2v-1.4l3.6-1.4c5-2.2,19.4-5.8,25.2-6.5l6.5-0.7l1.4-0.7c0.7,0,0.7,0.7,0.7,1.4c0,0.7,1.4,2.2,2.9,3.6
	l3.6,2.9l2.2,0.7c0.7,0,1.4,0.7,1.4,1.4c0.7,1.4,1.4,2.9,2.9,3.6c6.5,3.6,12.2,10.1,13.7,13.7c0.7,2.9,1.4,3.6,2.9,3.6
	c0.7,0,1.4-1.4,1.4-2.2v-0.7h0.7v-4.3h0.7l1.4-0.7c0.7-0.7,1.4-11.5,1.4-18c0-2.9,0.7-5.8,1.4-7.2c0.7-1.4,1.4-3.6,1.4-5
	c0-1.4,0-2.9,0.7-2.9s1.4,0.7,1.4,1.4c0,1.4,1.4,2.2,2.9,2.2c2.2,0.7,4.3,1.4,5,2.2c0,0.7,1.4,1.4,2.9,1.4c0.7,0,2.9,0.7,5,2.2
	c1.4,1.4,3.6,2.9,4.3,2.9c1.4,0.7,2.2,2.2,2.9,3.6c0,2.2,1.4,2.9,4.3,4.3c2.2,1.4,4.3,2.9,4.3,4.3c0.7,1.4,2.2,3.6,3.6,4.3
	c1.4,1.4,2.2,2.9,2.2,4.3c0,1.4,0.7,2.2,1.4,2.2l1.4-1.4h0.7c0,0,0.7,0.7,0.7,2.2s0,3.6,0.7,3.6l0.7,12.2c0,10.1-0.7,21.6-1.4,23
	c-0.7,2.9-1.4,10.8-1.4,15.8c0,1.4,0,2.9-0.7,3.6c-0.7,2.2-0.7,5-0.7,13.7c-0.7,3.6-0.7,7.2-1.4,7.2s-0.7,1.4-0.7,2.9l-0.7,3.6
	c-0.7,0-0.7,0-0.7,0.7v0.7c0,0.7,0,2.2-0.7,3.6l-0.7,2.2l1.4,2.2l-1.4,1.4l1.4,1.4l-1.4,3.6c-0.7,1.4-0.7,4.3-0.7,5.8
	c0,0.7-0.7,2.2-1.4,2.2s-0.7,0.7-0.7,1.4l0.7,1.4c0.7,0,1.4,0.7,1.4,1.4l-0.7,2.9l-0.7,4.3l0.7,0.7l-0.7,2.2
	c-0.7,1.4-0.7,4.3-0.7,6.5s0,3.6-0.7,3.6c-0.7,0-0.7,0-0.7,0.7v0.7c0.7,0.7,0.7,7.9,0.7,15.1l0.7,15.8l1.4-1.4l0.7,0.7l-1.4,2.2
	c-1.4,0.7-1.4,1.4-1.4,2.9c0.7,2.9,2.2,19.4,2.2,29.5c0,3.6,0,6.5-0.7,6.5s-1.4,1.4-1.4,2.9l0.7,2.9c1.4,1.4,2.2,4.3,2.2,5.8v1.4
	c-0.7,0-0.7,0.7-0.7,1.4l-0.7,4.3l-1.4,6.5c0,1.4,0,2.9-0.7,3.6l-0.7,2.9c0,2.2,0,2.2-2.2,2.2h-0.7c-0.7,0-0.7,0.7-0.7,2.9
	c0,1.4,0,2.2-0.7,2.2l-1.4-1.4L2058.5,1317.7z M1989.5,1043.7h-2.2c-0.7,0-0.7-0.7-0.7-1.4c0,0,0-0.7,1.4-0.7c0.7,0,1.4,0,1.4,1.4
	V1043.7z M1992.4,1045.2l-0.7-0.7l1.4-1.4l1.4,1.4L1992.4,1045.2z M2024.7,1081.1l0.7-0.7l0.7-2.9c-0.7,0-0.7,0-0.7,0.7
	c-0.7,0.7-1.4,1.4-1.4,2.2L2024.7,1081.1z M1905.3,1246.5l5-0.7c2.2,0,5-0.7,5.8-1.4l2.9-1.4c2.2-0.7,8.6-3.6,10.8-5.8l5.8-4.3
	l2.9-2.9c1.4-2.9,3.6-5,5-5c1.4,0,9.3-10.1,9.3-12.2v-0.7l1.4-2.9c-0.7-2.2-0.7-2.2-2.9-2.2l-3.6-0.7c-0.7,0-0.7,0.7-0.7,1.4
	c-0.7,0-0.7-0.7-0.7-1.4c0-0.7,0.7-1.4,2.2-2.2l1.4-0.7v-2.9l0.7-0.7c1.4,0,2.9,1.4,2.9,2.2h-1.4c-0.7,0-1.4,0.7-1.4,2.2v2.2
	c4.3-3.6,8.6-5.8,10.1-12.2c0.7-2.2,2.2-4.3,4.3-4.3c1.4,0,2.2-0.7,2.2-1.4c0-0.7,0-0.7,0.7-0.7h1.4v-0.7c0-1.4,0.7-2.2,1.4-2.2
	c0.7,0,1.4-0.7,1.4-1.4l-0.7-2.2l1.4,0.7c0,0,0.7,0,0.7-0.7c0-0.7,0.7-0.7,1.4-0.7c0.7,0,1.4-0.7,1.4-1.4c0-1.4,0-1.4-0.7-1.4
	l-0.7,0.7v-0.7c0-0.7,0-2.9,1.4-5c0.7-0.7,1.4-2.2,1.4-3.6v-1.4h3.6c0.7,0,1.4,0,1.4-0.7v-1.4c0-2.2,0.7-3.6,3.6-5.8
	c2.2-2.2,2.9-2.9,2.9-5v-1.4c0-3.6,1.4-7.2,3.6-7.2c0.7,0,1.4-0.7,1.4-1.4c0-1.4,0.7-2.2,1.4-2.2h0.7c0,0,0.7-0.7,0.7-4.3v-0.7h0.7
	l1.4-2.2c0-1.4,0.7-2.9,1.4-2.9c0.7,0,0.7-0.7,0.7-1.4l-0.7-1.4l1.4-0.7c0.7,0,1.4-0.7,1.4-2.2l0.7-2.9c0.7,0,1.4-0.7,1.4-1.4
	c0-0.7,0.7-0.7,1.4-0.7h0.7c0.7,0,0.7-0.7,0.7-3.6c0-0.7,0.7-1.4,2.2-2.2c1.4,0,1.4-0.7,1.4-2.2v-2.2c0.7,0,1.4-1.4,1.4-2.2
	c0-1.4,0.7-3.6,2.2-5c2.2-2.9,2.9-5,2.9-7.2c0-2.9-1.4-4.3-5-4.3h-2.9c-6.5,0.7-16.5,4.3-16.5,5.8c0,0.7-0.7,0.7-1.4,0.7h-0.7
	c-1.4,0-8.6,4.3-8.6,5c0,1.4-2.2,3.6-5.8,5.8l-6.5,5c-1.4,2.2-2.9,2.9-3.6,2.9c0-0.7,0.7-2.2,2.2-2.9l0.7-2.2c-0.7,0-2.9,2.2-5.8,5
	l-7.2,5.8c-2.2,2.2-9.3,10.1-9.3,10.8c0.7,0,4.3-3.6,8.6-7.9c4.3-4.3,8.6-7.2,8.6-7.2v0.7c0,0.7-1.4,2.2-2.9,3.6
	c-2.2,1.4-3.6,3.6-3.6,3.6s-2.9,3.6-6.5,6.5l-6.5,6.5c0,0.7-2.2,2.9-4.3,5.8c-2.9,3.6-5,5.8-5,6.5l-1.4,0.7l-0.7-0.7
	c0-1.4,3.6-5.8,7.9-10.8c2.2-2.2,3.6-3.6,3.6-4.3c-1.4,0-4.3,2.9-12.2,12.2l-2.9,4.3l2.2-0.7c0,1.4-1.4,2.9-3.6,6.5
	c-5,7.2-7.2,10.1-7.2,11.5l0.7,1.4l-1.4-0.7l-3.6,1.4l0.7-1.4c0-0.7,0-1.4-1.4-1.4c-0.7,0-1.4,0.7-1.4,1.4c0,0.7,0,1.4-0.7,1.4
	s-2.9,4.3-2.9,7.2v0.7c0,0.7,0,0.7-0.7,0.7h-1.4c0,0.7,0,1.4-0.7,1.4s-0.7,0-0.7,0.7l-1.4,4.3l-1.4,2.9l1.4,1.4l-0.7,0.7
	c-0.7,0-0.7,1.4-0.7,2.2c0,0.7,0,0.7-0.7,0.7s-2.2,1.4-2.9,3.6l-2.2,4.3c-0.7,0-0.7,0-0.7,0.7v0.7l-2.2,5.8c-2.2,5-2.9,7.2-2.9,8.6
	l0.7,1.4l0.7,0.7l-1.4,1.4c-0.7,0.7-1.4,1.4-1.4,2.2l1.4,10.1l0.7,2.2c0.7,0.7,0.7,2.2,0.7,4.3c0,2.9,0.7,2.9,2.9,2.9h3.6
	L1905.3,1246.5z M1989.5,1107h-1.4l-0.7-0.7v-0.7L1989.5,1107z M2006.7,1115.6l0.7-3.6l1.4-0.7v0.7l-1.4,2.9L2006.7,1115.6z
	 M1899.6,1119.9l1.4-0.7c0-0.7,0-1.4-0.7-1.4l-0.7,1.4V1119.9z M2021.1,1120.7v-0.7c0-0.7,0-0.7-0.7-0.7c-0.7,0-0.7,0-0.7,0.7
	L2021.1,1120.7z M2008.2,1143.7c0,0,1.4-0.7,1.4-1.4c0-0.7,0-0.7-0.7-0.7s-1.4,0.7-2.2,1.4c0,0.7,0,0.7,0.7,0.7H2008.2z
	 M2019,1155.9l0.7-0.7v-1.4c-0.7,0-1.4,0.7-1.4,1.4L2019,1155.9z M1886.6,1160.2l0.7-1.4l-0.7-0.7l-1.4,1.4
	C1885.2,1160.2,1885.9,1160.2,1886.6,1160.2z M1926.9,1160.2l1.4-1.4l-0.7-0.7l-1.4,1.4C1926.2,1160.2,1926.9,1160.2,1926.9,1160.2z
	 M1921.2,1168.1l1.4-1.4c0.7-0.7,1.4-1.4,1.4-2.2c-1.4,0-3.6,2.2-3.6,2.9L1921.2,1168.1z M1990.9,1166.7c0.7,0,1.4-0.7,1.4-1.4h-0.7
	c-0.7,0.7-1.4,0.7-1.4,1.4H1990.9z M2017.5,1178.9c1.4,0,3.6-3.6,4.3-5.8v-2.2l-0.7,1.4c-0.7,1.4-1.4,2.9-2.2,2.9
	c-0.7,0.7-1.4,1.4-1.4,2.9L2017.5,1178.9L2017.5,1178.9z M2060.7,1176l0.7-0.7v-1.4h-0.7c0,0-0.7,0-0.7,0.7
	C2060,1176,2060,1176,2060.7,1176z M1917.6,1177.5c-0.7,0-0.7-0.7-0.7-1.4c0,0,0.7,0,0.7-0.7c0.7,0,0.7,0,0.7,0.7l0.7,0.7
	C1919,1177.5,1919,1177.5,1917.6,1177.5L1917.6,1177.5z M2013.9,1185.4l1.4-2.2h-0.7l-0.7,1.4V1185.4z M2017.5,1191.9l2.9-5.8
	c-0.7,0-0.7,0.7-2.2,1.4l-1.4,3.6L2017.5,1191.9z M1903.2,1193.3l1.4-0.7c0-0.7-0.7-0.7-1.4-1.4h-1.4v1.4L1903.2,1193.3z
	 M2016.8,1194.7l0.7-1.4c-0.7-0.7-1.4-1.4-2.2-1.4h-0.7L2016.8,1194.7z M1952.8,1198.3c-0.7,0-0.7,0-0.7-0.7v-0.7
	c0-0.7,0.7-1.4,1.4-1.4s0.7,0,0.7,0.7C1954.2,1196.9,1953.5,1197.6,1952.8,1198.3z M2004.6,1199.8l1.4-0.7l1.4-2.9
	c0,0,0-0.7-0.7-0.7s-0.7,0.7-0.7,0.7v0.7L2004.6,1199.8z M2021.1,1201.2c0.7,0,1.4-0.7,1.4-2.2s-0.7-2.9-1.4-2.9h-0.7
	c-1.4,0-2.9,0.7-2.9,2.2v0.7l2.2-0.7c0.7,0,0.7,0,0.7,0.7v1.4C2020.4,1201.2,2021.1,1201.2,2021.1,1201.2L2021.1,1201.2z
	 M1898.9,1200.5c0.7,0,1.4-0.7,1.4-1.4v-1.4c0,0,0,0.7-0.7,0.7c-0.7,0.7-1.4,1.4-1.4,2.2L1898.9,1200.5L1898.9,1200.5z
	 M2012.5,1204.8l-1.4-2.2c0-1.4-0.7-1.4-0.7-1.4h-0.7C2009.6,1203.4,2011.1,1204.8,2012.5,1204.8z M2013.9,1207l1.4-0.7l0.7-2.9
	c0-0.7-0.7-0.7-0.7-0.7l-0.7,1.4L2013.9,1207z M2009.6,1208.4v-1.4l-1.4-2.2c-0.7,0-1.4,0-1.4,0.7
	C2006.7,1207.7,2008.9,1208.4,2009.6,1208.4z M1993.1,1209.1c0.7,0,1.4-0.7,1.4-1.4l0.7-1.4h-0.7c-0.7,0-0.7,0.7-1.4,1.4l-0.7,0.7
	L1993.1,1209.1z M1998.1,1209.8c0.7,0,1.4-0.7,2.2-1.4l0.7-1.4L1998.1,1209.8z M2009.6,1214.2l2.2-2.9l0.7-1.4l-0.7-0.7l-2.2,2.9
	l-0.7,1.4L2009.6,1214.2z M2004.6,1212.7c1.4,0,2.2,0,2.2-0.7v-0.7c0-1.4,0-1.4-0.7-1.4l-1.4,0.7l-2.2,1.4
	C2002.4,1212.7,2003.1,1212.7,2004.6,1212.7z M1945.6,1212c-0.7,0-0.7,0-0.7-0.7l1.4-0.7c0.7,0,0.7,0,0.7,0.7L1945.6,1212z
	 M2003.1,1217.8l0.7-0.7c0.7-0.7,0.7-1.4,0.7-2.2h-0.7c-0.7,0-0.7,0-0.7,1.4V1217.8z M2001,1220.6c0.7,0,0.7,0,0.7-0.7l-0.7-1.4
	c-0.7,0-0.7,0-0.7,0.7C2000.3,1219.9,2000.3,1220.6,2001,1220.6z M2008.9,1220.6c0.7,0,0.7-0.7,0.7-1.4c0-0.7,0-0.7-0.7-0.7
	l-1.4,1.4C2007.5,1220.6,2008.2,1220.6,2008.9,1220.6z M1998.1,1225l0.7-1.4l-0.7-0.7c-0.7,0-0.7,0.7-0.7,0.7
	C1997.4,1224.2,1997.4,1225,1998.1,1225z M1996,1229.3l0.7-0.7c0.7-0.7,1.4-1.4,1.4-2.2h-0.7l-1.4,1.4v-1.4h-0.7
	c-0.7,0-0.7,0.7-0.7,2.2L1996,1229.3z M2001.7,1230.7c0.7,0,0.7-0.7,1.4-1.4v-0.7c-0.7,0-1.4,0.7-1.4,1.4V1230.7z M1931.9,1232.9
	l-1.4-1.4c0-0.7,0-0.7,0.7-0.7l1.4,0.7C1932.7,1232.1,1932.7,1232.9,1931.9,1232.9z M1975.1,1260.9l2.2-0.7l0.7-1.4
	c0,0,0-0.7-0.7-0.7c-0.7,0-2.2,0.7-2.2,2.2V1260.9L1975.1,1260.9z M1999.4,1355.1c-0.7,0-0.7,0-0.7-0.7v-2.2h-2.2l0.7-1.4
	c0-0.7,0.7-1.4,1.4-1.4c0.7,0,0.7,0,0.7-0.7s-0.7-0.7-1.4-0.7s-2.2,0-2.2,1.4l-1.4,0.7l-0.7-1.4l1.4-1.4h-0.7
	c-1.4,0-3.6-0.7-3.6-1.4s0.7-0.7,2.2-0.7h1.4l-2.2-1.4v-0.7c0-0.7,0-1.4-0.7-1.4l-4.3-2.2l-0.7,1.4c-0.7,0-1.4-0.7-1.4-1.4
	s0.7-1.4,1.4-1.4l0.7-0.7c0-0.7-0.7-0.7-2.2-0.7l-1.4,0.7v-5l-3.6,0.7c-0.7,0-0.7,0-0.7-2.2c0-0.7,0-2.2,0.7-2.2h0.7l-0.7-0.7
	c0-0.7-1.4-0.7-2.2-0.7c-2.2,0-5.8-5-5.8-6.5v-0.7c0.7,0,0.7-1.4,0.7-2.2c0-2.9,6.5-7.9,12.2-11.5l5.8-2.9l2.2-1.4l1.4,1.4h0.7
	l0.7-0.7h-0.7l-0.7-1.4h2.2c0.7,0,0.7,0.7,0.7,1.4c0,0.7,0,1.4,0.7,1.4l0.7-0.7l-1.4-2.2v-1.4c0-0.7,4.3-2.9,5.8-2.9
	c1.4,0,2.2-0.7,2.9-1.4c0.7-1.4,2.2-2.2,3.6-2.9c0.7,0,2.9-1.4,3.6-2.9c1.4-1.4,2.9-2.9,3.6-2.9l7.9-2.9c4.3-1.4,5.8-2.9,5.8-2.9
	v-0.7c-0.7-0.7-1.4-1.4-1.4-2.2l0.7,0.7l5,1.4c3.6,0,7.2-2.9,7.2-4.3v-1.4c0-0.7,1.4-1.4,5-3.6l7.2-4.3l4.3-2.2
	c0-0.7,1.4-1.4,3.6-2.2l2.9-1.4c0-0.7,0.7-0.7,1.4-0.7c0.7,0,1.4,0,2.2-0.7s2.2-1.4,3.6-1.4l2.9-1.4c0.7-0.7,2.9-0.7,5-0.7
	c3.6,0,4.3,0,4.3-1.4c0-1.4-0.7-2.2-1.4-2.2l0.7-1.4c0.7-0.7,2.2-0.7,2.2-0.7l4.3-0.7l2.9-0.7v0.7h0.7c0.7,0,1.4,0,1.4-0.7
	s1.4-1.4,3.6-2.2c1.4-0.7,3.6-2.2,5-2.2c0.7-0.7,2.2-0.7,2.9-0.7c0.7,0,1.4-0.7,1.4-1.4c0-0.7,0.7-0.7,1.4-0.7h0.7
	c1.4,0,2.2,0,2.2-0.7s0-0.7,0.7-0.7s0.7,0,0.7,0.7l-0.7,0.7l0.7,0.7l1.4-0.7c0.7,0,1.4-0.7,1.4-1.4v-0.7h2.2c0.7,0,2.2,0,2.9-0.7
	c0.7-0.7,1.4-1.4,2.2-1.4s1.4-0.7,1.4-1.4l-0.7-1.4l-3.6,0.7l0.7-1.4c0.7-1.4,2.2-2.2,4.3-2.2l3.6,1.4l2.9-1.4
	c2.2-1.4,3.6-2.9,3.6-4.3l0.7-1.4l-1.4,0.7l-1.4,2.9l-1.4,0.7c-0.7,0-1.4-0.7-1.4-1.4l-4.3-2.2l-2.2-0.7h-1.4c-1.4,0-2.9,0-2.9-0.7
	h-2.2c-2.2,0-2.2-0.7-2.9-2.2l-0.7-2.9c-0.7,0-0.7-0.7-0.7-2.2c0-0.7,0-1.4-0.7-1.4h-0.7l0.7,0.7c0,0.7,0,1.4-1.4,1.4
	c-0.7,0-0.7,1.4-0.7,2.2c0.7,0.7,0.7,1.4,1.4,1.4h0.7v2.2l-1.4-0.7c-1.4-0.7-2.9-0.7-3.6-0.7c-0.7,0-1.4,0-1.4-0.7
	c0-0.7,0-1.4-0.7-1.4c-0.7,0-1.4,0-1.4-0.7h-2.9l-5.8-2.9l-2.2,1.4l-1.4,0.7v-1.4c0-1.4-0.7-2.9-1.4-3.6l-1.4-0.7l-0.7,0.7l1.4,3.6
	c-1.4,0-10.8-6.5-14.4-10.1c-10.8-11.5-12.2-13.7-12.2-14.4v-0.7c0-0.7-0.7-1.4-1.4-2.2c-1.4-0.7-2.2-2.2-2.9-5
	c0-2.2-1.4-3.6-1.4-4.3c-0.7,0-2.2-1.4-2.2-3.6l-3.6-7.9c-1.4-2.9-3.6-8.6-4.3-12.2c-0.7-3.6-2.2-7.2-2.9-9.3l-0.7-4.3
	c0-6.5,2.2-15.8,3.6-17.3c0.7-0.7,1.4-1.4,1.4-2.2s0-1.4,0.7-1.4c0.7,0,6.5-5.8,6.5-6.5h-1.4l-1.4-0.7l-0.7-1.4l1.4-1.4
	c0.7-1.4,2.2-2.2,2.9-2.2c2.2,0,6.5-4.3,6.5-5v-0.7c0-0.7,0-1.4,0.7-2.2l0.7-2.2l-0.7,0.7c-0.7,0.7-1.4,0.7-2.2,0.7v-0.7l2.9-5.8
	c2.9-3.6,5-6.5,5.8-6.5l0.7,0.7c0,0.7-0.7,2.2-2.9,3.6l-3.6,5.8l0.7,0.7c0.7,0,5.8-4.3,5.8-5l6.5-7.9c4.3-4.3,7.2-7.9,7.2-8.6
	c0-0.7,0.7-0.7,1.4-0.7s6.5-5,6.5-6.5c0-0.7,3.6-3.6,7.2-7.2c4.3-2.9,7.2-6.5,7.2-6.5l-0.7-0.7h1.4c0.7,0,2.2-0.7,3.6-2.2
	c2.2-0.7,4.3-2.2,4.3-2.9c0.7-0.7,2.9-1.4,4.3-2.9s2.9-2.2,3.6-2.2s1.4-0.7,2.2-1.4l2.9-1.4l2.9-0.7c0-0.7,1.4-1.4,2.2-1.4
	c1.4,0,2.9,0,4.3-0.7c1.4-1.4,6.5-2.2,10.8-3.6c3.6-0.7,5.8-0.7,5.8-1.4h-0.7c-1.4,0-2.2-0.7-2.2-0.7v-0.7h2.2c0.7,0,1.4,0,1.4-0.7
	l0.7-0.7c0,0.7,0.7,0.7,1.4,0.7c0.7,1.4,2.9,1.4,3.6,1.4h0.7c0.7,0,1.4,0.7,2.2,1.4l3.6,2.9c0.7,0.7,2.9,2.2,3.6,4.3l2.9,4.3
	c0.7,0.7,2.2,2.9,2.9,5.8c0.7,2.2,3.6,6.5,5,8.6l2.9,5.8l-0.7,2.2l2.2,2.2l-1.4,2.9l-0.7,2.9l1.4-0.7l-0.7,1.4c0,0.7,0,1.4,0.7,2.2
	l0.7,0.7h-1.4c-0.7,0-0.7,0-0.7,0.7l0.7,4.3h-2.2c0.7,0,0.7,0.7,0.7,1.4c0,0,0,0.7-1.4,0.7c-0.7,0-0.7-0.7-0.7-1.4l-0.7-1.4
	l-0.7,0.7c0,0.7,0,0.7-0.7,0.7h-0.7l-1.4,0.7v0.7l-1.4-1.4c-0.7-0.7-2.2-0.7-2.2-0.7l0.7-2.9c0-0.7-0.7-0.7-2.2-1.4
	c-1.4,0-2.9,0.7-3.6,1.4l-2.2,0.7h-2.9l0.7,1.4c0,0.7-0.7,0.7-2.2,0.7l-0.7-0.7v-1.4l-1.4,0.7l-0.7,1.4l1.4,2.9
	c0,0.7-0.7,1.4-2.9,2.2c-2.2,0.7-4.3,0.7-5,0.7c-1.4,0-2.2,0.7-2.9,2.2l-1.4,0.7c0-0.7-0.7-0.7-0.7-0.7l-0.7,1.4v0.7
	c0,0.7-2.2,1.4-3.6,1.4h-2.9l0.7,0.7l0.7,1.4c0,0.7-0.7,1.4-2.2,1.4l-0.7-0.7v-2.2l-0.7,0.7c-0.7,0-1.4,0.7-1.4,1.4l-1.4,0.7
	c-0.7,0-1.4,0.7-1.4,1.4c0,0.7,0,1.4,0.7,1.4s0.7,0,0.7,0.7l-1.4,1.4l-0.7-1.4v-0.7h-0.7c-0.7,0-2.9,1.4-4.3,2.9l-3.6,2.9l-1.4-0.7
	c-1.4,0-2.2,0.7-2.9,1.4c-1.4,0.7-2.9,2.2-2.9,2.9l-0.7,0.7v-0.7c0-0.7,0-2.2,0.7-3.6l0.7-1.4l-1.4,0.7c-1.4,0-1.4,0.7-1.4,5v3.6
	l-1.4-1.4l-2.2,1.4l-0.7,1.4h1.4c0.7,0,0.7,0,0.7,0.7v0.7c-0.7,2.2-2.9,3.6-7.2,3.6c-0.7,0-1.4,1.4-1.4,2.2c0,1.4-0.7,2.2-1.4,2.2
	s-0.7,0.7-0.7,1.4c0,1.4-0.7,2.2-2.2,2.2s-2.9,0-2.9,0.7c0,0.7,0,2.2-1.4,2.9c-0.7,1.4-0.7,1.4-1.4,1.4l-1.4-2.2l-1.4,2.2
	c0,0.7,0.7,1.4,1.4,2.2c2.2,1.4,2.2,2.2,2.2,4.3c-0.7,1.4-0.7,2.2-1.4,2.2h-0.7c-2.2,0-5.8,2.9-5.8,5v1.4h-0.7
	c-0.7,0-1.4,0.7-1.4,1.4c0,0,0,0.7,0.7,0.7c0,0.7-0.7,2.2-2.2,3.6c-2.9,2.9-4.3,5-4.3,6.5l0.7,2.2c0,0,1.4,1.4,3.6,2.2l4.3,2.9
	c0.7,0.7,1.4,1.4,2.2,1.4l3.6,1.4l3.6,0.7l2.9,0.7c1.4,1.4,2.9,2.2,4.3,2.2c2.2,0,2.9,0,2.9,0.7s10.1,2.9,14.4,2.9h2.2l1.4,0.7
	c0.7,0.7,0.7,1.4,1.4,1.4h0.7c0.7,0,1.4,0,2.2,0.7l0.7,0.7l1.4-1.4l1.4-0.7c0,1.4,0.7,1.4,1.4,1.4c1.4,0,2.2,0,3.6-0.7
	c0.7-0.7,2.9-0.7,2.9-0.7c0.7,0.7,2.2,0.7,3.6,0.7l2.9,0.7l0.7,0.7v-1.4l1.4,0.7c0.7,0.7,0.7,1.4,0.7,2.2c0,0,0,0.7,0.7,0.7
	s0.7-0.7,0.7-1.4c0-0.7,0.7-1.4,1.4-1.4l0.7,0.7l4.3,0.7h4.3c0,0.7,0.7,0.7,1.4,0.7c3.6,0.7,11.5,3.6,12.2,4.3l4.3,2.9
	c5,2.9,16.5,12.2,16.5,14.4c0,0.7,6.5,10.8,7.9,12.9c0.7,0.7,1.4,2.2,1.4,4.3l1.4,3.6c1.4,1.4,2.2,8.6,2.2,12.9v2.9
	c0,2.9-0.7,4.3-2.2,5c-0.7,0.7-1.4,1.4-1.4,2.2v0.7l-1.4,1.4c-1.4,0.7-2.2,1.4-2.2,2.2v0.7c0,0.7-0.7,0.7-1.4,0.7s-1.4,0-2.2-0.7
	l-4.3-2.2l0.7,2.2c0,1.4-0.7,2.2-2.2,3.6c-2.2,2.2-3.6,2.9-5,2.9c-0.7,0-1.4,0-1.4-1.4c0-1.4,0.7-1.4,1.4-1.4h0.7
	c0.7,0,1.4,0,1.4-0.7l2.9-1.4c0.7,0,0.7,0,0.7-0.7l-1.4-0.7l-2.2,0.7c0,0.7-2.2,1.4-4.3,2.9c-2.2,0.7-5,2.9-5.8,3.6
	s-1.4,1.4-2.2,1.4s-1.4,0.7-1.4,1.4h-0.7c-1.4,0-1.4,0-1.4,0.7c0,1.4-7.2,5.8-10.8,5.8c-1.4,0-2.2,0.7-2.2,0.7v0.7
	c0,0.7-0.7,1.4-2.2,1.4c-0.7,0-1.4,0.7-1.4,1.4s-1.4,1.4-2.2,2.2c-1.4,0-2.2,0.7-2.2,1.4l0.7,0.7l-3.6,0.7l-2.9-0.7l-0.7-0.7v0.7
	c0,1.4-1.4,2.9-2.2,2.9l-1.4-2.2v1.4c0,0.7-0.7,1.4-1.4,2.2h-0.7v-2.9c-0.7,0-0.7,0-1.4,1.4c-0.7,0.7-1.4,1.4-2.2,1.4l-4.3,1.4
	c-2.9,0.7-4.3,1.4-4.3,2.9s-0.7,2.2-1.4,2.2h-1.4c0,0.7-0.7,0.7-1.4,0.7l-0.7-1.4v-0.7l-0.7,0.7l-3.6,0.7l-5,2.2l-1.4-0.7
	c0,0,0-0.7,0.7-0.7l0.7-1.4v-0.7h0.7c2.2,0,7.2-2.9,7.2-4.3h-0.7l-8.6,3.6c-0.7,0-0.7,0-0.7,0.7c0,0.7-0.7,0.7-0.7,0.7l-2.9,0.7
	l-3.6,1.4c-1.4,0-5.8,2.2-5.8,2.2c0,0.7-0.7,1.4-2.2,1.4c-0.7,0-0.7,0-0.7,0.7v0.7c0,0.7,0,1.4-0.7,1.4s-0.7,0-0.7-0.7
	c0-0.7,0-0.7-0.7-0.7h-1.4c-0.7,0-1.4,0.7-1.4,1.4l-1.4,0.7c-1.4,0-2.9,1.4-2.9,2.9l0.7,1.4c0,0.7-2.9,2.2-4.3,2.2
	c-0.7,0-1.4,0-1.4,0.7l-2.2,0.7l-1.4-0.7c0-0.7-0.7-0.7-2.2-0.7h-1.4l1.4,2.2h-2.2c-2.2,0-5,0.7-5.8,2.2c0,0.7-1.4,1.4-2.2,1.4
	c-2.9,0.7-5,2.2-5,2.9c0,0.7-1.4,1.4-7.2,2.2l-2.9,0.7l-0.7-0.7l0.7-0.7l-0.7-0.7c-0.7,0-0.7,0.7-0.7,1.4c0,0.7,0,1.4,0.7,1.4
	s0.7,0.7,0.7,2.2c0,1.4,0,1.4-1.4,1.4h-0.7c-1.4,0-2.9,0.7-3.6,1.4c-3.6,1.4-3.6,2.2-3.6,4.3v1.4c0,2.2-0.7,2.9-1.4,2.9l-1.4-0.7
	l-0.7-0.7h0.7c0.7,0,1.4-0.7,1.4-1.4s0-0.7-0.7-0.7c-0.7,0-2.2,0.7-3.6,2.2c-1.4,0.7-2.9,1.4-4.3,1.4c-0.7,0-1.4,0.7-2.2,1.4
	c0,0.7-2.2,2.2-4.3,2.9l-5,2.9c0,0,0,0.7,0.7,0.7l1.4,0.7l2.2-2.2l0.7,1.4l-0.7,1.4h-0.7c0,0-1.4,0-2.2,0.7l-5,2.9l-2.9,0.7l0.7-2.2
	l-0.7-0.7l-0.7,0.7l-2.9,1.4h-0.7v0.7c0,0.7,0,1.4-5,2.2l-3.6,2.2L1999.4,1355.1z M2123.1,1043l-1.4-0.7c0-1.4,0.7-2.2,1.4-2.2
	l2.9-0.7c0-0.7,0.7-1.4,1.4-1.4l4.3-1.4c2.2-1.4,6.5-2.2,8.6-2.2c1.4,0,2.9,0,2.9,0.7l0.7,0.7v-0.7c0-0.7,0.7-1.4,1.4-1.4
	c0.7,0,1.4,0.7,1.4,1.4c0,1.4-3.6,2.2-8.6,2.2c-2.2,0-3.6,0.7-3.6,1.4v0.7h-0.7L2123.1,1043z M2099.4,1061.7c-0.7,0-1.4-0.7-1.4-1.4
	c0-0.7,1.4-3.6,4.3-5c5-4.3,7.9-6.5,8.6-6.5s0.7,0,0.7,0.7c0,1.4-2.9,3.6-4.3,3.6c-1.4,0-2.2,0.7-2.2,1.4c0,1.4-1.4,2.9-2.9,2.9
	h-0.7l-2.9,0.7l0.7,0.7c0.7,0.7,0.7,1.4,0.7,2.2L2099.4,1061.7z M2095.8,1063.9l-0.7-1.4l0.7-0.7l0.7,0.7
	C2096.5,1063.1,2096.5,1063.9,2095.8,1063.9z M2092.9,1066.7l-0.7-1.4l1.4-0.7c0.7,0,0.7,0,0.7,0.7
	C2094.4,1066,2093.7,1066.7,2092.9,1066.7z M2076.4,1082.6c1.4-2.9,2.2-3.6,3.6-4.3c0,0,0.7,0,0.7,0.7L2076.4,1082.6z
	 M2179.2,1084.7c0.7,0,0.7,0,0.7-0.7v-0.7l-0.7-1.4c0,0-0.7,0-0.7,0.7l-0.7,0.7l0.7,1.4H2179.2z M2073.5,1089l-0.7-0.7
	c-0.7-0.7-1.4-0.7-2.2-0.7h-0.7l-0.7-0.7c0-0.7,1.4-2.2,2.9-2.9c0.7-0.7,2.2-0.7,3.6-0.7c0.7,0,0.7,0,0.7,0.7v0.7
	c0,0.7-1.4,0.7-1.4,0.7h-0.7c-0.7,0-0.7,0.7-0.7,1.4L2073.5,1089L2073.5,1089z M2151.9,1091.2l0.7-0.7v-0.7c0-0.7,0.7-1.4,2.2-2.2
	l2.2-1.4h-2.9c-2.9,0.7-4.3,0.7-4.3,1.4l2.2,2.2L2151.9,1091.2L2151.9,1091.2z M2170.6,1089v-0.7c0-0.7,0-0.7,0.7-0.7s0.7,0,0.7,0.7
	L2170.6,1089z M2166.3,1089h-1.4l0.7-0.7h2.2C2167.7,1089,2167,1089,2166.3,1089z M2155.5,1091.2v-0.7l-1.4-0.7c0,0,0,0.7,0.7,0.7
	L2155.5,1091.2z M2182.8,1092.6l0.7-1.4v0.7L2182.8,1092.6z M2135.4,1097.7l1.4-0.7c0.7,0,1.4-1.4,1.4-1.4c0-0.7,0-0.7-1.4-0.7h-0.7
	l0.7-0.7l-0.7-0.7c-0.7,0-1.4,0.7-1.4,2.2v1.4L2135.4,1097.7z M2144,1098.4l0.7-2.9l-0.7-2.2c-0.7,0-0.7,1.4-0.7,2.2L2144,1098.4z
	 M2145.4,1103.4c0,0-0.7,0-0.7-1.4l0.7-1.4h0.7l0.7,1.4L2145.4,1103.4z M2122.4,1107c0.7,0,1.4-0.7,2.2-1.4c0-1.4,0.7-2.2,2.9-2.2
	c2.2,0,2.9-0.7,2.9-0.7c0-0.7-0.7-0.7-2.2-0.7c-2.2,0-6.5,2.9-6.5,4.3C2121.7,1107,2121.7,1107,2122.4,1107L2122.4,1107z
	 M2057,1108.4c0-1.4,1.4-2.2,3.6-3.6h1.4c0,0.7-0.7,0.7-2.2,2.2L2057,1108.4z M2126,1107c0,0,0.7,0,0.7-0.7c0-0.7,0-0.7-0.7-0.7
	l-0.7,0.7C2125.3,1107,2125.3,1107,2126,1107z M2131.1,1109.2l-0.7-0.7l0.7-1.4h0.7c0.7,0,0.7,0,0.7,0.7
	C2132.5,1108.4,2131.8,1109.2,2131.1,1109.2z M2056.3,1113.5l1.4-0.7c0-0.7,0-0.7-0.7-0.7s-0.7,0-0.7,0.7V1113.5z M2119.5,1116.4
	c-0.7,0-0.7-0.7-0.7-2.2l0.7-1.4c0.7,0,0.7,0.7,0.7,1.4L2119.5,1116.4z M2112.4,1115.6l1.4-0.7l0.7-1.4v-0.7c-0.7,0-0.7,0.7-1.4,2.2
	L2112.4,1115.6z M2106.6,1119.9l0.7-0.7c0-0.7,0-1.4-0.7-1.4l-0.7,1.4L2106.6,1119.9z M2097.3,1130l0.7-0.7c1.4,0,3.6-2.2,5-3.6
	c1.4-1.4,2.9-2.9,2.9-3.6c-0.7,0-1.4,0.7-2.2,1.4l-1.4,0.7l-0.7-0.7c-0.7,0-2.2,1.4-3.6,3.6L2097.3,1130z M2095.1,1135.1
	c0.7,0,0.7-0.7,1.4-1.4l0.7-2.9h-0.7c-0.7,0-1.4,1.4-1.4,2.9V1135.1z M2090.1,1142.2v-1.4l-0.7-0.7h1.4l0.7,0.7l-0.7-0.7
	c0-0.7,0-0.7-0.7-0.7l-1.4,0.7L2090.1,1142.2z M2084.3,1148.7l1.4-1.4c1.4-0.7,2.2-2.2,2.2-2.9l-0.7-0.7l-0.7,1.4v1.4
	c-0.7,0-1.4,0.7-2.2,1.4V1148.7z M2082.2,1154.5l2.2-2.2l-0.7-1.4c-0.7,0-1.4,0.7-2.2,1.4l-0.7,1.4
	C2080.7,1154.5,2081.4,1154.5,2082.2,1154.5z M2079.3,1153l0.7-0.7c0-0.7,0-1.4-0.7-1.4l-0.7,1.4
	C2078.6,1153,2078.6,1153,2079.3,1153z M2081.4,1166c-0.7,0-0.7,0-0.7-1.4c0-0.7,0.7-0.7,1.4-0.7s0.7,0,0.7,0.7
	C2082.2,1166,2081.4,1166,2081.4,1166z M2111.6,1179.6c-0.7,0-1.4,0-1.4-0.7l1.4-0.7c0.7,0,1.4,0,1.4,0.7L2111.6,1179.6z
	 M2114.5,1181.1l-0.7-1.4l1.4-0.7v0.7L2114.5,1181.1z M2103.7,1217.8l0.7-1.4c0-0.7-1.4-1.4-2.2-1.4l-1.4,0.7c0,0.7,0.7,1.4,1.4,1.4
	L2103.7,1217.8z M2108.8,1219.2v-0.7c0-0.7,0-0.7-0.7-0.7h-0.7c0,0-0.7,0-0.7-0.7v-0.7l-1.4,0.7c0,1.4,0.7,2.2,2.2,2.2
	L2108.8,1219.2L2108.8,1219.2z M2117.4,1219.9c0.7,0,1.4,0,1.4-0.7c0-0.7-0.7-0.7-1.4-0.7s-1.4,0-1.4,0.7L2117.4,1219.9z
	 M2124.6,1223.5l0.7-0.7v-1.4c-0.7,0-1.4,0.7-1.4,1.4L2124.6,1223.5z M2129.6,1226.4c0.7,0,0.7-0.7,0.7-0.7l-0.7-1.4l1.4-1.4h-0.7
	c-1.4,0-1.4,0.7-1.4,1.4C2128.9,1224.9,2128.9,1226.4,2129.6,1226.4L2129.6,1226.4z M2137.5,1228.5l2.9-1.4l0.7-0.7l-4.3,2.2H2137.5
	L2137.5,1228.5z M2115.2,1237.2l-1.4-0.7c0-0.7,1.4-1.4,2.2-1.4c0.7,0,1.4,0.7,1.4,1.4L2115.2,1237.2z M2067,1254.4v-5l0.7,1.4
	C2067.8,1252.3,2067.8,1253.7,2067,1254.4L2067,1254.4z M2164.9,1269.5l1.4-0.7l0.7-0.7h-0.7c0,0-0.7,0-0.7,0.7L2164.9,1269.5z
	 M2094.4,1273.9c0.7,0,0.7,0,0.7-0.7c0-1.4-0.7-1.4-0.7-1.4l-0.7,1.4L2094.4,1273.9z M2139.7,1281.8l2.9-0.7l-1.4-0.7
	C2140.4,1280.3,2139.7,1281,2139.7,1281.8z M2023.9,1287.5l1.4-0.7l2.9-2.2h-0.7c-0.7,0-1.4,0-2.2,0.7l-2.2,1.4L2023.9,1287.5z
	 M2014.5,1290.4l7.2-1.4l0.7-0.7l-0.7-0.7l-4.3,1.4L2014.5,1290.4z M2126,1293.3l1.4-0.7c0-0.7,0-1.4-0.7-1.4l-0.7,1.4V1293.3z
	 M2089.3,1297.6l1.4-0.7l0.7-2.2h-0.7v0.7C2090.1,1296.1,2089.3,1296.9,2089.3,1297.6z M2078.6,1301.9l2.9-0.7l2.9-1.4
	c0-0.7-0.7-0.7-1.4-0.7s-1.4,0-2.2,0.7l-2.2,0.7l-1.4,0.7L2078.6,1301.9z M2075.7,1306.2v-1.4c0-0.7-0.7-1.4-1.4-1.4h-0.7
	L2075.7,1306.2z M2077.8,1304.8l1.4-0.7c0-0.7,0-0.7-0.7-0.7l-0.7,0.7V1304.8z M2091.5,1306.2l-1.4-0.7v-0.7c0-0.7,0.7-1.4,1.4-1.4
	l1.4,1.4C2092.9,1305.5,2092.2,1306.2,2091.5,1306.2z M2083.6,1307.7v-0.7l2.9-1.4c0-0.7-0.7-0.7-2.2-0.7c-1.4,0-1.4,0-1.4,1.4
	L2083.6,1307.7z M2069.2,1308.4l1.4-1.4h-1.4l-1.4,0.7C2067.8,1308.4,2068.5,1308.4,2069.2,1308.4z M2030.4,1311.3v-0.7
	c0-0.7,0-0.7-0.7-0.7c-0.7,0-0.7,0-0.7,0.7L2030.4,1311.3z M2063.5,1313.4c0.7,0,0.7,0,0.7-0.7s-1.4-2.2-2.9-2.2h-0.7l0.7,2.2
	C2062,1313.4,2062.7,1313.4,2063.5,1313.4z M2054.8,1313.4c0.7,0,1.4-0.7,1.4-1.4s0-0.7-0.7-0.7l-1.4,0.7L2054.8,1313.4z
	 M1979.3,1314.1c0.7,0,1.4-0.7,2.2-1.4l0.7-0.7l-0.7-0.7l-2.2,1.4l-0.7,1.4H1979.3z M2042.6,1319.9l1.4-1.4c0,0,0-0.7-0.7-0.7
	l-0.7,0.7V1319.9z M2047.6,1321.3l1.4-0.7v-1.4c0-0.7,0-0.7-0.7-0.7l-0.7,0.7c-0.7,0-1.4,0.7-1.4,1.4L2047.6,1321.3z M2060.6,1323.5
	h-2.2c-0.7,0-1.4-0.7-1.4-1.4c0,0,0-0.7,0.7-0.7c0.7,0,0.7,0.7,2.2,0.7L2060.6,1323.5z M2039,1328.5l1.4-0.7c0-0.7,0-0.7-1.4-0.7
	c-0.7,0-1.4,0-1.4,0.7L2039,1328.5z M2029.7,1331.4l2.2-1.4l0.7-1.4h-0.7l-1.4,0.7l-0.7,1.4V1331.4z M2021.7,1331.4l2.2-2.2h-0.7
	c-0.7,0-1.4,0.7-1.4,1.4V1331.4L2021.7,1331.4z M2031.8,1339.3c-0.7,0-0.7,0-0.7-0.7c0-1.4,0.7-1.4,1.4-1.4c0.7,0,0.7,0,0.7,0.7
	L2031.8,1339.3z M2005.9,1345.1l2.9-1.4h0.7c1.4,0,1.4,0,1.4-0.7s0-1.4,0.7-1.4l0.7-0.7h-0.7c-0.7,0-2.2,0.7-3.6,2.2
	C2006.6,1343.6,2005.9,1344.3,2005.9,1345.1L2005.9,1345.1z M2027.5,1342.2h-0.7c0-0.7,0.7-0.7,1.4-1.4h1.4l-0.7,0.7
	C2028.9,1342.2,2028.2,1342.2,2027.5,1342.2z M2018.1,1346.5c0,0,0.7,0,0.7-0.7s0.7-0.7,1.4-0.7h0.7v-0.7l-1.4-0.7
	c-0.7,0-1.4,0-2.2,0.7l-0.7,1.4L2018.1,1346.5z M2007.4,1355.1l-0.7-0.7v-1.4c0.7,0,1.4,0.7,1.4,1.4L2007.4,1355.1z M2320.1,1537.8
	c-14.4,0-24.5-9.3-30.2-22.3c7.2-5,17.3-7.9,35.2-34.5c6.5-6.5,10.8-11.5,12.2-11.5v1.4c0,0.7,0,1.4,0.7,1.4s1.4-0.7,1.4-1.4
	l-0.7-4.3c0-5,2.9-6.5,9.3-15.8c0-2.9,13.7-23,18.7-25.9c1.4,0,2.9-0.7,3.6-1.4c0-0.7-0.7-0.7-1.4-0.7l-2.2,0.7
	c2.2-10.8,8.6-16.5,10.8-16.5c0.7,0,1.4-1.4,1.4-2.9v-1.4c0-8.6,5.8-7.9,8.6-15.1l1.4-5.8c-1.4,0-2.2-0.7-2.2-1.4l1.4-0.7h0.7
	c4.3,0,8.6-9.3,8.6-12.2v-0.7l-1.4,0.7c-1.4-0.7-1.4,0-2.2-1.4c0-1.4,5-2.2,5-4.3l-0.7-2.2c0-5,5.8-15.1,8.6-15.1l2.2,0.7
	c-2.9-2.9-4.3-2.9-4.3-4.3c1.4-1.4,2.9-2.2,2.9-6.5c0-4.3,7.2-11.5,7.2-15.1c1.4-2.2,3.6-0.7,3.6-7.2l-0.7-2.9
	c0-2.2,5.8-0.7,5.8-2.9l-2.2-5c0-1.4,1.4-2.9,2.9-2.9l3.6,2.2c-0.7-3.6-2.2-4.3-2.2-6.5c0-2.2,5-5.8,5-7.9l-2.2-2.2
	c0-2.2,4.3-4.3,5-14.4l1.4,0.7c1.4,0,1.4-1.4,1.4-3.6l-0.7-6.5l0.7-0.7c0.7,0,0.7-0.7,0.7-2.2l-0.7-4.3l0.7-1.4l2.2,0.7
	c2.9,0,4.3-3.6,4.3-6.5c0-2.9-0.7-3.6-2.9-6.5l2.2,0.7c2.2,0,4.3-5,4.3-9.3c0-3.6,0-4.3-2.2-6.5h2.2c2.2,0,2.2-1.4,4.3-4.3l-2.9,1.4
	l0.7-1.4c0.7-0.7,1.4-2.2,1.4-3.6l-1.4-5l0.7-0.7h1.4c0.7,0,1.4-1.4,1.4-2.2v-2.9h-2.2l1.4-5l2.9,0.7l0.7-1.4l-1.4-5
	c4.3-3.6,3.6-3.6,5-12.2c0-2.2-1.4-1.4-2.9-2.9l2.9-1.4l-1.4-1.4c2.2-0.7,2.9-2.2,2.9-4.3c0-2.2-0.7-2.9-2.2-2.9l-0.7,0.7l-0.7-0.7
	c0-2.2,2.9-3.6,2.9-8.6l2.2-8.6c0-2.2-5-2.9-5-3.6c2.9-2.9,5-2.9,5-4.3c-0.7-2.2-0.7-2.9-1.4-2.9c-4.3,2.9-5,3.6-5,7.2
	c0,1.4,0,2.9,1.4,2.9l1.4-0.7c0.7,0,0.7,0,0.7,0.7c0,4.3-5,11.5-14.4,21.6l-0.7-0.7l0.7-2.9c-1.4,0-10.1,9.3-10.1,11.5l0.7,1.4
	c-1.4,2.2-0.7,1.4-2.2,2.2l0.7,0.7l-1.4,1.4l-1.4-0.7c-1.4,0-2.9,1.4-3.6,2.9l0.7,1.4l2.2-0.7c1.4,0.7,1.4,0,2.2,1.4
	c-4.3,2.2-8.6,3.6-8.6,7.2l0.7,1.4c0,2.2-3.6,2.9-5,7.2c-0.7,5.8-9.3,6.5-9.3,7.9c0,0.7,0.7,0.7,0.7,2.2c0,2.2-3.6,5.8-5.8,5.8h-1.4
	l-0.7,0.7l1.4,3.6l-4.3-2.2c-0.7,0-0.7,1.4-0.7,4.3c0,4.3-1.4,5-2.2,7.2l0.7,2.9l-2.2-0.7c-2.9,0-1.4,2.9-2.9,2.9l-1.4-0.7
	c-3.6,0-2.2,4.3-7.9,5l2.9,2.2c-3.6,3.6-5.8,3.6-5.8,5v0.7c2.2,0,12.2-10.1,14.4-10.1c0.7,0,1.4,0.7,2.2,2.2c0,2.2-2.2,2.9-5,2.9
	l1.4,2.2c0,3.6-18,18.7-23.7,18.7c-1.4,0-2.9,1.4-2.9,2.2c-0.7,2.2-2.2,2.9-5.8,2.9l-17.3-0.7c-2.9,0-2.9-2.2-10.1-5
	c-10.8-4.3-14.4-10.1-30.2-22.3c-6.5-5.8-9.3-15.1-10.8-15.1c-0.7,0-2.2-10.1-2.2-17.3l0.7-5c1.4-0.7,2.2-2.2,2.2-2.9l-1.4-1.4
	l-1.4,1.4c1.4-3.6,0.7-2.2,1.4-5.8v-2.2c0-2.2,1.4-2.9,3.6-6.5c-0.7-0.7-1.4,0-1.4-3.6c0-5.8,2.9-19.4,5-20.9
	c0.7-0.7,1.4-2.2,1.4-3.6l-0.7-4.3c0-3.6,1.4-3.6,4.3-5.8c-2.2-0.7-3.6,0-3.6-0.7c2.9-2.9,4.3-4.3,4.3-5c-1.4-1.4-2.2-1.4-2.2-2.2
	c2.2-3.6,3.6-5,3.6-7.9v-2.2c0-5.8,2.9-12.2,5-23c1.4-8.6,2.9-5.8,4.3-13.7c1.4-7.2,6.5-11.5,6.5-13.7l-1.4,0.7
	c-0.7,0-1.4,0-1.4-0.7c0-2.9,4.3-2.9,4.3-9.3c0-3.6,3.6-14.4,10.8-33.8c2.9-5.8,5.8-7.2,12.2-7.9c9.3,0,22.3,7.9,34.5,22.3
	c2.2,2.2,3.6,7.2,3.6,11.5c0,9.3-7.2,15.1-7.2,17.3v1.4c0,7.9-11.5,36-11.5,41.7l0.7,2.2h-0.7c-1.4,0-8.6,21.6-11.5,37.4l-2.9,12.2
	c-2.2,4.3-7.2,29.5-7.2,33.8v0.7c1.4,0,14.4-12.9,15.8-12.9l0.7,0.7c2.2-5.8,1.4-7.9,5.8-7.9c2.2,0,3.6,0,3.6-1.4l-1.4-5
	c2.2-1.4,2.9-0.7,9.3-7.2c2.9-2.9,5-5.8,6.5-5.8h0.7c2.2,0,5-10.8,10.8-13.7c2.2-1.4,4.3-11.5,5.8-11.5c1.4,0.7,1.4,2.9,1.4,4.3
	l-0.7,1.4c3.6-2.9,5-3.6,5-5l-2.2-2.2c0-1.4,2.9-2.2,7.2-5c-2.9-1.4-5-1.4-5-2.9c0-1.4,4.3-2.9,10.1-12.2
	c4.3-12.9,23.7-32.4,23.7-34.5c0-1.4,10.8-15.1,12.2-21.6c1.4-5.8,8.6-8.6,15.8-8.6c9.3,0,15.8,6.5,25.2,12.2
	c3.6,1.4,5.8,2.9,5.8,3.6v0.7c2.9,5.8,6.5,9.3,6.5,12.9c0,1.4,0.7,3.6,2.2,5c2.2,2.2,2.2,5.8,4.3,12.9c1.4,2.2,2.9,16.5,5.8,38.1
	c-0.7,1.4-1.4-1.4-2.9,10.1c0,15.1-1.4,11.5-2.2,19.4c-5,35.2-5.8,30.2-8.6,38.1c-2.9,7.2-5,14.4-5.8,21.6
	c-8.6,28-12.2,59-24.5,86.3c0,2.9-2.9,5-4.3,10.1l-5.8,17.3C2401.4,1493.9,2351,1537.8,2320.1,1537.8L2320.1,1537.8z"/>
<path class="st0" d="M646,1647.9h-21.3c-0.8,0-1.4-0.5-1.4-1.1v-12.9c0-0.6,0.6-1.1,1.4-1.1h62.7c0.8,0,1.4,0.5,1.4,1.1v12.9
	c0,0.6-0.6,1.1-1.4,1.1H666v63.4c0,0.6-0.6,1.1-1.4,1.1h-17.3c-0.8,0-1.4-0.5-1.4-1.1C646,1711.3,646,1647.9,646,1647.9z
	 M678.2,1639.5h-45.4c-1.1,0-1.1,1.6,0,1.6h22.2v63.9c0,0.8,2,0.8,2,0V1641h21.2C679.7,1641,679.6,1639.5,678.2,1639.5z
	 M776.3,1664.2v-30.3c0-0.6,0.6-1.1,1.4-1.1h17.1c0.8,0,1.4,0.5,1.4,1.1v77.4c0,0.6-0.6,1.1-1.4,1.1h-17.1c-0.8,0-1.4-0.5-1.4-1.1
	v-32.1H752v32.1c0,0.6-0.6,1.1-1.4,1.1h-17.1c-0.8,0-1.2-0.5-1.2-1.1v-77.4c0-0.6,0.5-1.1,1.2-1.1h17.1c0.8,0,1.4,0.5,1.4,1.1v30.3
	H776.3z M741,1704.9c0,1,2,0.8,2,0v-32.3h42.2v32.3c0,0.8,1.7,1,1.7,0v-64.8c0-0.8-1.7-1.1-1.7,0v30.9H743v-30.9c0-0.8-2-0.8-2,0
	L741,1704.9L741,1704.9z M848,1712.4c-0.8,0-1.2-0.5-1.2-1.1v-77.4c0-0.6,0.5-1.1,1.2-1.1h51.1c0.8,0,1.4,0.5,1.4,1.1v12.9
	c0,0.6-0.6,1.1-1.4,1.1h-32.5v16.4h25.3c0.8,0,1.2,0.5,1.2,1.1v13.1c0,0.6-0.5,1.1-1.2,1.1h-25.3v17.7h32.5c0.8,0,1.4,0.5,1.4,1.1
	v12.9c0,0.6-0.6,1.1-1.4,1.1H848L848,1712.4z M855.5,1640.4v64.1c0,0.7,0.6,1,1.2,1h34.6c1.4,0,1.1-1.4,0-1.4h-33.8v-31.5h27.7
	c0.9,0,0.9-1.7,0-1.7h-27.7V1641h33.8c1.1,0,1.4-1.6,0-1.6h-34.6C856.1,1639.5,855.5,1639.8,855.5,1640.4L855.5,1640.4z
	 M1059.4,1632.8c16.7,0,26.8,7.6,26.8,21.7v15.2c0,12.9-9.9,21.6-26.8,21.6h-12.6v20c0,0.6-0.6,1.1-1.4,1.1h-17.3
	c-0.6,0-1.1-0.5-1.1-1.1v-77.4c0-0.6,0.5-1.1,1.1-1.1C1028.2,1632.8,1059.4,1632.8,1059.4,1632.8z M1066.5,1666.1v-8
	c0-8.3-4.8-9.2-15.3-9.2h-4.4v26.5h4.4C1059.4,1675.5,1066.5,1674.3,1066.5,1666.1z M1077.2,1668.9v-15.1
	c0-13.3-12.8-14.3-19.7-14.3h-20.3c-0.3,0-0.9,0.4-0.9,0.7v64.8c0,0.8,1.8,0.8,1.8,0v-20.5h18
	C1069.4,1684.6,1077.2,1680.8,1077.2,1668.9L1077.2,1668.9z M1038.1,1641h19.4c16.7,0,17.7,8.8,17.7,12.8v15.1
	c0,12.3-9.6,14-19.1,14h-18V1641L1038.1,1641z M1131.1,1712.4c-0.8,0-1.2-0.5-1.2-1.1v-77.4c0-0.6,0.5-1.1,1.2-1.1h51.1
	c0.8,0,1.4,0.5,1.4,1.1v12.9c0,0.6-0.6,1.1-1.4,1.1h-32.5v16.4h25.3c0.8,0,1.2,0.5,1.2,1.1v13.1c0,0.6-0.5,1.1-1.2,1.1h-25.3v17.7
	h32.5c0.8,0,1.4,0.5,1.4,1.1v12.9c0,0.6-0.6,1.1-1.4,1.1H1131.1L1131.1,1712.4z M1138.6,1640.4v64.1c0,0.7,0.6,1,1.2,1h34.6
	c1.4,0,1.1-1.4,0-1.4h-33.8v-31.5h27.7c0.9,0,0.9-1.7,0-1.7h-27.7V1641h33.8c1.1,0,1.4-1.6,0-1.6h-34.6
	C1139.2,1639.5,1138.6,1639.8,1138.6,1640.4z M1287.9,1680.9c-2.1,3.5-5.1,6.1-9.3,7.7l12.6,22.3c0.5,0.7-0.2,1.4-1.1,1.4h-18.5
	c-0.6,0-0.9-0.2-1.1-0.6l-11.7-20.5h-7.7v20c0,0.6-0.6,1.1-1.4,1.1h-17.3c-0.6,0-1.1-0.5-1.1-1.1v-77.4c0-0.6,0.5-1.1,1.1-1.1h31.3
	c16.7,0,26.8,7.6,26.8,21.7v15.2C1290.6,1673.9,1289.7,1677.9,1287.9,1680.9z M1270.9,1666v-7.8c0-8.4-3.9-9.3-15.3-9.3h-4.4v26.6
	h4.4C1265,1675.5,1270.6,1675.4,1270.9,1666z M1242.5,1705v-20.6h21.6l12.6,20.8c0.3,0.6,2.1,0.4,1.7-0.7l-12.6-20.5
	c11.7-1.3,15.8-6.3,15.8-15.2v-15.1c0-13.3-15-14.3-19.7-14.3h-20.3c-0.3,0-0.9,0.4-0.9,0.7v64.8
	C1240.7,1705.9,1242.5,1705.9,1242.5,1705L1242.5,1705z M1279.8,1653.8v15.1c0,12.3-9.8,14-19.2,14h-18V1641h19.4
	C1278.1,1641,1279.8,1649.8,1279.8,1653.8z M1348.7,1640.1v65c0,0.8,1.8,1.1,1.8,0v-32.4h27.7c1.5,0,1.5-1.7,0-1.7h-27.7V1641h33.7
	c1.1,0,1.4-1.6,0-1.6h-34.6C1349.2,1639.5,1348.7,1639.6,1348.7,1640.1L1348.7,1640.1z M1358.2,1712.4h-17.3c-0.8,0-1.2-0.5-1.2-1.1
	v-77.4c0-0.6,0.5-1.1,1.2-1.1h51.1c0.8,0,1.4,0.5,1.4,1.1v12.9c0,0.6-0.6,1.1-1.4,1.1h-32.5v16.4h25.3c0.8,0,1.2,0.5,1.2,1.1v13.1
	c0,0.6-0.5,1.1-1.2,1.1h-25.3v31.7C1359.5,1711.9,1358.9,1712.4,1358.2,1712.4L1358.2,1712.4z M1438.1,1712.4
	c-0.8,0-1.2-0.5-1.2-1.1v-77.4c0-0.6,0.5-1.1,1.2-1.1h51.1c0.8,0,1.4,0.5,1.4,1.1v12.9c0,0.6-0.6,1.1-1.4,1.1h-32.5v16.4h25.3
	c0.8,0,1.2,0.5,1.2,1.1v13.1c0,0.6-0.5,1.1-1.2,1.1h-25.3v17.7h32.5c0.8,0,1.4,0.5,1.4,1.1v12.9c0,0.6-0.6,1.1-1.4,1.1H1438.1
	L1438.1,1712.4z M1445.6,1640.4v64.1c0,0.7,0.6,1,1.2,1h34.6c1.4,0,1.1-1.4,0-1.4h-33.8v-31.5h27.7c0.9,0,0.9-1.7,0-1.7h-27.7V1641
	h33.8c1.1,0,1.4-1.6,0-1.6h-34.6C1446.2,1639.5,1445.6,1639.8,1445.6,1640.4z M1585.6,1684.6v-3.7c0-0.6,0.6-1.1,1.4-1.1h17.1
	c0.8,0,1.4,0.5,1.4,1.1v7.6c0,17.7-11.9,25.2-34.3,25.2c-20.9,0-34.6-6.6-34.6-25.2v-31.7c0-17.8,12.2-24.9,34.6-24.9
	c21.2,0,34.3,6.5,34.3,24.9v2.5c0,0.6-0.6,1.1-1.4,1.1h-17.3c-0.8,0-1.4-0.5-1.4-1.1v-1.9c0-6.6-6.2-9.4-13.5-9.4h-1.8
	c-5,0-8.3,1.1-10.5,3.5c-2.1,2.3-2.9,5.3-2.9,9.3v23.9c0,10.5,7.4,12.8,13.4,12.8h1.8C1581.4,1697.3,1585.3,1692.3,1585.6,1684.6z
	 M1570.8,1639.2c-16.1,0-25.4,4.6-25.4,19.3v29c0,13.4,8.6,18.3,25.4,18.3c15.8,0,25.3-4.6,25.3-18.4c0-1-1.8-1-1.8,0
	c0,12.2-8.3,17.1-23.5,17.1c-14.7,0-23.8-4.1-23.8-17v-29c0-12.5,7.4-18,23.8-18c21.3,0,22.1,10.8,22.1,12.1c0,1.1,2.1,1.2,2.1,0
	C1595,1642.6,1582.4,1639.2,1570.8,1639.2L1570.8,1639.2z M1668.8,1647.9h-21.3c-0.8,0-1.4-0.5-1.4-1.1v-12.9c0-0.6,0.6-1.1,1.4-1.1
	h62.7c0.8,0,1.4,0.5,1.4,1.1v12.9c0,0.6-0.6,1.1-1.4,1.1h-21.3v63.4c0,0.6-0.6,1.1-1.4,1.1h-17.3c-0.8,0-1.4-0.5-1.4-1.1
	L1668.8,1647.9L1668.8,1647.9z M1701,1639.5h-45.4c-1.1,0-1.1,1.6,0,1.6h22.2v63.9c0,0.8,2,0.8,2,0V1641h21.2
	C1702.5,1641,1702.3,1639.5,1701,1639.5L1701,1639.5z M1866.1,1632.8c16.7,0,26.8,7.6,26.8,21.7v15.2c0,12.9-9.9,21.6-26.8,21.6
	h-12.6v20c0,0.6-0.6,1.1-1.4,1.1h-17.3c-0.6,0-1.1-0.5-1.1-1.1v-77.4c0-0.6,0.5-1.1,1.1-1.1H1866.1L1866.1,1632.8z M1873.2,1666.1
	v-8c0-8.3-4.8-9.2-15.3-9.2h-4.4v26.5h4.4C1866.1,1675.5,1873.2,1674.3,1873.2,1666.1z M1883.9,1668.9v-15.1
	c0-13.3-12.8-14.3-19.7-14.3h-20.3c-0.3,0-0.9,0.4-0.9,0.7v64.8c0,0.8,1.8,0.8,1.8,0v-20.5h18
	C1876,1684.6,1883.9,1680.8,1883.9,1668.9L1883.9,1668.9z M1844.8,1641h19.4c16.7,0,17.7,8.8,17.7,12.8v15.1c0,12.3-9.6,14-19.1,14
	h-18L1844.8,1641L1844.8,1641z M1969.2,1631.8c12.9,0,21.9,2.3,27.7,7.2c4.5,4,6.6,9.6,6.6,17.7v31.7c0,8.3-2.1,14.1-6.6,18
	c-5.9,4.8-14.7,7.2-27.7,7.2c-13.4,0-22.1-2.4-27.8-7.2c-4.4-3.9-6.8-9.6-6.8-18v-31.7c0-8.1,2.4-13.7,6.8-17.8
	C1947.3,1634.1,1956.1,1631.8,1969.2,1631.8z M1983.5,1684.8v-24.1c0-10.6-7.1-12.8-13.5-12.8h-1.8c-9.6,0-13.4,4.9-13.4,12.8v24.1
	c0,10.6,7.1,12.9,13.4,12.9h1.8C1979.6,1697.7,1983.3,1692.5,1983.5,1684.8z M1944.1,1657.6v29.9c0,5.7,1.8,10.4,6,13.9
	c3.9,3.1,9.9,4.8,17.3,4.8h3.9c14.1,0,23.3-7.2,23.3-18.7v-29.9c0-12.3-8.1-18.9-23.3-18.9h-3.9
	C1952.1,1638.6,1944.1,1645.3,1944.1,1657.6z M1971.3,1704.6h-3.9c-7.1,0-12.3-1.4-16.1-4.5c-3.8-3-5.7-7.2-5.7-12.7v-29.9
	c0-11.4,7.7-17.5,21.8-17.5h3.9c14.3,0,21.3,5.9,21.3,17.5v29.9c0,5.1-2,9.6-6,12.8C1982.7,1702.9,1977.5,1704.6,1971.3,1704.6
	L1971.3,1704.6z M2108.7,1680.9c-2.1,3.5-5.1,6.1-9.3,7.7l12.6,22.3c0.5,0.7-0.2,1.4-1.1,1.4h-18.5c-0.6,0-0.9-0.2-1.1-0.6
	l-11.7-20.5h-7.7v20c0,0.6-0.6,1.1-1.4,1.1h-17.3c-0.6,0-1.1-0.5-1.1-1.1v-77.4c0-0.6,0.5-1.1,1.1-1.1h31.3
	c16.7,0,26.8,7.6,26.8,21.7v15.2C2111.4,1673.9,2110.5,1677.9,2108.7,1680.9L2108.7,1680.9z M2091.7,1666v-7.8
	c0-8.4-3.9-9.3-15.3-9.3h-4.4v26.6h4.4C2085.8,1675.5,2091.4,1675.4,2091.7,1666z M2063.3,1705v-20.6h21.6l12.6,20.8
	c0.3,0.6,2.1,0.4,1.7-0.7l-12.6-20.5c11.7-1.3,15.8-6.3,15.8-15.2v-15.1c0-13.3-15-14.3-19.7-14.3h-20.3c-0.3,0-0.9,0.4-0.9,0.7
	v64.8C2061.5,1705.9,2063.3,1705.9,2063.3,1705L2063.3,1705z M2100.6,1653.8v15.1c0,12.3-9.8,14-19.2,14h-18V1641h19.4
	C2098.9,1641,2100.6,1649.8,2100.6,1653.8L2100.6,1653.8z M2176,1647.9h-21.3c-0.8,0-1.4-0.5-1.4-1.1v-12.9c0-0.6,0.6-1.1,1.4-1.1
	h62.7c0.8,0,1.4,0.5,1.4,1.1v12.9c0,0.6-0.6,1.1-1.4,1.1H2196v63.4c0,0.6-0.6,1.1-1.4,1.1h-17.3c-0.8,0-1.4-0.5-1.4-1.1L2176,1647.9
	L2176,1647.9z M2208.2,1639.5h-45.4c-1.1,0-1.1,1.6,0,1.6h22.2v63.9c0,0.8,2,0.8,2,0V1641h21.2
	C2209.7,1641,2209.5,1639.5,2208.2,1639.5L2208.2,1639.5z M2263.4,1712.4c-0.8,0-1.2-0.5-1.2-1.1v-77.4c0-0.6,0.5-1.1,1.2-1.1h17.1
	c0.8,0,1.4,0.5,1.4,1.1v77.4c0,0.6-0.6,1.1-1.4,1.1H2263.4z M2271.3,1640.1v65c0,1.1,1.7,1.1,1.7,0v-65
	C2272.9,1639.2,2271.3,1639.2,2271.3,1640.1z M2364.7,1631.8c12.9,0,21.9,2.3,27.7,7.2c4.5,4,6.6,9.6,6.6,17.7v31.7
	c0,8.3-2.1,14.1-6.6,18c-5.9,4.8-14.7,7.2-27.7,7.2c-13.4,0-22.1-2.4-27.8-7.2c-4.4-3.9-6.8-9.6-6.8-18v-31.7
	c0-8.1,2.4-13.7,6.8-17.8C2342.8,1634.1,2351.7,1631.8,2364.7,1631.8z M2379,1684.8v-24.1c0-10.6-7.1-12.8-13.5-12.8h-1.8
	c-9.6,0-13.4,4.9-13.4,12.8v24.1c0,10.6,7.1,12.9,13.4,12.9h1.8C2375.1,1697.7,2378.9,1692.5,2379,1684.8z M2339.6,1657.6v29.9
	c0,5.7,1.8,10.4,6,13.9c3.9,3.1,9.9,4.8,17.3,4.8h3.9c14.1,0,23.3-7.2,23.3-18.7v-29.9c0-12.3-8.1-18.9-23.3-18.9h-3.9
	C2347.6,1638.6,2339.6,1645.3,2339.6,1657.6z M2366.8,1704.6h-3.9c-7.1,0-12.3-1.4-16.1-4.5c-3.8-3-5.7-7.2-5.7-12.7v-29.9
	c0-11.4,7.7-17.5,21.8-17.5h3.9c14.3,0,21.3,5.9,21.3,17.5v29.9c0,5.1-2,9.6-6,12.8C2378.3,1702.9,2373,1704.6,2366.8,1704.6
	L2366.8,1704.6z M2488.9,1633.9c0-0.6,0.6-1.1,1.4-1.1h17.3c0.8,0,1.4,0.5,1.4,1.1v77.4c0,0.6-0.6,1.1-1.4,1.1h-16.7
	c-0.6,0-1.2-0.2-1.4-0.6l-21.9-39.7v39.2c0,0.6-0.6,1.1-1.4,1.1H2449c-0.8,0-1.2-0.5-1.2-1.1v-77.4c0-0.6,0.5-1.1,1.2-1.1h17.7
	c0.6,0,0.9,0.4,1.1,0.6l21,38.9L2488.9,1633.9L2488.9,1633.9z M2499.7,1705.2v-65.1c0-0.8-2-1.1-2,0v61.9l-39.2-62.2
	c-0.5-0.5-1.7-0.5-1.7,0.2v65c0,1.1,1.8,1.1,1.8,0v-61.8l39.1,62.1C2498.3,1706.1,2499.7,1705.9,2499.7,1705.2z"/>
</svg>
